<svg width="359" height="567" viewBox="0 0 359 567" fill="none" xmlns="http://www.w3.org/2000/svg">
<path d="M77.5178 375.64C77.5178 375.96 77.4858 376.184 77.4218 376.312C77.3258 376.472 76.9898 376.616 76.4138 376.744C75.8378 376.872 74.9418 376.936 73.7258 376.936C71.9018 376.936 70.9898 377.624 70.9898 379C70.9898 379.928 71.2618 380.568 71.8058 380.92C72.3498 381.24 73.2778 381.4 74.5898 381.4C75.2298 381.4 75.7738 381.432 76.2218 381.496C76.6378 381.528 76.9738 381.608 77.2298 381.736C77.4858 381.896 77.6618 382.072 77.7578 382.264C77.8538 382.456 77.9018 382.696 77.9018 382.984C77.9018 383.88 76.6858 384.328 74.2538 384.328C73.8058 384.328 73.1658 384.296 72.3338 384.232C71.4698 384.136 70.8298 384.088 70.4138 384.088C69.6138 384.088 68.9898 384.296 68.5418 384.712C68.0938 385.096 67.8698 385.864 67.8698 387.016C67.8698 388.36 68.5738 389.368 69.9818 390.04C71.3578 390.68 73.6618 391 76.8938 391C79.4858 391 81.5498 390.392 83.0858 389.176C84.6218 387.96 85.3898 386.376 85.3898 384.424C85.3898 383.464 85.2618 382.664 85.0058 382.024C84.7498 381.352 84.3818 380.808 83.9018 380.392C83.4218 379.944 82.7338 379.48 81.8378 379C83.7578 377.688 84.7178 375.912 84.7178 373.672C84.7178 372.104 83.9658 370.824 82.4618 369.832C80.9898 368.84 78.7498 368.344 75.7418 368.344C71.0698 368.344 68.7338 369.336 68.7338 371.32C68.7338 373.272 69.5338 374.248 71.1338 374.248C71.4538 374.248 71.9818 374.216 72.7178 374.152C73.4538 374.056 74.0298 374.008 74.4458 374.008C76.4938 374.008 77.5178 374.552 77.5178 375.64ZM98.3078 391.288C95.7798 391.288 93.6838 390.264 92.0198 388.216C90.3558 386.136 89.5238 383.304 89.5238 379.72C89.5238 376.072 90.3398 373.176 91.9718 371.032C93.6358 368.856 95.7478 367.768 98.3078 367.768C100.9 367.768 103.3 368.68 105.508 370.504C106.372 368.904 107.764 368.104 109.684 368.104C111.412 368.104 112.756 368.488 113.716 369.256C114.676 369.992 115.156 371.368 115.156 373.384V385.864C115.156 387.784 114.756 389.128 113.956 389.896C113.156 390.632 111.748 391 109.732 391C107.62 391 106.228 390.408 105.556 389.224C103.508 390.6 101.092 391.288 98.3078 391.288ZM104.836 375.112C104.292 374.184 103.588 373.72 102.724 373.72C101.892 373.72 101.22 374.328 100.708 375.544C100.196 376.76 99.9398 378.152 99.9398 379.72C99.9398 381.192 100.18 382.504 100.66 383.656C101.14 384.808 101.812 385.384 102.676 385.384C103.572 385.384 104.292 384.952 104.836 384.088V375.112ZM148.133 378.328C148.133 376.536 147.413 375.64 145.973 375.64C145.333 375.64 144.853 376.008 144.533 376.744C144.213 377.48 144.053 378.408 144.053 379.528C144.053 381.224 144.021 382.632 143.957 383.752C143.925 384.872 143.829 385.88 143.669 386.776C143.509 387.672 143.317 388.376 143.093 388.888C142.869 389.4 142.565 389.832 142.181 390.184C141.797 390.504 141.365 390.728 140.885 390.856C140.405 390.952 139.797 391 139.061 391C137.941 391 137.029 390.84 136.325 390.52C135.653 390.2 135.173 389.752 134.885 389.176C134.597 388.6 134.453 387.88 134.453 387.016V378.328C134.453 376.536 133.733 375.64 132.293 375.64C131.717 375.64 131.237 375.976 130.853 376.648C130.501 377.288 130.325 378.136 130.325 379.192V385.864C130.325 387.784 129.925 389.128 129.125 389.896C128.325 390.632 126.917 391 124.901 391C123.013 391 121.717 390.568 121.013 389.704C120.341 388.808 120.005 387.352 120.005 385.336V373.528C120.005 371.896 120.437 370.584 121.301 369.592C122.197 368.6 123.381 368.104 124.853 368.104C127.477 368.104 129.141 368.952 129.845 370.648C131.061 369.752 132.245 369.128 133.397 368.776C134.581 368.424 135.957 368.248 137.525 368.248C139.893 368.248 141.605 369.272 142.661 371.32C142.821 371.192 142.981 371.064 143.141 370.936C145.605 369.144 148.629 368.248 152.213 368.248C154.485 368.248 156.117 369.112 157.109 370.84C158.101 372.568 158.597 375.464 158.597 379.528C158.597 381.224 158.565 382.632 158.501 383.752C158.469 384.872 158.373 385.88 158.213 386.776C158.053 387.672 157.845 388.376 157.589 388.888C157.365 389.4 157.029 389.832 156.581 390.184C156.165 390.504 155.685 390.728 155.141 390.856C154.629 390.952 153.973 391 153.173 391C151.957 391 150.965 390.84 150.197 390.52C149.461 390.2 148.933 389.752 148.613 389.176C148.293 388.6 148.133 387.88 148.133 387.016V378.328ZM173.634 380.872C173.634 382.696 174.338 383.608 175.746 383.608C176.226 383.608 176.642 383.464 176.994 383.176C177.378 382.856 177.666 382.424 177.858 381.88C178.05 381.336 178.146 380.712 178.146 380.008V373.576C178.146 372.488 178.338 371.544 178.722 370.744C179.106 369.912 179.666 369.272 180.402 368.824C181.138 368.376 182.002 368.152 182.994 368.152C184.722 368.152 186.066 368.536 187.026 369.304C187.986 370.04 188.466 371.416 188.466 373.432V385.912C188.466 387.864 188.066 389.208 187.266 389.944C186.466 390.68 185.058 391.048 183.042 391.048C182.178 391.048 181.442 390.968 180.834 390.808C180.226 390.616 179.73 390.344 179.346 389.992C178.994 389.64 178.722 389.176 178.53 388.6C177.218 389.464 175.826 390.072 174.354 390.424C172.914 390.776 171.298 390.952 169.506 390.952C167.234 390.952 165.602 390.072 164.61 388.312C163.618 386.52 163.122 383.592 163.122 379.528C163.122 377.512 163.17 375.88 163.266 374.632C163.362 373.352 163.506 372.264 163.698 371.368C163.922 370.44 164.242 369.752 164.658 369.304C165.106 368.856 165.618 368.536 166.194 368.344C166.802 368.152 167.586 368.056 168.546 368.056C170.338 368.056 171.618 368.392 172.386 369.064C173.186 369.736 173.586 370.744 173.586 372.088L173.634 380.872ZM203.49 372.136C203.49 371.272 203.33 370.552 203.01 369.976C202.69 369.4 202.146 368.952 201.378 368.632C200.642 368.312 199.666 368.152 198.45 368.152C197.65 368.152 196.978 368.2 196.434 368.296C195.922 368.424 195.442 368.648 194.994 368.968C194.578 369.32 194.242 369.752 193.986 370.264C193.762 370.776 193.57 371.48 193.41 372.376C193.25 373.272 193.138 374.28 193.074 375.4C193.042 376.52 193.026 377.928 193.026 379.624C193.026 383.688 193.522 386.584 194.514 388.312C195.506 390.04 197.138 390.904 199.41 390.904C202.994 390.904 206.018 390.008 208.482 388.216L208.962 387.832C210.018 389.88 211.73 390.904 214.098 390.904C215.666 390.904 217.026 390.728 218.178 390.376C219.362 390.024 220.562 389.4 221.778 388.504C222.482 390.2 224.146 391.048 226.77 391.048C228.242 391.048 229.426 390.552 230.322 389.56C231.186 388.568 231.618 387.256 231.618 385.624V373.816C231.618 371.8 231.282 370.344 230.61 369.448C229.906 368.584 228.61 368.152 226.722 368.152C224.706 368.152 223.298 368.52 222.498 369.256C221.698 370.024 221.298 371.368 221.298 373.288V379.96C221.298 381.016 221.106 381.88 220.722 382.552C220.37 383.192 219.906 383.512 219.33 383.512C217.89 383.512 217.17 382.616 217.17 380.824V372.136C217.17 371.272 217.026 370.552 216.738 369.976C216.45 369.4 215.97 368.952 215.298 368.632C214.594 368.312 213.682 368.152 212.562 368.152C211.826 368.152 211.218 368.2 210.738 368.296C210.258 368.424 209.826 368.648 209.442 368.968C209.058 369.32 208.754 369.752 208.53 370.264C208.306 370.776 208.114 371.48 207.954 372.376C207.794 373.272 207.682 374.28 207.618 375.4C207.586 376.52 207.57 377.928 207.57 379.624C207.57 380.744 207.41 381.672 207.09 382.408C206.77 383.144 206.29 383.512 205.65 383.512C204.21 383.512 203.49 382.616 203.49 380.824V372.136ZM259.727 369.256C258.767 368.488 257.423 368.104 255.695 368.104C254.223 368.104 253.039 368.6 252.143 369.592C251.279 370.584 250.847 371.896 250.847 373.528V376.648H246.143V373.384C246.143 371.368 245.663 369.992 244.703 369.256C243.743 368.488 242.399 368.104 240.671 368.104C239.199 368.104 238.015 368.6 237.119 369.592C236.255 370.584 235.823 371.896 235.823 373.528V385.336C235.823 387.352 236.159 388.808 236.831 389.704C237.535 390.568 238.831 391 240.719 391C242.735 391 244.143 390.632 244.943 389.896C245.743 389.128 246.143 387.784 246.143 385.864V382.456H250.847V385.336C250.847 387.352 251.183 388.808 251.855 389.704C252.559 390.568 253.855 391 255.743 391C257.759 391 259.167 390.632 259.967 389.896C260.767 389.128 261.167 387.784 261.167 385.864V373.384C261.167 371.368 260.687 369.992 259.727 369.256ZM274.089 391.288C271.561 391.288 269.465 390.264 267.801 388.216C266.137 386.136 265.305 383.304 265.305 379.72C265.305 376.072 266.121 373.176 267.753 371.032C269.417 368.856 271.529 367.768 274.089 367.768C276.681 367.768 279.081 368.68 281.289 370.504C282.153 368.904 283.545 368.104 285.465 368.104C287.193 368.104 288.537 368.488 289.497 369.256C290.457 369.992 290.937 371.368 290.937 373.384V385.864C290.937 387.784 290.537 389.128 289.737 389.896C288.937 390.632 287.529 391 285.513 391C283.401 391 282.009 390.408 281.337 389.224C279.289 390.6 276.873 391.288 274.089 391.288ZM280.617 375.112C280.073 374.184 279.369 373.72 278.505 373.72C277.673 373.72 277.001 374.328 276.489 375.544C275.977 376.76 275.721 378.152 275.721 379.72C275.721 381.192 275.961 382.504 276.441 383.656C276.921 384.808 277.593 385.384 278.457 385.384C279.353 385.384 280.073 384.952 280.617 384.088V375.112ZM18.2219 444.288C15.6939 444.288 13.5979 443.264 11.9339 441.216C10.2699 439.136 9.43788 436.304 9.43788 432.72C9.43788 429.072 10.2539 426.176 11.8859 424.032C13.5499 421.856 15.6619 420.768 18.2219 420.768C20.8139 420.768 23.2139 421.68 25.4219 423.504C26.2859 421.904 27.6779 421.104 29.5979 421.104C31.3259 421.104 32.6699 421.488 33.6299 422.256C34.5899 422.992 35.0699 424.368 35.0699 426.384V438.864C35.0699 440.784 34.6699 442.128 33.8699 442.896C33.0699 443.632 31.6619 444 29.6459 444C27.5339 444 26.1419 443.408 25.4699 442.224C23.4219 443.6 21.0059 444.288 18.2219 444.288ZM24.7499 428.112C24.2059 427.184 23.5019 426.72 22.6379 426.72C21.8059 426.72 21.1339 427.328 20.6219 428.544C20.1099 429.76 19.8539 431.152 19.8539 432.72C19.8539 434.192 20.0939 435.504 20.5739 436.656C21.0539 437.808 21.7259 438.384 22.5899 438.384C23.4859 438.384 24.2059 437.952 24.7499 437.088V428.112ZM68.047 431.328C68.047 429.536 67.327 428.64 65.887 428.64C65.247 428.64 64.767 429.008 64.447 429.744C64.127 430.48 63.967 431.408 63.967 432.528C63.967 434.224 63.935 435.632 63.871 436.752C63.839 437.872 63.743 438.88 63.583 439.776C63.423 440.672 63.231 441.376 63.007 441.888C62.783 442.4 62.479 442.832 62.095 443.184C61.711 443.504 61.279 443.728 60.799 443.856C60.319 443.952 59.711 444 58.975 444C57.855 444 56.943 443.84 56.239 443.52C55.567 443.2 55.087 442.752 54.799 442.176C54.511 441.6 54.367 440.88 54.367 440.016V431.328C54.367 429.536 53.647 428.64 52.207 428.64C51.631 428.64 51.151 428.976 50.767 429.648C50.415 430.288 50.239 431.136 50.239 432.192V438.864C50.239 440.784 49.839 442.128 49.039 442.896C48.239 443.632 46.831 444 44.815 444C42.927 444 41.631 443.568 40.927 442.704C40.255 441.808 39.919 440.352 39.919 438.336V426.528C39.919 424.896 40.351 423.584 41.215 422.592C42.111 421.6 43.295 421.104 44.767 421.104C47.391 421.104 49.055 421.952 49.759 423.648C50.975 422.752 52.159 422.128 53.311 421.776C54.495 421.424 55.871 421.248 57.439 421.248C59.807 421.248 61.519 422.272 62.575 424.32C62.735 424.192 62.895 424.064 63.055 423.936C65.519 422.144 68.543 421.248 72.127 421.248C74.399 421.248 76.031 422.112 77.023 423.84C78.015 425.568 78.511 428.464 78.511 432.528C78.511 434.224 78.479 435.632 78.415 436.752C78.383 437.872 78.287 438.88 78.127 439.776C77.967 440.672 77.759 441.376 77.503 441.888C77.279 442.4 76.943 442.832 76.495 443.184C76.079 443.504 75.599 443.728 75.055 443.856C74.543 443.952 73.887 444 73.087 444C71.871 444 70.879 443.84 70.111 443.52C69.375 443.2 68.847 442.752 68.527 442.176C68.207 441.6 68.047 440.88 68.047 440.016V431.328ZM113.228 422.304C112.268 421.536 110.924 421.152 109.196 421.152C107.724 421.152 106.556 421.648 105.692 422.64L105.452 422.928C104.94 423.312 104.3 424.032 103.532 425.088L98.9721 430.848L94.3641 424.992C93.9481 424.448 93.5801 423.984 93.2601 423.6C92.9401 423.216 92.6201 422.896 92.3001 422.64L91.9161 422.352L91.8201 422.304C90.8601 421.536 89.5161 421.152 87.7881 421.152C86.3161 421.152 85.1321 421.648 84.2361 422.64C83.3721 423.632 82.9401 424.944 82.9401 426.576V438.384C82.9401 440.4 83.2921 441.856 83.9961 442.752C84.6681 443.616 85.9481 444.048 87.8361 444.048C89.8521 444.048 91.2601 443.68 92.0601 442.944C92.8601 442.176 93.2601 440.832 93.2601 438.912V435.36L95.3721 438.096C96.2361 439.216 97.4201 439.792 98.9241 439.824C100.524 439.856 101.756 439.28 102.62 438.096L104.348 435.84V438.384C104.348 440.4 104.7 441.856 105.404 442.752C106.076 443.616 107.356 444.048 109.244 444.048C111.26 444.048 112.668 443.68 113.468 442.944C114.268 442.176 114.668 440.832 114.668 438.912V426.432C114.668 424.416 114.188 423.04 113.228 422.304ZM134.493 432.624C134.493 430.96 134.285 429.504 133.869 428.256C133.453 426.976 132.845 426.336 132.045 426.336C131.501 426.336 131.021 426.656 130.605 427.296C130.189 427.936 129.885 428.72 129.693 429.648C129.501 430.576 129.405 431.568 129.405 432.624C129.405 434.256 129.629 435.696 130.077 436.944C130.525 438.16 131.165 438.768 131.997 438.768C132.829 438.768 133.453 438.16 133.869 436.944C134.285 435.728 134.493 434.288 134.493 432.624ZM131.997 444.336C129.501 444.336 127.245 443.888 125.229 442.992C123.245 442.096 121.645 440.752 120.429 438.96C119.245 437.168 118.653 435.072 118.653 432.672C118.653 429.024 119.901 426.128 122.397 423.984C124.893 421.84 128.093 420.768 131.997 420.768C135.901 420.768 139.085 421.84 141.549 423.984C144.013 426.128 145.245 429.024 145.245 432.672C145.245 436.288 143.981 439.136 141.453 441.216C138.957 443.296 135.805 444.336 131.997 444.336ZM163.479 426.048C163.479 425.312 163.063 424.944 162.231 424.944C161.623 424.944 161.079 425.28 160.599 425.952C160.119 426.624 159.751 427.472 159.495 428.496C159.239 429.488 159.111 430.528 159.111 431.616C159.111 433.216 159.591 434.512 160.551 435.504C161.543 436.496 162.871 436.992 164.535 436.992C166.167 436.992 167.575 436.8 168.759 436.416C169.239 436.288 169.815 436.048 170.487 435.696C171.191 435.344 171.687 435.168 171.975 435.168C172.423 435.168 172.791 435.248 173.079 435.408C173.367 435.568 173.559 435.76 173.655 435.984C173.783 436.208 173.847 436.448 173.847 436.704C173.847 437.152 173.687 437.696 173.367 438.336C173.079 438.976 172.615 439.648 171.975 440.352C171.335 441.056 170.583 441.712 169.719 442.32C168.887 442.896 167.847 443.376 166.599 443.76C165.351 444.144 164.039 444.336 162.663 444.336C158.695 444.336 155.431 443.28 152.871 441.168C150.311 439.024 149.031 436.096 149.031 432.384C149.031 430.016 149.607 427.952 150.759 426.192C151.943 424.4 153.559 423.056 155.607 422.16C157.655 421.232 160.007 420.768 162.663 420.768C165.191 420.768 167.271 421.072 168.903 421.68C170.567 422.256 171.751 423.04 172.455 424.032C173.159 425.024 173.51 426.208 173.51 427.584C173.51 428.192 173.383 428.816 173.127 429.456C172.903 430.096 172.535 430.736 172.023 431.376C171.543 432.016 170.823 432.544 169.863 432.96C168.903 433.344 167.783 433.536 166.503 433.536C165.927 433.536 165.447 433.504 165.063 433.44C164.711 433.376 164.327 433.248 163.911 433.056C163.527 432.832 163.239 432.48 163.047 432C162.855 431.52 162.759 430.912 162.759 430.176C162.759 429.536 162.871 428.768 163.095 427.872C163.351 426.944 163.479 426.336 163.479 426.048ZM207.525 436.656C207.045 437.808 206.357 438.384 205.461 438.384C204.597 438.384 203.893 437.936 203.349 437.04V428.112C203.893 427.184 204.597 426.72 205.461 426.72C206.293 426.72 206.965 427.328 207.477 428.544C207.989 429.76 208.245 431.152 208.245 432.72C208.245 434.192 208.005 435.504 207.525 436.656ZM190.629 438.384C189.765 438.384 189.093 437.808 188.613 436.656C188.133 435.504 187.893 434.192 187.893 432.72C187.893 431.152 188.149 429.76 188.661 428.544C189.173 427.328 189.845 426.72 190.677 426.72C191.541 426.72 192.245 427.168 192.789 428.064V431.808V437.04C192.245 437.936 191.525 438.384 190.629 438.384ZM216.213 423.984C214.581 421.84 212.485 420.768 209.925 420.768C207.397 420.768 205.029 421.632 202.821 423.36C202.437 422.464 201.861 421.856 201.093 421.536C200.325 421.248 199.317 421.104 198.069 421.104H197.685C196.597 421.136 195.717 421.296 195.045 421.584C194.277 421.872 193.701 422.464 193.317 423.36C191.109 421.632 188.741 420.768 186.213 420.768C183.653 420.768 181.557 421.84 179.925 423.984C178.293 426.128 177.477 429.04 177.477 432.72C177.477 436.304 178.309 439.136 179.973 441.216C181.637 443.264 183.733 444.288 186.261 444.288C188.693 444.288 190.869 443.744 192.789 442.656V446.784C192.789 448.128 192.901 449.264 193.125 450.192C193.349 451.184 193.685 451.952 194.133 452.496C194.869 453.392 195.989 453.888 197.493 453.984H197.829H198.069C199.829 453.984 201.157 453.424 202.053 452.304C202.917 451.216 203.349 449.376 203.349 446.784V442.656C205.269 443.744 207.445 444.288 209.877 444.288C212.405 444.288 214.501 443.248 216.165 441.168C217.829 439.12 218.661 436.304 218.661 432.72C218.661 429.04 217.845 426.128 216.213 423.984ZM235.736 444.288C231.832 444.288 228.6 443.28 226.04 441.264C223.512 439.248 222.248 436.496 222.248 433.008C222.248 429.232 223.496 426.256 225.992 424.08C228.52 421.872 231.768 420.768 235.736 420.768C239.48 420.768 242.216 421.44 243.944 422.784C245.704 424.096 246.584 425.904 246.584 428.208C246.584 428.656 246.52 429.088 246.392 429.504C246.296 429.92 246.12 430.336 245.864 430.752C245.64 431.136 245.32 431.504 244.904 431.856C244.52 432.176 244.072 432.48 243.56 432.768C243.048 433.024 242.44 433.232 241.736 433.392C241.032 433.52 240.28 433.584 239.48 433.584L232.712 433.632C233.032 434.656 233.608 435.472 234.44 436.08C235.272 436.656 236.328 436.944 237.608 436.944C238.984 436.944 240.392 436.768 241.832 436.416C242.44 436.256 243.096 436 243.8 435.648C244.536 435.296 245.064 435.12 245.384 435.12C245.928 435.12 246.344 435.28 246.632 435.6C246.952 435.92 247.112 436.32 247.112 436.8C247.112 437.376 246.856 438.08 246.344 438.912C245.832 439.712 245.112 440.528 244.184 441.36C243.288 442.16 242.088 442.848 240.584 443.424C239.08 444 237.464 444.288 235.736 444.288ZM232.472 430.56C234.68 430.528 235.88 430.512 236.072 430.512C236.552 430.512 236.904 430.224 237.128 429.648C237.288 429.232 237.368 428.656 237.368 427.92C237.368 425.904 236.76 424.896 235.544 424.896C235.096 424.896 234.648 425.136 234.2 425.616C233.784 426.096 233.416 426.784 233.096 427.68C232.776 428.544 232.568 429.504 232.472 430.56ZM261.691 446.784C261.691 449.376 261.259 451.216 260.395 452.304C259.531 453.424 258.203 453.984 256.411 453.984C254.619 453.984 253.307 453.472 252.475 452.448C251.643 451.456 251.227 449.68 251.227 447.12L251.131 426.864C251.131 424.88 251.611 423.424 252.571 422.496C253.531 421.568 254.811 421.104 256.411 421.104C257.659 421.104 258.667 421.264 259.435 421.584C260.203 421.872 260.779 422.464 261.163 423.36C263.371 421.632 265.739 420.768 268.267 420.768C270.827 420.768 272.923 421.84 274.555 423.984C276.187 426.128 277.003 429.04 277.003 432.72C277.003 436.304 276.171 439.136 274.507 441.216C272.843 443.264 270.747 444.288 268.219 444.288C265.787 444.288 263.611 443.744 261.691 442.656V446.784ZM261.691 437.04C262.235 437.936 262.955 438.384 263.851 438.384C264.715 438.384 265.387 437.808 265.867 436.656C266.347 435.504 266.587 434.192 266.587 432.72C266.587 431.152 266.331 429.76 265.819 428.544C265.307 427.328 264.635 426.72 263.803 426.72C262.939 426.72 262.235 427.184 261.691 428.112V437.04ZM289.488 444.288C286.96 444.288 284.864 443.264 283.2 441.216C281.536 439.136 280.704 436.304 280.704 432.72C280.704 429.072 281.52 426.176 283.152 424.032C284.816 421.856 286.928 420.768 289.488 420.768C292.08 420.768 294.48 421.68 296.688 423.504C297.552 421.904 298.944 421.104 300.864 421.104C302.592 421.104 303.936 421.488 304.896 422.256C305.856 422.992 306.336 424.368 306.336 426.384V438.864C306.336 440.784 305.936 442.128 305.135 442.896C304.336 443.632 302.928 444 300.912 444C298.8 444 297.408 443.408 296.736 442.224C294.688 443.6 292.272 444.288 289.488 444.288ZM296.016 428.112C295.472 427.184 294.768 426.72 293.904 426.72C293.072 426.72 292.4 427.328 291.888 428.544C291.376 429.76 291.12 431.152 291.12 432.72C291.12 434.192 291.36 435.504 291.84 436.656C292.32 437.808 292.992 438.384 293.856 438.384C294.752 438.384 295.472 437.952 296.016 437.088V428.112ZM334.298 433.872C334.298 435.696 335.002 436.608 336.41 436.608C337.114 436.608 337.69 436.272 338.138 435.6C338.586 434.928 338.81 434.064 338.81 433.008V426.576C338.81 425.776 338.922 425.04 339.146 424.368C339.37 423.696 339.69 423.12 340.106 422.64C340.522 422.16 341.034 421.792 341.642 421.536C342.25 421.28 342.922 421.152 343.658 421.152C345.386 421.152 346.73 421.536 347.69 422.304C348.65 423.04 349.13 424.416 349.13 426.432V438.912C349.13 440.864 348.73 442.208 347.93 442.944C347.13 443.68 345.722 444.048 343.706 444.048C341.274 444.048 339.77 443.232 339.194 441.6C336.762 443.168 333.754 443.952 330.17 443.952C327.898 443.952 326.266 443.072 325.274 441.312C324.282 439.52 323.786 436.592 323.786 432.528C323.786 430.512 323.834 428.88 323.93 427.632C324.026 426.352 324.17 425.264 324.362 424.368C324.586 423.44 324.906 422.752 325.322 422.304C325.77 421.856 326.282 421.536 326.858 421.344C327.466 421.152 328.25 421.056 329.21 421.056C331.002 421.056 332.282 421.392 333.05 422.064C333.85 422.736 334.25 423.744 334.25 425.088L334.298 433.872ZM336.554 413.136C337.61 413.136 338.138 412.384 338.138 410.88C338.138 409.344 339.29 408.576 341.594 408.576C344.186 408.576 345.482 409.632 345.482 411.744C345.482 416.416 342.506 418.752 336.554 418.752C333.738 418.752 331.546 418.224 329.978 417.168C328.41 416.112 327.626 414.304 327.626 411.744C327.626 409.632 328.922 408.576 331.514 408.576C333.818 408.576 334.97 409.344 334.97 410.88C334.97 411.648 335.082 412.224 335.306 412.608C335.53 412.96 335.946 413.136 336.554 413.136ZM33.7878 484.088C33.7878 482.296 33.0838 481.4 31.6758 481.4C31.0038 481.4 30.4438 481.688 29.9958 482.264C29.5798 482.808 29.3398 483.544 29.2758 484.472V491.864C29.2758 493.816 28.8758 495.16 28.0758 495.896C27.2758 496.632 25.8678 497 23.8518 497C21.9638 497 20.6678 496.568 19.9638 495.704C19.2918 494.808 18.9558 493.352 18.9558 491.336V479.528C18.9558 477.896 19.3878 476.584 20.2518 475.592C21.1478 474.6 22.3318 474.104 23.8038 474.104C25.0198 474.104 26.0438 474.28 26.8758 474.632C27.7078 474.984 28.3318 475.592 28.7478 476.456C31.2438 474.824 34.2838 474.008 37.8678 474.008C40.1398 474.008 41.7718 474.904 42.7638 476.696C43.7878 478.488 44.2998 481.432 44.2998 485.528C44.2998 487.544 44.2518 489.192 44.1558 490.472C44.0598 491.72 43.8998 492.808 43.6758 493.736C43.4838 494.632 43.1638 495.304 42.7158 495.752C42.2678 496.2 41.7398 496.52 41.1318 496.712C40.5558 496.904 39.8038 497 38.8758 497C37.0838 497 35.7878 496.664 34.9878 495.992C34.2198 495.32 33.8358 494.328 33.8358 493.016L33.7878 484.088ZM59.2379 499.784C59.2379 502.376 58.8059 504.216 57.9419 505.304C57.0779 506.424 55.7499 506.984 53.9579 506.984C52.1659 506.984 50.8539 506.472 50.0219 505.448C49.1899 504.456 48.7739 502.68 48.7739 500.12L48.6779 479.864C48.6779 477.88 49.1579 476.424 50.1179 475.496C51.0779 474.568 52.3579 474.104 53.9579 474.104C55.2059 474.104 56.2139 474.264 56.9819 474.584C57.7499 474.872 58.3259 475.464 58.7099 476.36C60.9179 474.632 63.2859 473.768 65.8139 473.768C68.3739 473.768 70.4699 474.84 72.1019 476.984C73.7339 479.128 74.5499 482.04 74.5499 485.72C74.5499 489.304 73.7179 492.136 72.0539 494.216C70.3899 496.264 68.2939 497.288 65.7659 497.288C63.3339 497.288 61.1579 496.744 59.2379 495.656V499.784ZM59.2379 490.04C59.7819 490.936 60.5019 491.384 61.3979 491.384C62.2619 491.384 62.9339 490.808 63.4139 489.656C63.8939 488.504 64.1339 487.192 64.1339 485.72C64.1339 484.152 63.8779 482.76 63.3659 481.544C62.8539 480.328 62.1819 479.72 61.3499 479.72C60.4859 479.72 59.7819 480.184 59.2379 481.112V490.04ZM88.9544 486.872C88.9544 488.696 89.6584 489.608 91.0664 489.608C91.5464 489.608 91.9624 489.464 92.3144 489.176C92.6984 488.856 92.9864 488.424 93.1784 487.88C93.3704 487.336 93.4664 486.712 93.4664 486.008V479.576C93.4664 478.488 93.6584 477.544 94.0424 476.744C94.4264 475.912 94.9864 475.272 95.7224 474.824C96.4584 474.376 97.3224 474.152 98.3144 474.152C100.042 474.152 101.386 474.536 102.346 475.304C103.306 476.04 103.786 477.416 103.786 479.432V491.912C103.786 493.864 103.386 495.208 102.586 495.944C101.786 496.68 100.378 497.048 98.3624 497.048C97.4984 497.048 96.7624 496.968 96.1544 496.808C95.5464 496.616 95.0504 496.344 94.6664 495.992C94.3144 495.64 94.0424 495.176 93.8504 494.6C92.5384 495.464 91.1464 496.072 89.6744 496.424C88.2344 496.776 86.6184 496.952 84.8264 496.952C82.5544 496.952 80.9224 496.072 79.9304 494.312C78.9384 492.52 78.4424 489.592 78.4424 485.528C78.4424 483.512 78.4904 481.88 78.5864 480.632C78.6824 479.352 78.8264 478.264 79.0184 477.368C79.2424 476.44 79.5624 475.752 79.9784 475.304C80.4264 474.856 80.9384 474.536 81.5144 474.344C82.1224 474.152 82.9064 474.056 83.8664 474.056C85.6584 474.056 86.9384 474.392 87.7064 475.064C88.5064 475.736 88.9064 476.744 88.9064 478.088L88.9544 486.872ZM120.826 491.096C119.93 491.096 119.21 490.664 118.666 489.8V487.4C119.114 487.496 119.642 487.544 120.25 487.544C120.89 487.544 121.418 487.56 121.834 487.592C122.282 487.656 122.634 487.752 122.89 487.88C123.018 487.976 123.13 488.072 123.226 488.168C123.13 488.584 123.002 488.984 122.842 489.368C122.362 490.52 121.69 491.096 120.826 491.096ZM120.778 479.432C121.61 479.432 122.282 480.04 122.794 481.256C122.922 481.544 123.034 481.864 123.13 482.216C123.098 482.312 123.066 482.392 123.034 482.456C122.97 482.616 122.65 482.76 122.074 482.888C121.498 483.016 120.602 483.08 119.386 483.08C119.13 483.08 118.89 483.08 118.666 483.08V480.824C119.21 479.896 119.914 479.432 120.778 479.432ZM132.874 487.592C132.618 486.92 132.25 486.36 131.77 485.912C131.258 485.464 130.554 484.984 129.658 484.472C131.61 483.128 132.586 481.288 132.586 478.952C132.586 477.32 131.834 475.992 130.33 474.968C129.658 474.52 128.826 474.168 127.834 473.912C127.002 473.624 126.122 473.48 125.194 473.48C122.602 473.48 120.202 474.392 117.994 476.216C117.13 474.616 115.738 473.816 113.818 473.816C112.09 473.816 110.746 474.2 109.786 474.968C108.826 475.704 108.346 477.08 108.346 479.096V491.576C108.346 493.496 108.746 494.84 109.546 495.608C110.346 496.344 111.754 496.712 113.77 496.712C115.882 496.712 117.274 496.12 117.946 494.936C119.994 496.312 122.41 497 125.194 497C126.154 497 127.05 496.856 127.882 496.568C129.066 496.248 130.074 495.736 130.906 495.032C132.474 493.784 133.258 492.152 133.258 490.136C133.258 489.112 133.13 488.264 132.874 487.592ZM137.455 467.432C137.455 466.376 137.903 465.512 138.799 464.84C139.727 464.136 141.023 463.784 142.687 463.784C146.175 463.784 147.919 465 147.919 467.432C147.919 468.776 147.471 469.72 146.575 470.264C145.711 470.808 144.415 471.08 142.687 471.08C141.183 471.08 139.935 470.792 138.943 470.216C137.951 469.64 137.455 468.712 137.455 467.432ZM147.871 491.864C147.871 493.784 147.471 495.128 146.671 495.896C145.871 496.632 144.463 497 142.447 497C140.559 497 139.263 496.568 138.559 495.704C137.887 494.808 137.551 493.352 137.551 491.336V479.528C137.551 477.896 137.983 476.584 138.847 475.592C139.743 474.6 140.927 474.104 142.399 474.104C144.127 474.104 145.471 474.488 146.431 475.256C147.391 475.992 147.871 477.368 147.871 479.384V491.864ZM180.688 484.328C180.688 482.536 179.968 481.64 178.528 481.64C177.888 481.64 177.408 482.008 177.088 482.744C176.768 483.48 176.608 484.408 176.608 485.528C176.608 487.224 176.576 488.632 176.512 489.752C176.48 490.872 176.384 491.88 176.224 492.776C176.064 493.672 175.872 494.376 175.648 494.888C175.424 495.4 175.12 495.832 174.736 496.184C174.352 496.504 173.92 496.728 173.44 496.856C172.96 496.952 172.352 497 171.616 497C170.496 497 169.584 496.84 168.88 496.52C168.208 496.2 167.728 495.752 167.44 495.176C167.152 494.6 167.008 493.88 167.008 493.016V484.328C167.008 482.536 166.288 481.64 164.848 481.64C164.272 481.64 163.792 481.976 163.408 482.648C163.056 483.288 162.88 484.136 162.88 485.192V491.864C162.88 493.784 162.48 495.128 161.68 495.896C160.88 496.632 159.472 497 157.456 497C155.568 497 154.272 496.568 153.568 495.704C152.896 494.808 152.56 493.352 152.56 491.336V479.528C152.56 477.896 152.992 476.584 153.856 475.592C154.752 474.6 155.936 474.104 157.408 474.104C160.032 474.104 161.696 474.952 162.4 476.648C163.616 475.752 164.8 475.128 165.952 474.776C167.136 474.424 168.512 474.248 170.08 474.248C172.448 474.248 174.16 475.272 175.216 477.32C175.376 477.192 175.536 477.064 175.696 476.936C178.16 475.144 181.184 474.248 184.768 474.248C187.04 474.248 188.672 475.112 189.664 476.84C190.656 478.568 191.152 481.464 191.152 485.528C191.152 487.224 191.12 488.632 191.056 489.752C191.024 490.872 190.928 491.88 190.768 492.776C190.608 493.672 190.4 494.376 190.144 494.888C189.92 495.4 189.584 495.832 189.136 496.184C188.72 496.504 188.24 496.728 187.696 496.856C187.184 496.952 186.528 497 185.728 497C184.512 497 183.52 496.84 182.752 496.52C182.016 496.2 181.488 495.752 181.168 495.176C180.848 494.6 180.688 493.88 180.688 493.016V484.328ZM208.253 481.304C208.605 481.304 208.909 481.336 209.165 481.4C209.389 481.464 209.565 481.592 209.693 481.784C209.853 481.944 209.981 482.104 210.077 482.264C210.173 482.424 210.237 482.68 210.269 483.032C210.301 483.384 210.317 483.672 210.317 483.896V485.048L210.365 492.728C210.365 494.2 210.781 495.288 211.613 495.992C212.445 496.664 213.853 497 215.837 497C217.245 497 218.301 496.712 219.005 496.136C219.677 495.528 220.157 494.472 220.445 492.968C220.733 491.432 220.877 489.096 220.877 485.96C220.877 484.232 220.605 482.68 220.061 481.304C219.517 479.928 218.813 478.808 217.949 477.944C217.085 477.048 216.093 476.296 214.973 475.688C213.821 475.112 212.685 474.696 211.565 474.44C210.445 474.216 209.325 474.104 208.205 474.104C207.053 474.104 205.917 474.216 204.797 474.44C203.677 474.696 202.557 475.112 201.437 475.688C200.317 476.296 199.341 477.048 198.509 477.944C197.645 478.808 196.941 479.928 196.397 481.304C195.853 482.68 195.581 484.232 195.581 485.96C195.581 487.848 195.629 489.4 195.725 490.616C195.821 491.864 195.965 492.92 196.157 493.784C196.349 494.68 196.653 495.336 197.069 495.752C197.485 496.2 197.965 496.52 198.509 496.712C199.053 496.904 199.757 497 200.621 497C201.965 497 203.037 496.84 203.837 496.52C204.637 496.2 205.213 495.736 205.565 495.128C205.885 494.52 206.045 493.72 206.045 492.728L206.093 485C206.093 483.592 206.221 482.632 206.477 482.12C206.733 481.576 207.325 481.304 208.253 481.304ZM235.72 486.872C235.72 488.696 236.424 489.608 237.832 489.608C238.312 489.608 238.728 489.464 239.08 489.176C239.464 488.856 239.752 488.424 239.944 487.88C240.136 487.336 240.232 486.712 240.232 486.008V479.576C240.232 478.488 240.424 477.544 240.808 476.744C241.192 475.912 241.752 475.272 242.488 474.824C243.224 474.376 244.088 474.152 245.08 474.152C246.808 474.152 248.152 474.536 249.112 475.304C250.072 476.04 250.552 477.416 250.552 479.432V491.912C250.552 493.864 250.152 495.208 249.352 495.944C248.552 496.68 247.144 497.048 245.128 497.048C244.264 497.048 243.528 496.968 242.92 496.808C242.312 496.616 241.816 496.344 241.432 495.992C241.08 495.64 240.808 495.176 240.616 494.6C239.304 495.464 237.912 496.072 236.44 496.424C235 496.776 233.384 496.952 231.592 496.952C229.32 496.952 227.688 496.072 226.696 494.312C225.704 492.52 225.208 489.592 225.208 485.528C225.208 483.512 225.256 481.88 225.352 480.632C225.448 479.352 225.592 478.264 225.784 477.368C226.008 476.44 226.328 475.752 226.744 475.304C227.192 474.856 227.704 474.536 228.28 474.344C228.888 474.152 229.672 474.056 230.632 474.056C232.424 474.056 233.704 474.392 234.472 475.064C235.272 475.736 235.672 476.744 235.672 478.088L235.72 486.872ZM267.592 491.096C266.696 491.096 265.976 490.664 265.432 489.8V487.4C265.88 487.496 266.408 487.544 267.016 487.544C267.656 487.544 268.184 487.56 268.6 487.592C269.048 487.656 269.4 487.752 269.656 487.88C269.784 487.976 269.896 488.072 269.992 488.168C269.896 488.584 269.768 488.984 269.608 489.368C269.128 490.52 268.456 491.096 267.592 491.096ZM267.544 479.432C268.376 479.432 269.048 480.04 269.56 481.256C269.688 481.544 269.8 481.864 269.896 482.216C269.864 482.312 269.832 482.392 269.8 482.456C269.736 482.616 269.416 482.76 268.84 482.888C268.264 483.016 267.368 483.08 266.152 483.08C265.896 483.08 265.656 483.08 265.432 483.08V480.824C265.976 479.896 266.68 479.432 267.544 479.432ZM279.64 487.592C279.384 486.92 279.016 486.36 278.536 485.912C278.024 485.464 277.32 484.984 276.424 484.472C278.376 483.128 279.352 481.288 279.352 478.952C279.352 477.32 278.6 475.992 277.096 474.968C276.424 474.52 275.592 474.168 274.6 473.912C273.768 473.624 272.888 473.48 271.96 473.48C269.368 473.48 266.968 474.392 264.76 476.216C263.896 474.616 262.504 473.816 260.584 473.816C258.856 473.816 257.512 474.2 256.552 474.968C255.592 475.704 255.112 477.08 255.112 479.096V491.576C255.112 493.496 255.512 494.84 256.312 495.608C257.112 496.344 258.52 496.712 260.536 496.712C262.648 496.712 264.04 496.12 264.712 494.936C266.76 496.312 269.176 497 271.96 497C272.92 497 273.816 496.856 274.648 496.568C275.832 496.248 276.84 495.736 277.672 495.032C279.24 493.784 280.024 492.152 280.024 490.136C280.024 489.112 279.896 488.264 279.64 487.592ZM294.876 486.872C294.876 488.696 295.58 489.608 296.988 489.608C297.468 489.608 297.884 489.464 298.236 489.176C298.62 488.856 298.908 488.424 299.1 487.88C299.292 487.336 299.388 486.712 299.388 486.008V479.576C299.388 478.488 299.58 477.544 299.964 476.744C300.348 475.912 300.908 475.272 301.644 474.824C302.38 474.376 303.244 474.152 304.236 474.152C305.964 474.152 307.308 474.536 308.268 475.304C309.228 476.04 309.708 477.416 309.708 479.432V491.912C309.708 493.864 309.308 495.208 308.508 495.944C307.708 496.68 306.3 497.048 304.284 497.048C303.42 497.048 302.684 496.968 302.076 496.808C301.468 496.616 300.972 496.344 300.588 495.992C300.236 495.64 299.964 495.176 299.772 494.6C298.46 495.464 297.068 496.072 295.596 496.424C294.156 496.776 292.54 496.952 290.748 496.952C288.476 496.952 286.844 496.072 285.852 494.312C284.86 492.52 284.364 489.592 284.364 485.528C284.364 483.512 284.412 481.88 284.508 480.632C284.604 479.352 284.748 478.264 284.94 477.368C285.164 476.44 285.484 475.752 285.9 475.304C286.348 474.856 286.86 474.536 287.436 474.344C288.044 474.152 288.828 474.056 289.788 474.056C291.58 474.056 292.86 474.392 293.628 475.064C294.428 475.736 294.828 476.744 294.828 478.088L294.876 486.872ZM324.876 486.872C324.876 488.696 325.58 489.608 326.988 489.608C327.692 489.608 328.268 489.272 328.716 488.6C329.164 487.928 329.388 487.064 329.388 486.008V479.576C329.388 478.776 329.5 478.04 329.724 477.368C329.948 476.696 330.268 476.12 330.684 475.64C331.1 475.16 331.612 474.792 332.22 474.536C332.828 474.28 333.5 474.152 334.236 474.152C335.964 474.152 337.308 474.536 338.268 475.304C339.228 476.04 339.708 477.416 339.708 479.432V491.912C339.708 493.864 339.308 495.208 338.508 495.944C337.708 496.68 336.3 497.048 334.284 497.048C331.852 497.048 330.348 496.232 329.772 494.6C327.34 496.168 324.332 496.952 320.748 496.952C318.476 496.952 316.844 496.072 315.852 494.312C314.86 492.52 314.364 489.592 314.364 485.528C314.364 483.512 314.412 481.88 314.508 480.632C314.604 479.352 314.748 478.264 314.94 477.368C315.164 476.44 315.484 475.752 315.9 475.304C316.348 474.856 316.86 474.536 317.436 474.344C318.044 474.152 318.828 474.056 319.788 474.056C321.58 474.056 322.86 474.392 323.628 475.064C324.428 475.736 324.828 476.744 324.828 478.088L324.876 486.872ZM327.132 466.136C328.188 466.136 328.716 465.384 328.716 463.88C328.716 462.344 329.868 461.576 332.172 461.576C334.764 461.576 336.06 462.632 336.06 464.744C336.06 469.416 333.084 471.752 327.132 471.752C324.316 471.752 322.124 471.224 320.556 470.168C318.988 469.112 318.204 467.304 318.204 464.744C318.204 462.632 319.5 461.576 322.092 461.576C324.396 461.576 325.548 462.344 325.548 463.88C325.548 464.648 325.66 465.224 325.884 465.608C326.108 465.96 326.524 466.136 327.132 466.136ZM78.4362 536.088C78.4362 534.296 77.7322 533.4 76.3242 533.4C75.6522 533.4 75.0922 533.688 74.6442 534.264C74.2282 534.808 73.9882 535.544 73.9242 536.472V543.864C73.9242 545.816 73.5242 547.16 72.7242 547.896C71.9242 548.632 70.5162 549 68.5002 549C66.6122 549 65.3162 548.568 64.6122 547.704C63.9402 546.808 63.6042 545.352 63.6042 543.336V531.528C63.6042 529.896 64.0362 528.584 64.9002 527.592C65.7962 526.6 66.9802 526.104 68.4522 526.104C69.6682 526.104 70.6922 526.28 71.5242 526.632C72.3562 526.984 72.9802 527.592 73.3962 528.456C75.8922 526.824 78.9322 526.008 82.5162 526.008C84.7882 526.008 86.4202 526.904 87.4122 528.696C88.4362 530.488 88.9482 533.432 88.9482 537.528C88.9482 539.544 88.9002 541.192 88.8042 542.472C88.7082 543.72 88.5482 544.808 88.3242 545.736C88.1322 546.632 87.8122 547.304 87.3642 547.752C86.9162 548.2 86.3882 548.52 85.7802 548.712C85.2042 548.904 84.4522 549 83.5242 549C81.7322 549 80.4362 548.664 79.6362 547.992C78.8682 547.32 78.4842 546.328 78.4842 545.016L78.4362 536.088ZM106.478 549.288C102.574 549.288 99.3423 548.28 96.7823 546.264C94.2543 544.248 92.9903 541.496 92.9903 538.008C92.9903 534.232 94.2383 531.256 96.7343 529.08C99.2623 526.872 102.51 525.768 106.478 525.768C110.222 525.768 112.958 526.44 114.686 527.784C116.446 529.096 117.326 530.904 117.326 533.208C117.326 533.656 117.262 534.088 117.134 534.504C117.038 534.92 116.862 535.336 116.606 535.752C116.382 536.136 116.062 536.504 115.646 536.856C115.262 537.176 114.814 537.48 114.302 537.768C113.79 538.024 113.182 538.232 112.478 538.392C111.774 538.52 111.022 538.584 110.222 538.584L103.454 538.632C103.774 539.656 104.35 540.472 105.182 541.08C106.014 541.656 107.07 541.944 108.35 541.944C109.726 541.944 111.134 541.768 112.574 541.416C113.182 541.256 113.838 541 114.542 540.648C115.278 540.296 115.806 540.12 116.126 540.12C116.67 540.12 117.086 540.28 117.374 540.6C117.694 540.92 117.854 541.32 117.854 541.8C117.854 542.376 117.598 543.08 117.086 543.912C116.574 544.712 115.854 545.528 114.926 546.36C114.03 547.16 112.83 547.848 111.326 548.424C109.822 549 108.206 549.288 106.478 549.288ZM103.214 535.56C105.422 535.528 106.622 535.512 106.814 535.512C107.294 535.512 107.646 535.224 107.87 534.648C108.03 534.232 108.11 533.656 108.11 532.92C108.11 530.904 107.502 529.896 106.286 529.896C105.838 529.896 105.39 530.136 104.942 530.616C104.526 531.096 104.158 531.784 103.838 532.68C103.518 533.544 103.31 534.504 103.214 535.56ZM132.433 551.784C132.433 554.376 132.001 556.216 131.137 557.304C130.273 558.424 128.945 558.984 127.153 558.984C125.361 558.984 124.049 558.472 123.217 557.448C122.385 556.456 121.969 554.68 121.969 552.12L121.873 531.864C121.873 529.88 122.353 528.424 123.313 527.496C124.273 526.568 125.553 526.104 127.153 526.104C128.401 526.104 129.409 526.264 130.177 526.584C130.945 526.872 131.521 527.464 131.905 528.36C134.113 526.632 136.481 525.768 139.009 525.768C141.569 525.768 143.665 526.84 145.297 528.984C146.929 531.128 147.745 534.04 147.745 537.72C147.745 541.304 146.913 544.136 145.249 546.216C143.585 548.264 141.489 549.288 138.961 549.288C136.529 549.288 134.353 548.744 132.433 547.656V551.784ZM132.433 542.04C132.977 542.936 133.697 543.384 134.593 543.384C135.457 543.384 136.129 542.808 136.609 541.656C137.089 540.504 137.329 539.192 137.329 537.72C137.329 536.152 137.073 534.76 136.561 533.544C136.049 532.328 135.377 531.72 134.545 531.72C133.681 531.72 132.977 532.184 132.433 533.112V542.04ZM165.846 531.048C165.846 530.312 165.43 529.944 164.598 529.944C163.99 529.944 163.446 530.28 162.966 530.952C162.486 531.624 162.118 532.472 161.862 533.496C161.606 534.488 161.478 535.528 161.478 536.616C161.478 538.216 161.958 539.512 162.918 540.504C163.91 541.496 165.238 541.992 166.902 541.992C168.534 541.992 169.942 541.8 171.126 541.416C171.606 541.288 172.182 541.048 172.854 540.696C173.558 540.344 174.054 540.168 174.342 540.168C174.79 540.168 175.158 540.248 175.446 540.408C175.734 540.568 175.926 540.76 176.022 540.984C176.15 541.208 176.214 541.448 176.214 541.704C176.214 542.152 176.054 542.696 175.734 543.336C175.446 543.976 174.982 544.648 174.342 545.352C173.702 546.056 172.95 546.712 172.086 547.32C171.254 547.896 170.214 548.376 168.966 548.76C167.718 549.144 166.406 549.336 165.03 549.336C161.062 549.336 157.798 548.28 155.238 546.168C152.678 544.024 151.398 541.096 151.398 537.384C151.398 535.016 151.974 532.952 153.126 531.192C154.31 529.4 155.926 528.056 157.974 527.16C160.022 526.232 162.374 525.768 165.03 525.768C167.558 525.768 169.638 526.072 171.27 526.68C172.934 527.256 174.118 528.04 174.822 529.032C175.526 530.024 175.878 531.208 175.878 532.584C175.878 533.192 175.75 533.816 175.494 534.456C175.27 535.096 174.902 535.736 174.39 536.376C173.91 537.016 173.19 537.544 172.23 537.96C171.27 538.344 170.15 538.536 168.87 538.536C168.294 538.536 167.814 538.504 167.43 538.44C167.078 538.376 166.694 538.248 166.278 538.056C165.894 537.832 165.606 537.48 165.414 537C165.222 536.52 165.126 535.912 165.126 535.176C165.126 534.536 165.238 533.768 165.462 532.872C165.718 531.944 165.846 531.336 165.846 531.048ZM195.876 537.624C195.876 535.96 195.668 534.504 195.252 533.256C194.836 531.976 194.228 531.336 193.428 531.336C192.884 531.336 192.404 531.656 191.988 532.296C191.572 532.936 191.268 533.72 191.076 534.648C190.884 535.576 190.788 536.568 190.788 537.624C190.788 539.256 191.012 540.696 191.46 541.944C191.908 543.16 192.548 543.768 193.38 543.768C194.212 543.768 194.836 543.16 195.252 541.944C195.668 540.728 195.876 539.288 195.876 537.624ZM193.38 549.336C190.884 549.336 188.628 548.888 186.612 547.992C184.628 547.096 183.028 545.752 181.812 543.96C180.628 542.168 180.036 540.072 180.036 537.672C180.036 534.024 181.284 531.128 183.78 528.984C186.276 526.84 189.476 525.768 193.38 525.768C197.284 525.768 200.468 526.84 202.932 528.984C205.396 531.128 206.628 534.024 206.628 537.672C206.628 541.288 205.364 544.136 202.836 546.216C200.34 548.296 197.188 549.336 193.38 549.336ZM234.461 527.256C233.501 526.488 232.157 526.104 230.429 526.104C228.957 526.104 227.773 526.6 226.877 527.592C226.013 528.584 225.581 529.896 225.581 531.528V534.648H220.877V531.384C220.877 529.368 220.397 527.992 219.437 527.256C218.477 526.488 217.133 526.104 215.405 526.104C213.933 526.104 212.749 526.6 211.853 527.592C210.989 528.584 210.557 529.896 210.557 531.528V543.336C210.557 545.352 210.893 546.808 211.565 547.704C212.269 548.568 213.565 549 215.453 549C217.469 549 218.877 548.632 219.677 547.896C220.477 547.128 220.877 545.784 220.877 543.864V540.456H225.581V543.336C225.581 545.352 225.917 546.808 226.589 547.704C227.293 548.568 228.589 549 230.477 549C232.493 549 233.901 548.632 234.701 547.896C235.501 547.128 235.901 545.784 235.901 543.864V531.384C235.901 529.368 235.421 527.992 234.461 527.256ZM248.823 549.288C246.295 549.288 244.199 548.264 242.535 546.216C240.871 544.136 240.039 541.304 240.039 537.72C240.039 534.072 240.855 531.176 242.487 529.032C244.151 526.856 246.263 525.768 248.823 525.768C251.415 525.768 253.815 526.68 256.023 528.504C256.887 526.904 258.279 526.104 260.199 526.104C261.927 526.104 263.271 526.488 264.231 527.256C265.191 527.992 265.671 529.368 265.671 531.384V543.864C265.671 545.784 265.271 547.128 264.471 547.896C263.671 548.632 262.263 549 260.247 549C258.135 549 256.743 548.408 256.071 547.224C254.023 548.6 251.607 549.288 248.823 549.288ZM255.351 533.112C254.807 532.184 254.103 531.72 253.239 531.72C252.407 531.72 251.735 532.328 251.223 533.544C250.711 534.76 250.455 536.152 250.455 537.72C250.455 539.192 250.695 540.504 251.175 541.656C251.655 542.808 252.327 543.384 253.191 543.384C254.087 543.384 254.807 542.952 255.351 542.088V533.112ZM282.761 533.304C283.113 533.304 283.417 533.336 283.673 533.4C283.897 533.464 284.073 533.592 284.201 533.784C284.361 533.944 284.489 534.104 284.585 534.264C284.681 534.424 284.745 534.68 284.777 535.032C284.809 535.384 284.825 535.672 284.825 535.896V537.048L284.873 544.728C284.873 546.2 285.289 547.288 286.121 547.992C286.953 548.664 288.361 549 290.345 549C291.753 549 292.809 548.712 293.513 548.136C294.185 547.528 294.665 546.472 294.953 544.968C295.241 543.432 295.385 541.096 295.385 537.96C295.385 536.232 295.113 534.68 294.569 533.304C294.025 531.928 293.321 530.808 292.457 529.944C291.593 529.048 290.601 528.296 289.481 527.688C288.329 527.112 287.193 526.696 286.073 526.44C284.953 526.216 283.833 526.104 282.713 526.104C281.561 526.104 280.425 526.216 279.305 526.44C278.185 526.696 277.065 527.112 275.945 527.688C274.825 528.296 273.849 529.048 273.017 529.944C272.153 530.808 271.449 531.928 270.905 533.304C270.361 534.68 270.089 536.232 270.089 537.96C270.089 539.848 270.137 541.4 270.233 542.616C270.329 543.864 270.473 544.92 270.665 545.784C270.857 546.68 271.161 547.336 271.577 547.752C271.993 548.2 272.473 548.52 273.017 548.712C273.561 548.904 274.265 549 275.129 549C276.473 549 277.545 548.84 278.345 548.52C279.145 548.2 279.721 547.736 280.073 547.128C280.393 546.52 280.553 545.72 280.553 544.728L280.601 537C280.601 535.592 280.729 534.632 280.985 534.12C281.241 533.576 281.833 533.304 282.761 533.304Z" fill="#E3CE0B"/>
<circle cx="176.378" cy="157" r="157" fill="#E3CE0B"/>
<g clip-path="url(#clip0)">
<path d="M215.345 211.644L181.113 194.53C177.884 192.914 175.878 189.667 175.878 186.055V176.438C175.878 174.823 176.447 173.265 177.412 171.969C177.754 171.51 178.102 171.03 178.454 170.532C182.334 165.052 185.541 159.029 188.015 152.573C188.701 150.783 190.079 149.37 191.619 148.23C195.183 145.59 197.378 141.407 197.378 136.792V122.458C197.378 119.886 196.661 117.374 195.346 115.179C194.473 113.721 193.794 112.115 193.794 110.415V93.9923C193.995 92.0215 194.783 80.2896 186.298 70.6111C178.938 62.2153 166.995 57.9583 150.794 57.9583C134.594 57.9583 122.651 62.2153 115.291 70.6075C106.805 80.2861 107.594 92.0215 107.794 93.9887V110.412C107.794 112.111 107.116 113.718 106.243 115.176C104.928 117.37 104.211 119.883 104.211 122.455V136.788C104.211 140.354 105.536 143.724 107.869 146.317C108.889 147.451 109.766 148.733 110.192 150.196C113.087 160.118 117.91 167.93 120.732 171.951C121.614 173.208 122.128 174.693 122.128 176.229V185.718C122.128 189.187 120.236 192.369 117.194 194.032L85.2267 211.468C74.8314 217.144 68.3778 228.016 68.3778 239.855V248.042C68.3778 251.908 71.5118 255.042 75.3778 255.042H226.211C230.077 255.042 233.211 251.908 233.211 248.042V240.554C233.211 228.231 226.363 217.155 215.345 211.644Z" fill="#2B1F19"/>
<path d="M267.135 215.718L232.294 200.632V200.632C230.792 199.882 231.879 197.868 233.558 197.867L252.807 197.852C253.037 197.852 253.266 197.863 253.496 197.88C254.023 197.919 255.128 197.984 256.6 197.984C260.445 197.984 266.052 197.547 270.933 195.451C273.861 194.19 276.039 191.699 276.913 188.617C277.795 185.507 277.236 182.214 275.387 179.577C268.704 170.067 253.106 145.216 252.619 120.011C252.608 119.577 251.196 76.7136 208.866 76.366C207.418 76.3782 205.997 76.4469 204.601 76.5685C200.407 76.9343 198.144 81.3434 198.796 85.5031C199.441 89.6147 199.289 92.8528 199.166 94.2432V108.989C199.166 110.43 199.643 111.818 200.336 113.081C201.908 115.95 202.749 119.17 202.749 122.458V136.792C202.749 142.807 199.961 148.428 195.375 152.108C194.157 153.085 193.122 154.297 192.541 155.747C189.979 162.146 186.727 168.15 182.84 173.639C182.779 173.726 182.718 173.813 182.656 173.899C181.767 175.15 181.253 176.635 181.253 178.169V186.052C181.253 187.636 182.098 189.008 183.514 189.714L217.745 206.828C230.599 213.256 238.583 226.174 238.583 240.547V248.042C238.583 251.908 241.717 255.042 245.583 255.042H276.378C280.244 255.042 283.378 251.908 283.378 248.042V241.794C283.378 230.714 277.222 220.76 267.135 215.718Z" fill="#2B1F19"/>
<path d="M129.095 151.523C136.16 159.034 154.61 169.55 171.896 151.523" stroke="#E3CE0B" stroke-width="3"/>
<path d="M180.855 171.431C186.933 178.191 202.809 187.655 217.683 171.431" stroke="#E3CE0B" stroke-width="3"/>
</g>
<defs>
<clipPath id="clip0">
<rect width="215" height="215" fill="white" transform="translate(68.3778 49)"/>
</clipPath>
</defs>
</svg>
