<svg width="277" height="84" viewBox="0 0 277 84" fill="none" xmlns="http://www.w3.org/2000/svg">
<rect width="277" height="84" rx="42" fill="#2B1F19"/>
<path d="M54.944 44.572C54.272 44.572 53.732 44.248 53.324 43.6V41.8C53.66 41.872 54.056 41.908 54.512 41.908C54.992 41.908 55.388 41.92 55.7 41.944C56.036 41.992 56.3 42.064 56.492 42.16C56.588 42.232 56.672 42.304 56.744 42.376C56.672 42.688 56.576 42.988 56.456 43.276C56.096 44.14 55.592 44.572 54.944 44.572ZM54.908 35.824C55.532 35.824 56.036 36.28 56.42 37.192C56.516 37.408 56.6 37.648 56.672 37.912C56.648 37.984 56.624 38.044 56.6 38.092C56.552 38.212 56.312 38.32 55.88 38.416C55.448 38.512 54.776 38.56 53.864 38.56C53.672 38.56 53.492 38.56 53.324 38.56V36.868C53.732 36.172 54.26 35.824 54.908 35.824ZM63.98 41.944C63.788 41.44 63.512 41.02 63.152 40.684C62.768 40.348 62.24 39.988 61.568 39.604C63.032 38.596 63.764 37.216 63.764 35.464C63.764 34.24 63.2 33.244 62.072 32.476C61.568 32.14 60.944 31.876 60.2 31.684C59.576 31.468 58.916 31.36 58.22 31.36C56.276 31.36 54.476 32.044 52.82 33.412C52.172 32.212 51.128 31.612 49.688 31.612C48.392 31.612 47.384 31.9 46.664 32.476C45.944 33.028 45.584 34.06 45.584 35.572V44.932C45.584 46.372 45.884 47.38 46.484 47.956C47.084 48.508 48.14 48.784 49.652 48.784C51.236 48.784 52.28 48.34 52.784 47.452C54.32 48.484 56.132 49 58.22 49C58.94 49 59.612 48.892 60.236 48.676C61.124 48.436 61.88 48.052 62.504 47.524C63.68 46.588 64.268 45.364 64.268 43.852C64.268 43.084 64.172 42.448 63.98 41.944ZM67.4152 26.824C67.4152 26.032 67.7512 25.384 68.4232 24.88C69.1192 24.352 70.0912 24.088 71.3392 24.088C73.9552 24.088 75.2632 25 75.2632 26.824C75.2632 27.832 74.9272 28.54 74.2552 28.948C73.6072 29.356 72.6352 29.56 71.3392 29.56C70.2112 29.56 69.2752 29.344 68.5312 28.912C67.7872 28.48 67.4152 27.784 67.4152 26.824ZM75.2272 45.148C75.2272 46.588 74.9272 47.596 74.3272 48.172C73.7272 48.724 72.6712 49 71.1592 49C69.7432 49 68.7712 48.676 68.2432 48.028C67.7392 47.356 67.4872 46.264 67.4872 44.752V35.896C67.4872 34.672 67.8112 33.688 68.4592 32.944C69.1312 32.2 70.0192 31.828 71.1232 31.828C72.4192 31.828 73.4272 32.116 74.1472 32.692C74.8672 33.244 75.2272 34.276 75.2272 35.788V45.148ZM85.0439 49.216C83.1479 49.216 81.5759 48.448 80.3279 46.912C79.0799 45.352 78.4559 43.216 78.4559 40.504C78.4559 37.768 79.0679 35.596 80.2919 33.988C81.5159 32.38 83.0879 31.576 85.0079 31.576C86.9519 31.576 88.7519 32.248 90.4079 33.592C91.0319 32.416 92.0639 31.828 93.5039 31.828C94.7999 31.828 95.8079 32.116 96.5279 32.692C97.2719 33.268 97.6439 34.3 97.6439 35.788V42.376C97.6439 44.704 97.4879 46.708 97.1759 48.388C96.8879 50.044 96.3719 51.508 95.6279 52.78C94.9079 54.052 93.8999 55 92.6039 55.624C91.3319 56.248 89.7599 56.56 87.8879 56.56C86.5919 56.56 85.3919 56.38 84.2879 56.02C83.1839 55.66 82.3079 55.216 81.6599 54.688C81.0119 54.16 80.5079 53.632 80.1479 53.104C79.7879 52.576 79.6079 52.12 79.6079 51.736C79.6079 51.28 79.7399 50.896 80.0039 50.584C80.2679 50.272 80.6399 50.116 81.1199 50.116C81.4079 50.116 82.1279 50.428 83.2799 51.052C84.4559 51.676 85.4039 51.988 86.1239 51.988C88.5719 51.988 89.7959 50.728 89.7959 48.208C88.4039 48.88 86.8199 49.216 85.0439 49.216ZM89.9399 43.816L89.9039 37.012C89.4959 36.34 88.9799 36.004 88.3559 36.004C87.9239 36.004 87.5399 36.232 87.2039 36.688C86.8919 37.144 86.6519 37.708 86.4839 38.38C86.3399 39.052 86.2679 39.76 86.2679 40.504C86.2679 41.632 86.4479 42.628 86.8079 43.492C87.1679 44.332 87.6719 44.752 88.3199 44.752C88.9679 44.752 89.5079 44.44 89.9399 43.816ZM110.245 44.572C109.573 44.572 109.033 44.248 108.625 43.6V41.8C108.961 41.872 109.357 41.908 109.813 41.908C110.293 41.908 110.689 41.92 111.001 41.944C111.337 41.992 111.601 42.064 111.793 42.16C111.889 42.232 111.973 42.304 112.045 42.376C111.973 42.688 111.877 42.988 111.757 43.276C111.397 44.14 110.893 44.572 110.245 44.572ZM110.209 35.824C110.833 35.824 111.337 36.28 111.721 37.192C111.817 37.408 111.901 37.648 111.973 37.912C111.949 37.984 111.925 38.044 111.901 38.092C111.853 38.212 111.613 38.32 111.181 38.416C110.749 38.512 110.077 38.56 109.165 38.56C108.973 38.56 108.793 38.56 108.625 38.56V36.868C109.033 36.172 109.561 35.824 110.209 35.824ZM119.281 41.944C119.089 41.44 118.813 41.02 118.453 40.684C118.069 40.348 117.541 39.988 116.869 39.604C118.333 38.596 119.065 37.216 119.065 35.464C119.065 34.24 118.501 33.244 117.373 32.476C116.869 32.14 116.245 31.876 115.501 31.684C114.877 31.468 114.217 31.36 113.521 31.36C111.577 31.36 109.777 32.044 108.121 33.412C107.473 32.212 106.429 31.612 104.989 31.612C103.693 31.612 102.685 31.9 101.965 32.476C101.245 33.028 100.885 34.06 100.885 35.572V44.932C100.885 46.372 101.185 47.38 101.785 47.956C102.385 48.508 103.441 48.784 104.953 48.784C106.537 48.784 107.581 48.34 108.085 47.452C109.621 48.484 111.433 49 113.521 49C114.241 49 114.913 48.892 115.537 48.676C116.425 48.436 117.181 48.052 117.805 47.524C118.981 46.588 119.569 45.364 119.569 43.852C119.569 43.084 119.473 42.448 119.281 41.944ZM122.716 26.824C122.716 26.032 123.052 25.384 123.724 24.88C124.42 24.352 125.392 24.088 126.64 24.088C129.256 24.088 130.564 25 130.564 26.824C130.564 27.832 130.228 28.54 129.556 28.948C128.908 29.356 127.936 29.56 126.64 29.56C125.512 29.56 124.576 29.344 123.832 28.912C123.088 28.48 122.716 27.784 122.716 26.824ZM130.528 45.148C130.528 46.588 130.228 47.596 129.628 48.172C129.028 48.724 127.972 49 126.46 49C125.044 49 124.072 48.676 123.544 48.028C123.04 47.356 122.788 46.264 122.788 44.752V35.896C122.788 34.672 123.112 33.688 123.76 32.944C124.432 32.2 125.32 31.828 126.424 31.828C127.72 31.828 128.728 32.116 129.448 32.692C130.168 33.244 130.528 34.276 130.528 35.788V45.148ZM140.345 49.216C138.449 49.216 136.877 48.448 135.629 46.912C134.381 45.352 133.757 43.216 133.757 40.504C133.757 37.768 134.369 35.596 135.593 33.988C136.817 32.38 138.389 31.576 140.309 31.576C142.253 31.576 144.053 32.248 145.709 33.592C146.333 32.416 147.365 31.828 148.805 31.828C150.101 31.828 151.109 32.116 151.829 32.692C152.573 33.268 152.945 34.3 152.945 35.788V42.376C152.945 44.704 152.789 46.708 152.477 48.388C152.189 50.044 151.673 51.508 150.929 52.78C150.209 54.052 149.201 55 147.905 55.624C146.633 56.248 145.061 56.56 143.189 56.56C141.893 56.56 140.693 56.38 139.589 56.02C138.485 55.66 137.609 55.216 136.961 54.688C136.313 54.16 135.809 53.632 135.449 53.104C135.089 52.576 134.909 52.12 134.909 51.736C134.909 51.28 135.041 50.896 135.305 50.584C135.569 50.272 135.941 50.116 136.421 50.116C136.709 50.116 137.429 50.428 138.581 51.052C139.757 51.676 140.705 51.988 141.425 51.988C143.873 51.988 145.097 50.728 145.097 48.208C143.705 48.88 142.121 49.216 140.345 49.216ZM145.241 43.816L145.205 37.012C144.797 36.34 144.281 36.004 143.657 36.004C143.225 36.004 142.841 36.232 142.505 36.688C142.193 37.144 141.953 37.708 141.785 38.38C141.641 39.052 141.569 39.76 141.569 40.504C141.569 41.632 141.749 42.628 142.109 43.492C142.469 44.332 142.973 44.752 143.621 44.752C144.269 44.752 144.809 44.44 145.241 43.816ZM162.702 49.216C160.806 49.216 159.234 48.448 157.986 46.912C156.738 45.352 156.114 43.228 156.114 40.54C156.114 37.804 156.726 35.632 157.95 34.024C159.198 32.392 160.782 31.576 162.702 31.576C164.646 31.576 166.446 32.26 168.102 33.628C168.75 32.428 169.794 31.828 171.234 31.828C172.53 31.828 173.538 32.116 174.258 32.692C174.978 33.244 175.338 34.276 175.338 35.788V45.148C175.338 46.588 175.038 47.596 174.438 48.172C173.838 48.724 172.782 49 171.27 49C169.686 49 168.642 48.556 168.138 47.668C166.602 48.7 164.79 49.216 162.702 49.216ZM167.598 37.084C167.19 36.388 166.662 36.04 166.014 36.04C165.39 36.04 164.886 36.496 164.502 37.408C164.118 38.32 163.926 39.364 163.926 40.54C163.926 41.644 164.106 42.628 164.466 43.492C164.826 44.356 165.33 44.788 165.978 44.788C166.65 44.788 167.19 44.464 167.598 43.816V37.084ZM200.07 39.496C200.07 38.152 199.53 37.48 198.45 37.48C197.97 37.48 197.61 37.756 197.37 38.308C197.13 38.86 197.01 39.556 197.01 40.396C197.01 41.668 196.986 42.724 196.938 43.564C196.914 44.404 196.842 45.16 196.722 45.832C196.602 46.504 196.458 47.032 196.29 47.416C196.122 47.8 195.894 48.124 195.606 48.388C195.318 48.628 194.994 48.796 194.634 48.892C194.274 48.964 193.818 49 193.266 49C192.426 49 191.742 48.88 191.214 48.64C190.71 48.4 190.35 48.064 190.134 47.632C189.918 47.2 189.81 46.66 189.81 46.012V39.496C189.81 38.152 189.27 37.48 188.19 37.48C187.758 37.48 187.398 37.732 187.11 38.236C186.846 38.716 186.714 39.352 186.714 40.144V45.148C186.714 46.588 186.414 47.596 185.814 48.172C185.214 48.724 184.158 49 182.646 49C181.23 49 180.258 48.676 179.73 48.028C179.226 47.356 178.974 46.264 178.974 44.752V35.896C178.974 34.672 179.298 33.688 179.946 32.944C180.618 32.2 181.506 31.828 182.61 31.828C184.578 31.828 185.826 32.464 186.354 33.736C187.266 33.064 188.154 32.596 189.018 32.332C189.906 32.068 190.938 31.936 192.114 31.936C193.89 31.936 195.174 32.704 195.966 34.24C196.086 34.144 196.206 34.048 196.326 33.952C198.174 32.608 200.442 31.936 203.13 31.936C204.834 31.936 206.058 32.584 206.802 33.88C207.546 35.176 207.918 37.348 207.918 40.396C207.918 41.668 207.894 42.724 207.846 43.564C207.822 44.404 207.75 45.16 207.63 45.832C207.51 46.504 207.354 47.032 207.162 47.416C206.994 47.8 206.742 48.124 206.406 48.388C206.094 48.628 205.734 48.796 205.326 48.892C204.942 48.964 204.45 49 203.85 49C202.938 49 202.194 48.88 201.618 48.64C201.066 48.4 200.67 48.064 200.43 47.632C200.19 47.2 200.07 46.66 200.07 46.012V39.496ZM219.196 41.404C219.196 42.772 219.724 43.456 220.78 43.456C221.14 43.456 221.452 43.348 221.716 43.132C222.004 42.892 222.22 42.568 222.364 42.16C222.508 41.752 222.58 41.284 222.58 40.756V35.932C222.58 35.116 222.724 34.408 223.012 33.808C223.3 33.184 223.72 32.704 224.272 32.368C224.824 32.032 225.472 31.864 226.216 31.864C227.512 31.864 228.52 32.152 229.24 32.728C229.96 33.28 230.32 34.312 230.32 35.824V45.184C230.32 46.648 230.02 47.656 229.42 48.208C228.82 48.76 227.764 49.036 226.252 49.036C225.604 49.036 225.052 48.976 224.596 48.856C224.14 48.712 223.768 48.508 223.48 48.244C223.216 47.98 223.012 47.632 222.868 47.2C221.884 47.848 220.84 48.304 219.736 48.568C218.656 48.832 217.444 48.964 216.1 48.964C214.396 48.964 213.172 48.304 212.428 46.984C211.684 45.64 211.312 43.444 211.312 40.396C211.312 38.884 211.348 37.66 211.42 36.724C211.492 35.764 211.6 34.948 211.744 34.276C211.912 33.58 212.152 33.064 212.464 32.728C212.8 32.392 213.184 32.152 213.616 32.008C214.072 31.864 214.66 31.792 215.38 31.792C216.724 31.792 217.684 32.044 218.26 32.548C218.86 33.052 219.16 33.808 219.16 34.816L219.196 41.404Z" fill="#E3CE0B"/>
</svg>
