<svg width="643" height="584" viewBox="0 0 643 584" fill="none" xmlns="http://www.w3.org/2000/svg">
<path d="M240.95 10.944C239.574 10.944 238.55 11.344 237.878 12.144C237.238 12.944 236.918 14.368 236.918 16.416V22.08H244.886V16.32C244.886 14.976 244.726 13.904 244.406 13.104C244.086 12.272 243.638 11.712 243.062 11.424C242.518 11.104 241.814 10.944 240.95 10.944ZM244.886 28.704H236.918V31.248C236.918 32.88 236.486 34.08 235.622 34.848C234.758 35.616 233.27 36 231.158 36C230.262 36 229.526 35.872 228.95 35.616C228.374 35.36 227.862 34.928 227.414 34.32C226.998 33.712 226.678 32.832 226.454 31.68C226.262 30.496 226.102 29.088 225.974 27.456C225.878 25.792 225.83 23.696 225.83 21.168C225.83 18.96 226.054 16.944 226.502 15.12C226.982 13.264 227.606 11.696 228.374 10.416C229.174 9.136 230.07 8.016 231.062 7.056C232.054 6.064 233.126 5.296 234.278 4.752C235.462 4.208 236.598 3.808 237.686 3.552C238.806 3.264 239.926 3.12 241.046 3.12C242.39 3.12 243.718 3.312 245.03 3.696C246.342 4.048 247.67 4.672 249.014 5.568C250.358 6.464 251.526 7.584 252.518 8.928C253.542 10.24 254.374 11.952 255.014 14.064C255.654 16.176 255.974 18.544 255.974 21.168C255.974 25.392 255.814 28.528 255.494 30.576C255.206 32.592 254.694 34 253.958 34.8C253.254 35.6 252.15 36 250.646 36C248.534 36 247.046 35.616 246.182 34.848C245.318 34.08 244.886 32.88 244.886 31.248V28.704ZM268.882 36.288C266.354 36.288 264.258 35.264 262.594 33.216C260.93 31.136 260.098 28.288 260.098 24.672C260.098 21.024 260.914 18.128 262.546 15.984C264.178 13.84 266.274 12.768 268.834 12.768C271.426 12.768 273.826 13.664 276.034 15.456C276.866 13.888 278.242 13.104 280.162 13.104C281.89 13.104 283.234 13.488 284.194 14.256C285.186 15.024 285.682 16.4 285.682 18.384V27.168C285.682 30.272 285.474 32.944 285.057 35.184C284.674 37.392 283.986 39.344 282.994 41.04C282.034 42.736 280.69 44 278.962 44.832C277.266 45.664 275.17 46.08 272.674 46.08C270.946 46.08 269.346 45.84 267.874 45.36C266.402 44.88 265.234 44.288 264.37 43.584C263.506 42.88 262.834 42.176 262.354 41.472C261.874 40.768 261.634 40.16 261.634 39.648C261.634 39.04 261.81 38.528 262.162 38.112C262.514 37.696 263.01 37.488 263.65 37.488C264.034 37.488 264.994 37.904 266.53 38.736C268.098 39.568 269.362 39.984 270.322 39.984C273.586 39.984 275.218 38.304 275.218 34.944C273.362 35.84 271.25 36.288 268.882 36.288ZM275.41 29.088L275.362 20.016C274.818 19.12 274.13 18.672 273.298 18.672C272.722 18.672 272.21 18.976 271.762 19.584C271.346 20.192 271.026 20.944 270.802 21.84C270.61 22.736 270.514 23.68 270.514 24.672C270.514 26.176 270.754 27.504 271.234 28.656C271.714 29.776 272.386 30.336 273.25 30.336C274.114 30.336 274.834 29.92 275.41 29.088ZM300.707 38.784C300.707 41.376 300.275 43.216 299.411 44.304C298.547 45.424 297.219 45.984 295.427 45.984C293.635 45.984 292.323 45.472 291.491 44.448C290.659 43.456 290.243 41.68 290.243 39.12L290.147 18.864C290.147 16.88 290.627 15.424 291.587 14.496C292.547 13.568 293.827 13.104 295.427 13.104C296.675 13.104 297.683 13.264 298.451 13.584C299.219 13.872 299.795 14.464 300.179 15.36C302.387 13.632 304.755 12.768 307.283 12.768C309.843 12.768 311.939 13.84 313.571 15.984C315.203 18.128 316.019 21.04 316.019 24.72C316.019 28.304 315.187 31.136 313.523 33.216C311.859 35.264 309.763 36.288 307.235 36.288C304.803 36.288 302.627 35.744 300.707 34.656V38.784ZM300.707 29.04C301.251 29.936 301.971 30.384 302.867 30.384C303.731 30.384 304.403 29.808 304.883 28.656C305.363 27.504 305.603 26.192 305.603 24.72C305.603 23.152 305.347 21.76 304.835 20.544C304.323 19.328 303.651 18.72 302.819 18.72C301.955 18.72 301.251 19.184 300.707 20.112V29.04ZM333.111 36.288C329.207 36.288 325.975 35.28 323.415 33.264C320.887 31.248 319.623 28.496 319.623 25.008C319.623 21.232 320.871 18.256 323.367 16.08C325.895 13.872 329.143 12.768 333.111 12.768C336.855 12.768 339.591 13.44 341.319 14.784C343.079 16.096 343.959 17.904 343.959 20.208C343.959 20.656 343.895 21.088 343.767 21.504C343.671 21.92 343.495 22.336 343.239 22.752C343.015 23.136 342.695 23.504 342.279 23.856C341.895 24.176 341.447 24.48 340.935 24.768C340.423 25.024 339.815 25.232 339.111 25.392C338.407 25.52 337.655 25.584 336.855 25.584L330.087 25.632C330.407 26.656 330.983 27.472 331.815 28.08C332.647 28.656 333.703 28.944 334.983 28.944C336.359 28.944 337.767 28.768 339.207 28.416C339.815 28.256 340.471 28 341.175 27.648C341.911 27.296 342.439 27.12 342.759 27.12C343.303 27.12 343.719 27.28 344.007 27.6C344.327 27.92 344.487 28.32 344.487 28.8C344.487 29.376 344.231 30.08 343.719 30.912C343.207 31.712 342.487 32.528 341.559 33.36C340.663 34.16 339.463 34.848 337.959 35.424C336.455 36 334.839 36.288 333.111 36.288ZM329.847 22.56C332.055 22.528 333.255 22.512 333.447 22.512C333.927 22.512 334.279 22.224 334.503 21.648C334.663 21.232 334.743 20.656 334.743 19.92C334.743 17.904 334.135 16.896 332.919 16.896C332.471 16.896 332.023 17.136 331.575 17.616C331.159 18.096 330.791 18.784 330.471 19.68C330.151 20.544 329.943 21.504 329.847 22.56ZM362.666 18.048C362.666 17.312 362.25 16.944 361.418 16.944C360.81 16.944 360.266 17.28 359.786 17.952C359.306 18.624 358.938 19.472 358.682 20.496C358.426 21.488 358.298 22.528 358.298 23.616C358.298 25.216 358.778 26.512 359.738 27.504C360.73 28.496 362.058 28.992 363.722 28.992C365.354 28.992 366.762 28.8 367.946 28.416C368.426 28.288 369.002 28.048 369.674 27.696C370.378 27.344 370.874 27.168 371.162 27.168C371.61 27.168 371.978 27.248 372.266 27.408C372.554 27.568 372.746 27.76 372.842 27.984C372.97 28.208 373.034 28.448 373.034 28.704C373.034 29.152 372.874 29.696 372.554 30.336C372.266 30.976 371.802 31.648 371.162 32.352C370.522 33.056 369.77 33.712 368.906 34.32C368.074 34.896 367.034 35.376 365.786 35.76C364.538 36.144 363.226 36.336 361.85 36.336C357.882 36.336 354.618 35.28 352.058 33.168C349.498 31.024 348.218 28.096 348.218 24.384C348.218 22.016 348.794 19.952 349.946 18.192C351.13 16.4 352.746 15.056 354.794 14.16C356.842 13.232 359.194 12.768 361.85 12.768C364.378 12.768 366.458 13.072 368.09 13.68C369.754 14.256 370.938 15.04 371.642 16.032C372.346 17.024 372.698 18.208 372.698 19.584C372.698 20.192 372.57 20.816 372.314 21.456C372.09 22.096 371.722 22.736 371.21 23.376C370.73 24.016 370.01 24.544 369.05 24.96C368.09 25.344 366.97 25.536 365.69 25.536C365.114 25.536 364.634 25.504 364.25 25.44C363.898 25.376 363.514 25.248 363.098 25.056C362.714 24.832 362.426 24.48 362.234 24C362.042 23.52 361.946 22.912 361.946 22.176C361.946 21.536 362.058 20.768 362.282 19.872C362.538 18.944 362.666 18.336 362.666 18.048ZM385.784 36.288C383.256 36.288 381.16 35.264 379.496 33.216C377.832 31.136 377 28.304 377 24.72C377 21.072 377.816 18.176 379.448 16.032C381.112 13.856 383.224 12.768 385.784 12.768C388.376 12.768 390.776 13.68 392.984 15.504C393.848 13.904 395.24 13.104 397.16 13.104C398.888 13.104 400.232 13.488 401.192 14.256C402.152 14.992 402.632 16.368 402.632 18.384V30.864C402.632 32.784 402.232 34.128 401.432 34.896C400.632 35.632 399.224 36 397.208 36C395.096 36 393.704 35.408 393.032 34.224C390.984 35.6 388.568 36.288 385.784 36.288ZM392.312 20.112C391.768 19.184 391.064 18.72 390.2 18.72C389.368 18.72 388.696 19.328 388.184 20.544C387.672 21.76 387.416 23.152 387.416 24.72C387.416 26.192 387.656 27.504 388.136 28.656C388.616 29.808 389.288 30.384 390.152 30.384C391.048 30.384 391.768 29.952 392.312 29.088V20.112ZM406.762 32.736C406.762 31.648 407.21 30.768 408.105 30.096C409.002 29.424 410.282 29.088 411.946 29.088C415.434 29.088 417.178 30.304 417.178 32.736C417.178 34.112 416.73 35.072 415.834 35.616C414.97 36.128 413.674 36.384 411.946 36.384C410.442 36.384 409.194 36.096 408.202 35.52C407.242 34.944 406.762 34.016 406.762 32.736ZM406.762 16.464C406.762 15.376 407.21 14.496 408.105 13.824C409.002 13.152 410.282 12.816 411.946 12.816C415.434 12.816 417.178 14.032 417.178 16.464C417.178 17.808 416.73 18.752 415.834 19.296C414.97 19.84 413.674 20.112 411.946 20.112C410.986 20.112 410.138 20 409.402 19.776C408.666 19.552 408.042 19.168 407.53 18.624C407.018 18.048 406.762 17.328 406.762 16.464ZM27.7951 83.096C26.8991 83.096 26.1791 82.664 25.6351 81.8V79.4C26.0831 79.496 26.6111 79.544 27.2191 79.544C27.8591 79.544 28.3871 79.56 28.8031 79.592C29.2511 79.656 29.6031 79.752 29.8591 79.88C29.9871 79.976 30.0991 80.072 30.1951 80.168C30.0991 80.584 29.9711 80.984 29.8111 81.368C29.3311 82.52 28.6591 83.096 27.7951 83.096ZM27.7471 71.432C28.5791 71.432 29.2511 72.04 29.7631 73.256C29.8911 73.544 30.0031 73.864 30.0991 74.216C30.0671 74.312 30.0351 74.392 30.0031 74.456C29.9391 74.616 29.6191 74.76 29.0431 74.888C28.4671 75.016 27.5711 75.08 26.3551 75.08C26.0991 75.08 25.8591 75.08 25.6351 75.08V72.824C26.1791 71.896 26.8831 71.432 27.7471 71.432ZM39.8431 79.592C39.5871 78.92 39.2191 78.36 38.7391 77.912C38.2271 77.464 37.5231 76.984 36.6271 76.472C38.5791 75.128 39.5551 73.288 39.5551 70.952C39.5551 69.32 38.8031 67.992 37.2991 66.968C36.6271 66.52 35.7951 66.168 34.8031 65.912C33.9711 65.624 33.0911 65.48 32.1631 65.48C29.5711 65.48 27.1711 66.392 24.9631 68.216C24.0991 66.616 22.7071 65.816 20.7871 65.816C19.0591 65.816 17.7151 66.2 16.7551 66.968C15.7951 67.704 15.3151 69.08 15.3151 71.096V83.576C15.3151 85.496 15.7151 86.84 16.5151 87.608C17.3151 88.344 18.7231 88.712 20.7391 88.712C22.8511 88.712 24.2431 88.12 24.9151 86.936C26.9631 88.312 29.3791 89 32.1631 89C33.1231 89 34.0191 88.856 34.8511 88.568C36.0351 88.248 37.0431 87.736 37.8751 87.032C39.4431 85.784 40.2271 84.152 40.2271 82.136C40.2271 81.112 40.0991 80.264 39.8431 79.592ZM69.4314 75.464C69.4314 80.936 69.2714 84.76 68.9514 86.936C68.6954 88.888 68.2954 90.568 67.7514 91.976C67.2074 93.416 66.4394 94.68 65.4474 95.768C64.4554 96.888 63.1914 97.72 61.6554 98.264C60.1194 98.808 58.2954 99.08 56.1834 99.08C54.4874 99.08 52.9034 98.824 51.4314 98.312C49.9914 97.832 48.8394 97.224 47.9754 96.488C47.1434 95.784 46.4874 95.08 46.0074 94.376C45.5274 93.672 45.2874 93.064 45.2874 92.552C45.2874 92.04 45.4474 91.56 45.7674 91.112C46.1194 90.696 46.5834 90.488 47.1594 90.488C47.5754 90.488 48.0554 90.616 48.5994 90.872C49.1754 91.128 49.7194 91.416 50.2314 91.736C50.7434 92.056 51.3514 92.344 52.0554 92.6C52.7594 92.856 53.4474 92.984 54.1194 92.984C55.8474 92.984 57.0634 92.552 57.7674 91.688C58.5034 90.824 58.8714 89.592 58.8714 87.992C58.3274 88.216 57.7994 88.408 57.2874 88.568C56.7754 88.728 56.2794 88.856 55.7994 88.952C55.3194 89.048 54.8554 89.112 54.4074 89.144C53.9914 89.176 53.5754 89.192 53.1594 89.192C51.2714 89.192 49.6554 88.664 48.3114 87.608C46.9674 86.552 45.9914 85.256 45.3834 83.72C44.8074 82.152 44.5194 80.472 44.5194 78.68C44.5194 76.888 44.5354 75.368 44.5674 74.12C44.6314 72.872 44.7434 71.768 44.9034 70.808C45.0634 69.816 45.2394 69.032 45.4314 68.456C45.6554 67.88 45.9594 67.416 46.3434 67.064C46.7274 66.68 47.1594 66.424 47.6394 66.296C48.1194 66.168 48.6954 66.104 49.3674 66.104C51.3834 66.104 52.7914 66.456 53.5914 67.16C54.4234 67.832 54.8394 68.904 54.8394 70.376L54.8874 78.104C54.8874 78.616 54.8874 79 54.8874 79.256C54.8874 79.48 54.9034 79.768 54.9354 80.12C54.9994 80.472 55.0634 80.728 55.1274 80.888C55.2234 81.048 55.3354 81.224 55.4634 81.416C55.6234 81.576 55.8154 81.688 56.0394 81.752C56.2954 81.816 56.5994 81.848 56.9514 81.848C57.9114 81.848 58.5034 81.592 58.7274 81.08C58.9834 80.536 59.1114 79.56 59.1114 78.152L59.1594 70.376C59.1594 69.384 59.3194 68.584 59.6394 67.976C59.9914 67.368 60.5674 66.904 61.3674 66.584C62.1674 66.264 63.2554 66.104 64.6314 66.104C65.4634 66.104 66.1674 66.248 66.7434 66.536C67.3514 66.792 67.8314 67.144 68.1834 67.592C68.5354 68.008 68.7914 68.648 68.9514 69.512C69.1434 70.344 69.2714 71.192 69.3354 72.056C69.3994 72.92 69.4314 74.056 69.4314 75.464ZM86.2996 73.304C86.6516 73.304 86.9556 73.336 87.2116 73.4C87.4356 73.464 87.6116 73.592 87.7396 73.784C87.8996 73.944 88.0276 74.104 88.1236 74.264C88.2196 74.424 88.2836 74.68 88.3156 75.032C88.3476 75.384 88.3636 75.672 88.3636 75.896V77.048L88.4116 84.728C88.4116 86.2 88.8276 87.288 89.6596 87.992C90.4916 88.664 91.8996 89 93.8836 89C95.2916 89 96.3476 88.712 97.0516 88.136C97.7236 87.528 98.2036 86.472 98.4916 84.968C98.7796 83.432 98.9236 81.096 98.9236 77.96C98.9236 76.232 98.6516 74.68 98.1076 73.304C97.5636 71.928 96.8596 70.808 95.9956 69.944C95.1316 69.048 94.1396 68.296 93.0196 67.688C91.8676 67.112 90.7316 66.696 89.6116 66.44C88.4916 66.216 87.3716 66.104 86.2516 66.104C85.0996 66.104 83.9636 66.216 82.8436 66.44C81.7236 66.696 80.6036 67.112 79.4836 67.688C78.3636 68.296 77.3876 69.048 76.5556 69.944C75.6916 70.808 74.9876 71.928 74.4436 73.304C73.8996 74.68 73.6276 76.232 73.6276 77.96C73.6276 79.848 73.6756 81.4 73.7716 82.616C73.8676 83.864 74.0116 84.92 74.2036 85.784C74.3956 86.68 74.6996 87.336 75.1156 87.752C75.5316 88.2 76.0116 88.52 76.5556 88.712C77.0996 88.904 77.8036 89 78.6676 89C80.0116 89 81.0836 88.84 81.8836 88.52C82.6836 88.2 83.2596 87.736 83.6116 87.128C83.9316 86.52 84.0916 85.72 84.0916 84.728L84.1396 77C84.1396 75.592 84.2676 74.632 84.5236 74.12C84.7796 73.576 85.3716 73.304 86.2996 73.304ZM102.487 85.688C102.487 84.6 102.935 83.72 103.831 83.048C104.759 82.376 106.055 82.04 107.719 82.04C111.207 82.04 112.951 83.256 112.951 85.688C112.951 86.616 112.727 87.368 112.279 87.944C111.831 88.488 111.239 88.856 110.503 89.048C109.767 89.24 108.839 89.336 107.719 89.336C106.215 89.336 104.967 89.048 103.975 88.472C102.983 87.896 102.487 86.968 102.487 85.688ZM159.546 57.128L159.258 56.84C158.714 56.36 157.738 56.12 156.33 56.12H135.834C134.17 56.12 132.842 56.584 131.85 57.512C130.826 58.44 130.314 59.896 130.314 61.88L130.458 82.136C130.458 84.696 130.89 86.472 131.754 87.464C132.618 88.488 133.978 89 135.834 89C137.786 89 139.21 88.456 140.106 87.368C141.002 86.28 141.45 84.424 141.45 81.8V62.936H149.946V69.512L149.994 76.712L150.042 82.136C150.042 84.696 150.474 86.472 151.338 87.464C152.202 88.488 153.562 89 155.418 89C157.306 89 158.714 88.456 159.642 87.368C160.57 86.248 161.034 84.392 161.034 81.8V61.448C161.034 59.304 160.554 57.88 159.594 57.176L159.546 57.128ZM179.174 89.288C175.27 89.288 172.038 88.28 169.478 86.264C166.95 84.248 165.686 81.496 165.686 78.008C165.686 74.232 166.934 71.256 169.43 69.08C171.958 66.872 175.206 65.768 179.174 65.768C182.918 65.768 185.654 66.44 187.382 67.784C189.142 69.096 190.022 70.904 190.022 73.208C190.022 73.656 189.958 74.088 189.83 74.504C189.734 74.92 189.558 75.336 189.302 75.752C189.078 76.136 188.758 76.504 188.342 76.856C187.958 77.176 187.51 77.48 186.998 77.768C186.486 78.024 185.878 78.232 185.174 78.392C184.47 78.52 183.718 78.584 182.918 78.584L176.15 78.632C176.47 79.656 177.046 80.472 177.878 81.08C178.71 81.656 179.766 81.944 181.046 81.944C182.422 81.944 183.83 81.768 185.27 81.416C185.878 81.256 186.534 81 187.238 80.648C187.974 80.296 188.502 80.12 188.822 80.12C189.366 80.12 189.782 80.28 190.07 80.6C190.39 80.92 190.55 81.32 190.55 81.8C190.55 82.376 190.294 83.08 189.782 83.912C189.27 84.712 188.55 85.528 187.622 86.36C186.726 87.16 185.526 87.848 184.022 88.424C182.518 89 180.902 89.288 179.174 89.288ZM175.91 75.56C178.118 75.528 179.318 75.512 179.51 75.512C179.99 75.512 180.342 75.224 180.566 74.648C180.726 74.232 180.806 73.656 180.806 72.92C180.806 70.904 180.198 69.896 178.982 69.896C178.534 69.896 178.086 70.136 177.638 70.616C177.222 71.096 176.854 71.784 176.534 72.68C176.214 73.544 176.006 74.504 175.91 75.56ZM222.985 76.328C222.985 74.536 222.265 73.64 220.825 73.64C220.185 73.64 219.705 74.008 219.385 74.744C219.065 75.48 218.905 76.408 218.905 77.528C218.905 79.224 218.873 80.632 218.809 81.752C218.777 82.872 218.681 83.88 218.521 84.776C218.361 85.672 218.169 86.376 217.945 86.888C217.721 87.4 217.417 87.832 217.033 88.184C216.649 88.504 216.217 88.728 215.737 88.856C215.257 88.952 214.649 89 213.913 89C212.793 89 211.881 88.84 211.177 88.52C210.505 88.2 210.025 87.752 209.737 87.176C209.449 86.6 209.305 85.88 209.305 85.016V76.328C209.305 74.536 208.585 73.64 207.145 73.64C206.569 73.64 206.089 73.976 205.705 74.648C205.353 75.288 205.177 76.136 205.177 77.192V83.864C205.177 85.784 204.777 87.128 203.977 87.896C203.177 88.632 201.769 89 199.753 89C197.865 89 196.569 88.568 195.865 87.704C195.193 86.808 194.857 85.352 194.857 83.336V71.528C194.857 69.896 195.289 68.584 196.153 67.592C197.049 66.6 198.233 66.104 199.705 66.104C202.329 66.104 203.993 66.952 204.697 68.648C205.913 67.752 207.097 67.128 208.249 66.776C209.433 66.424 210.809 66.248 212.377 66.248C214.745 66.248 216.457 67.272 217.513 69.32C217.673 69.192 217.833 69.064 217.993 68.936C220.457 67.144 223.481 66.248 227.065 66.248C229.337 66.248 230.969 67.112 231.961 68.84C232.953 70.568 233.449 73.464 233.449 77.528C233.449 79.224 233.417 80.632 233.353 81.752C233.321 82.872 233.225 83.88 233.065 84.776C232.905 85.672 232.697 86.376 232.441 86.888C232.217 87.4 231.881 87.832 231.433 88.184C231.017 88.504 230.537 88.728 229.993 88.856C229.481 88.952 228.825 89 228.025 89C226.809 89 225.817 88.84 225.049 88.52C224.313 88.2 223.785 87.752 223.465 87.176C223.145 86.6 222.985 85.88 222.985 85.016V76.328ZM248.582 91.784C248.582 94.376 248.15 96.216 247.286 97.304C246.422 98.424 245.094 98.984 243.302 98.984C241.51 98.984 240.198 98.472 239.366 97.448C238.534 96.456 238.118 94.68 238.118 92.12L238.022 71.864C238.022 69.88 238.502 68.424 239.462 67.496C240.422 66.568 241.702 66.104 243.302 66.104C244.55 66.104 245.558 66.264 246.326 66.584C247.094 66.872 247.67 67.464 248.054 68.36C250.262 66.632 252.63 65.768 255.158 65.768C257.718 65.768 259.814 66.84 261.446 68.984C263.078 71.128 263.894 74.04 263.894 77.72C263.894 81.304 263.062 84.136 261.398 86.216C259.734 88.264 257.638 89.288 255.11 89.288C252.678 89.288 250.502 88.744 248.582 87.656V91.784ZM248.582 82.04C249.126 82.936 249.846 83.384 250.742 83.384C251.606 83.384 252.278 82.808 252.758 81.656C253.238 80.504 253.478 79.192 253.478 77.72C253.478 76.152 253.222 74.76 252.71 73.544C252.198 72.328 251.526 71.72 250.694 71.72C249.83 71.72 249.126 72.184 248.582 73.112V82.04ZM283.29 77.624C283.29 75.96 283.082 74.504 282.666 73.256C282.25 71.976 281.642 71.336 280.842 71.336C280.298 71.336 279.818 71.656 279.402 72.296C278.986 72.936 278.682 73.72 278.49 74.648C278.298 75.576 278.202 76.568 278.202 77.624C278.202 79.256 278.426 80.696 278.874 81.944C279.322 83.16 279.962 83.768 280.794 83.768C281.626 83.768 282.25 83.16 282.666 81.944C283.082 80.728 283.29 79.288 283.29 77.624ZM280.794 89.336C278.298 89.336 276.042 88.888 274.026 87.992C272.042 87.096 270.442 85.752 269.226 83.96C268.042 82.168 267.45 80.072 267.45 77.672C267.45 74.024 268.698 71.128 271.194 68.984C273.69 66.84 276.89 65.768 280.794 65.768C284.698 65.768 287.882 66.84 290.346 68.984C292.81 71.128 294.042 74.024 294.042 77.672C294.042 81.288 292.778 84.136 290.25 86.216C287.754 88.296 284.602 89.336 280.794 89.336ZM312.803 76.088C312.803 74.296 312.099 73.4 310.691 73.4C310.019 73.4 309.459 73.688 309.011 74.264C308.595 74.808 308.355 75.544 308.291 76.472V83.864C308.291 85.816 307.891 87.16 307.091 87.896C306.291 88.632 304.883 89 302.867 89C300.979 89 299.683 88.568 298.979 87.704C298.307 86.808 297.971 85.352 297.971 83.336V71.528C297.971 69.896 298.403 68.584 299.267 67.592C300.163 66.6 301.347 66.104 302.819 66.104C304.035 66.104 305.059 66.28 305.891 66.632C306.723 66.984 307.347 67.592 307.763 68.456C310.259 66.824 313.299 66.008 316.883 66.008C319.155 66.008 320.787 66.904 321.779 68.696C322.803 70.488 323.315 73.432 323.315 77.528C323.315 79.544 323.267 81.192 323.171 82.472C323.075 83.72 322.915 84.808 322.691 85.736C322.499 86.632 322.179 87.304 321.731 87.752C321.283 88.2 320.755 88.52 320.147 88.712C319.571 88.904 318.819 89 317.891 89C316.099 89 314.803 88.664 314.003 87.992C313.235 87.32 312.851 86.328 312.851 85.016L312.803 76.088ZM336.238 89.288C333.71 89.288 331.614 88.264 329.95 86.216C328.286 84.136 327.454 81.304 327.454 77.72C327.454 74.072 328.27 71.176 329.902 69.032C331.566 66.856 333.678 65.768 336.238 65.768C338.83 65.768 341.23 66.68 343.438 68.504C344.302 66.904 345.694 66.104 347.614 66.104C349.342 66.104 350.686 66.488 351.646 67.256C352.606 67.992 353.086 69.368 353.086 71.384V83.864C353.086 85.784 352.686 87.128 351.885 87.896C351.086 88.632 349.678 89 347.662 89C345.55 89 344.158 88.408 343.486 87.224C341.438 88.6 339.022 89.288 336.238 89.288ZM342.766 73.112C342.222 72.184 341.518 71.72 340.654 71.72C339.822 71.72 339.15 72.328 338.638 73.544C338.126 74.76 337.87 76.152 337.87 77.72C337.87 79.192 338.11 80.504 338.59 81.656C339.07 82.808 339.742 83.384 340.606 83.384C341.502 83.384 342.222 82.952 342.766 82.088V73.112ZM369.983 83.096C369.087 83.096 368.367 82.664 367.823 81.8V79.4C368.271 79.496 368.799 79.544 369.407 79.544C370.047 79.544 370.575 79.56 370.991 79.592C371.439 79.656 371.791 79.752 372.047 79.88C372.175 79.976 372.287 80.072 372.383 80.168C372.287 80.584 372.159 80.984 371.999 81.368C371.519 82.52 370.847 83.096 369.983 83.096ZM369.935 71.432C370.767 71.432 371.439 72.04 371.951 73.256C372.079 73.544 372.191 73.864 372.287 74.216C372.255 74.312 372.223 74.392 372.191 74.456C372.127 74.616 371.807 74.76 371.231 74.888C370.655 75.016 369.759 75.08 368.543 75.08C368.287 75.08 368.047 75.08 367.823 75.08V72.824C368.367 71.896 369.071 71.432 369.935 71.432ZM382.031 79.592C381.775 78.92 381.407 78.36 380.927 77.912C380.415 77.464 379.711 76.984 378.815 76.472C380.767 75.128 381.743 73.288 381.743 70.952C381.743 69.32 380.991 67.992 379.487 66.968C378.815 66.52 377.983 66.168 376.991 65.912C376.159 65.624 375.279 65.48 374.351 65.48C371.759 65.48 369.359 66.392 367.151 68.216C366.287 66.616 364.895 65.816 362.975 65.816C361.247 65.816 359.903 66.2 358.943 66.968C357.983 67.704 357.503 69.08 357.503 71.096V83.576C357.503 85.496 357.903 86.84 358.703 87.608C359.503 88.344 360.911 88.712 362.927 88.712C365.039 88.712 366.431 88.12 367.103 86.936C369.151 88.312 371.567 89 374.351 89C375.311 89 376.207 88.856 377.039 88.568C378.223 88.248 379.231 87.736 380.063 87.032C381.631 85.784 382.415 84.152 382.415 82.136C382.415 81.112 382.287 80.264 382.031 79.592ZM399.331 73.304C399.683 73.304 399.987 73.336 400.243 73.4C400.467 73.464 400.643 73.592 400.771 73.784C400.931 73.944 401.059 74.104 401.155 74.264C401.251 74.424 401.315 74.68 401.347 75.032C401.379 75.384 401.395 75.672 401.395 75.896V77.048L401.443 84.728C401.443 86.2 401.859 87.288 402.691 87.992C403.523 88.664 404.931 89 406.915 89C408.323 89 409.379 88.712 410.083 88.136C410.755 87.528 411.235 86.472 411.523 84.968C411.811 83.432 411.955 81.096 411.955 77.96C411.955 76.232 411.683 74.68 411.139 73.304C410.595 71.928 409.891 70.808 409.027 69.944C408.163 69.048 407.171 68.296 406.051 67.688C404.899 67.112 403.763 66.696 402.643 66.44C401.523 66.216 400.403 66.104 399.283 66.104C398.131 66.104 396.995 66.216 395.875 66.44C394.755 66.696 393.635 67.112 392.515 67.688C391.395 68.296 390.419 69.048 389.587 69.944C388.723 70.808 388.019 71.928 387.475 73.304C386.931 74.68 386.659 76.232 386.659 77.96C386.659 79.848 386.707 81.4 386.803 82.616C386.899 83.864 387.043 84.92 387.235 85.784C387.427 86.68 387.731 87.336 388.147 87.752C388.563 88.2 389.043 88.52 389.587 88.712C390.131 88.904 390.835 89 391.699 89C393.043 89 394.115 88.84 394.915 88.52C395.715 88.2 396.291 87.736 396.643 87.128C396.963 86.52 397.123 85.72 397.123 84.728L397.171 77C397.171 75.592 397.299 74.632 397.555 74.12C397.811 73.576 398.403 73.304 399.331 73.304ZM416.142 59.432C416.142 58.376 416.59 57.512 417.486 56.84C418.414 56.136 419.71 55.784 421.374 55.784C424.862 55.784 426.606 57 426.606 59.432C426.606 60.776 426.158 61.72 425.262 62.264C424.398 62.808 423.102 63.08 421.374 63.08C419.87 63.08 418.622 62.792 417.63 62.216C416.638 61.64 416.142 60.712 416.142 59.432ZM426.558 83.864C426.558 85.784 426.158 87.128 425.358 87.896C424.558 88.632 423.15 89 421.134 89C419.246 89 417.95 88.568 417.246 87.704C416.574 86.808 416.238 85.352 416.238 83.336V71.528C416.238 69.896 416.67 68.584 417.534 67.592C418.43 66.6 419.614 66.104 421.086 66.104C422.814 66.104 424.158 66.488 425.118 67.256C426.078 67.992 426.558 69.368 426.558 71.384V83.864ZM443.295 83.096C442.399 83.096 441.679 82.664 441.135 81.8V79.4C441.583 79.496 442.111 79.544 442.719 79.544C443.359 79.544 443.887 79.56 444.303 79.592C444.751 79.656 445.103 79.752 445.359 79.88C445.487 79.976 445.599 80.072 445.695 80.168C445.599 80.584 445.471 80.984 445.311 81.368C444.831 82.52 444.159 83.096 443.295 83.096ZM443.247 71.432C444.079 71.432 444.751 72.04 445.263 73.256C445.391 73.544 445.503 73.864 445.599 74.216C445.567 74.312 445.535 74.392 445.503 74.456C445.439 74.616 445.119 74.76 444.543 74.888C443.967 75.016 443.071 75.08 441.855 75.08C441.599 75.08 441.359 75.08 441.135 75.08V72.824C441.679 71.896 442.383 71.432 443.247 71.432ZM455.343 79.592C455.087 78.92 454.719 78.36 454.239 77.912C453.727 77.464 453.023 76.984 452.127 76.472C454.079 75.128 455.055 73.288 455.055 70.952C455.055 69.32 454.303 67.992 452.799 66.968C452.127 66.52 451.295 66.168 450.303 65.912C449.471 65.624 448.591 65.48 447.663 65.48C445.071 65.48 442.671 66.392 440.463 68.216C439.599 66.616 438.207 65.816 436.287 65.816C434.559 65.816 433.215 66.2 432.255 66.968C431.295 67.704 430.815 69.08 430.815 71.096V83.576C430.815 85.496 431.215 86.84 432.015 87.608C432.815 88.344 434.223 88.712 436.239 88.712C438.351 88.712 439.743 88.12 440.415 86.936C442.463 88.312 444.879 89 447.663 89C448.623 89 449.519 88.856 450.351 88.568C451.535 88.248 452.543 87.736 453.375 87.032C454.943 85.784 455.727 84.152 455.727 82.136C455.727 81.112 455.599 80.264 455.343 79.592ZM474.275 71.048C474.275 70.312 473.859 69.944 473.027 69.944C472.419 69.944 471.875 70.28 471.395 70.952C470.915 71.624 470.547 72.472 470.291 73.496C470.035 74.488 469.907 75.528 469.907 76.616C469.907 78.216 470.387 79.512 471.347 80.504C472.339 81.496 473.667 81.992 475.331 81.992C476.963 81.992 478.371 81.8 479.555 81.416C480.035 81.288 480.611 81.048 481.283 80.696C481.987 80.344 482.483 80.168 482.771 80.168C483.219 80.168 483.587 80.248 483.875 80.408C484.163 80.568 484.355 80.76 484.451 80.984C484.579 81.208 484.643 81.448 484.643 81.704C484.643 82.152 484.483 82.696 484.163 83.336C483.875 83.976 483.411 84.648 482.771 85.352C482.131 86.056 481.379 86.712 480.515 87.32C479.683 87.896 478.643 88.376 477.395 88.76C476.147 89.144 474.835 89.336 473.459 89.336C469.491 89.336 466.227 88.28 463.667 86.168C461.107 84.024 459.827 81.096 459.827 77.384C459.827 75.016 460.403 72.952 461.555 71.192C462.739 69.4 464.355 68.056 466.403 67.16C468.451 66.232 470.803 65.768 473.459 65.768C475.987 65.768 478.067 66.072 479.699 66.68C481.363 67.256 482.547 68.04 483.251 69.032C483.955 70.024 484.307 71.208 484.307 72.584C484.307 73.192 484.179 73.816 483.923 74.456C483.699 75.096 483.331 75.736 482.819 76.376C482.339 77.016 481.619 77.544 480.659 77.96C479.699 78.344 478.579 78.536 477.299 78.536C476.723 78.536 476.243 78.504 475.859 78.44C475.507 78.376 475.123 78.248 474.707 78.056C474.323 77.832 474.035 77.48 473.843 77C473.651 76.52 473.555 75.912 473.555 75.176C473.555 74.536 473.667 73.768 473.891 72.872C474.147 71.944 474.275 71.336 474.275 71.048ZM498.978 84.632C499.01 84.248 499.026 83.816 499.026 83.336V77.48L499.218 77.528C499.698 77.624 500.13 77.816 500.514 78.104C500.93 78.36 501.25 78.744 501.474 79.256C501.666 79.736 501.762 80.344 501.762 81.08C501.762 81.912 501.682 82.552 501.522 83C501.362 83.48 501.09 83.848 500.706 84.104C500.322 84.36 499.906 84.52 499.458 84.584L498.978 84.632ZM488.706 83.864C488.706 85.784 489.106 87.128 489.906 87.896C490.45 88.376 491.266 88.712 492.354 88.904C492.706 88.968 493.09 89 493.506 89H493.602H494.13H494.562H499.41C500.882 89 502.226 88.808 503.442 88.424C504.658 88.008 505.73 87.448 506.658 86.744C507.554 86.072 508.242 85.192 508.722 84.104C509.234 83.048 509.49 81.88 509.49 80.6C509.49 79.032 509.042 77.656 508.146 76.472C507.218 75.288 506.002 74.408 504.498 73.832C503.026 73.256 501.346 72.968 499.458 72.968H499.026V71.528C499.026 69.896 498.578 68.584 497.682 67.592C496.818 66.6 495.65 66.104 494.178 66.104H493.89H493.506C492.386 66.104 491.506 66.328 490.866 66.776C490.61 66.904 490.37 67.064 490.146 67.256C489.186 67.992 488.706 69.368 488.706 71.384V83.864ZM536.249 79.064C535.097 78.136 533.769 77.672 532.265 77.672C533.737 77.672 535.065 77.128 536.249 76.04C537.433 74.952 538.025 73.416 538.025 71.432C538.025 69.544 537.673 68.248 536.969 67.544C536.297 66.808 534.969 66.44 532.985 66.44C531.097 66.44 529.753 66.776 528.953 67.448C528.185 68.12 527.801 69.208 527.801 70.712C527.801 71.736 527.673 72.408 527.417 72.728C527.129 73.08 526.601 73.256 525.833 73.256C525.001 73.256 524.393 73.08 524.009 72.728C523.881 70.808 523.577 69.384 523.097 68.456C522.425 67.112 521.097 66.44 519.113 66.44C517.961 66.504 517.017 66.712 516.281 67.064C515.577 67.416 515.001 68.024 514.553 68.888C514.105 69.72 513.881 70.808 513.881 72.152V82.136C513.881 84.696 514.297 86.488 515.129 87.512C515.993 88.504 517.321 89 519.113 89C520.713 89 521.993 88.28 522.953 86.84C523.913 85.4 524.393 83.848 524.393 82.184H526.121C526.569 82.184 526.905 82.232 527.129 82.328C527.321 82.456 527.481 82.712 527.609 83.096C527.737 83.448 527.801 83.992 527.801 84.728C527.801 86.2 528.185 87.288 528.953 87.992C529.753 88.664 531.097 89 532.985 89C535.033 89 536.393 88.632 537.065 87.896C537.705 87.16 538.025 85.576 538.025 83.144C538.025 81.32 537.433 79.96 536.249 79.064ZM550.409 89.288C547.881 89.288 545.785 88.264 544.121 86.216C542.457 84.136 541.625 81.304 541.625 77.72C541.625 74.072 542.441 71.176 544.073 69.032C545.737 66.856 547.849 65.768 550.409 65.768C553.001 65.768 555.401 66.68 557.609 68.504C558.473 66.904 559.865 66.104 561.785 66.104C563.513 66.104 564.857 66.488 565.817 67.256C566.777 67.992 567.257 69.368 567.257 71.384V83.864C567.257 85.784 566.857 87.128 566.057 87.896C565.257 88.632 563.849 89 561.833 89C559.721 89 558.329 88.408 557.657 87.224C555.609 88.6 553.193 89.288 550.409 89.288ZM556.937 73.112C556.393 72.184 555.689 71.72 554.825 71.72C553.993 71.72 553.321 72.328 552.809 73.544C552.297 74.76 552.041 76.152 552.041 77.72C552.041 79.192 552.281 80.504 552.761 81.656C553.241 82.808 553.913 83.384 554.777 83.384C555.673 83.384 556.393 82.952 556.937 82.088V73.112ZM605.3 64.712H595.46L595.364 67.832C599.012 67.832 601.94 68.264 604.148 69.128C607.508 70.504 609.188 73.384 609.188 77.768C609.188 81.416 608.02 84.248 605.684 86.264C603.348 88.28 599.812 89.288 595.076 89.288C591.236 89.288 588.516 88.872 586.916 88.04C585.316 87.176 584.516 85.848 584.516 84.056C584.516 80.92 585.62 79.352 587.828 79.352C588.404 79.352 589.412 79.528 590.852 79.88C592.324 80.232 593.364 80.408 593.972 80.408C595.444 80.408 596.532 80.216 597.236 79.832C597.94 79.448 598.292 78.76 598.292 77.768C598.292 75.976 595.284 75.08 589.268 75.08C587.604 75.08 586.5 74.712 585.956 73.976C585.412 73.24 585.14 71.768 585.14 69.56V60.968C585.14 59.624 585.54 58.632 586.34 57.992C587.172 57.32 588.612 56.984 590.66 56.984H604.292C605.796 56.984 606.82 57.272 607.364 57.848C607.908 58.424 608.18 59.56 608.18 61.256C608.18 62.504 607.956 63.4 607.508 63.944C607.092 64.456 606.356 64.712 605.3 64.712ZM631.997 88.952C630.109 88.952 628.733 88.44 627.869 87.416C627.005 86.36 626.573 84.536 626.573 81.944H617.693C615.613 81.944 614.061 81.448 613.037 80.456C612.045 79.464 611.549 78.184 611.549 76.616C611.549 74.92 611.981 73.416 612.845 72.104C615.117 68.552 617.677 64.712 620.525 60.584C622.189 58.152 624.477 56.936 627.389 56.936L631.565 56.984C633.901 56.984 635.485 57.384 636.317 58.184C637.149 58.952 637.565 60.312 637.565 62.264V74.936C638.941 75.064 639.885 75.4 640.397 75.944C640.909 76.488 641.165 77.352 641.165 78.536C641.165 79.752 640.893 80.6 640.349 81.08C639.805 81.528 638.877 81.8 637.565 81.896C637.565 84.424 637.101 86.232 636.173 87.32C635.245 88.408 633.853 88.952 631.997 88.952ZM626.525 75.128L626.669 64.904L620.237 75.128H626.525Z" fill="#2B1F19"/>
<path d="M224.264 507.8C224.264 509.624 224.04 511.08 223.592 512.168C223.144 513.224 222.52 513.96 221.72 514.376C220.952 514.792 219.928 515 218.648 515C216.76 515 215.384 514.504 214.52 513.512C213.688 512.488 213.256 510.696 213.224 508.136L213.128 490.424H209.048C207.032 490.424 205.512 490.104 204.488 489.464C203.496 488.824 203 487.688 203 486.056C203 485.064 203.192 484.28 203.576 483.704C203.992 483.128 204.6 482.728 205.4 482.504C206.2 482.248 207.272 482.12 208.616 482.12H229.16C230.952 482.12 232.248 482.44 233.048 483.08C233.848 483.72 234.248 484.824 234.248 486.392C234.248 487.448 234.008 488.28 233.528 488.888C233.08 489.464 232.472 489.864 231.704 490.088C230.936 490.312 229.944 490.424 228.728 490.424H224.264V507.8ZM251.447 515.288C247.543 515.288 244.311 514.28 241.751 512.264C239.223 510.248 237.959 507.496 237.959 504.008C237.959 500.232 239.207 497.256 241.703 495.08C244.231 492.872 247.479 491.768 251.447 491.768C255.191 491.768 257.927 492.44 259.655 493.784C261.415 495.096 262.295 496.904 262.295 499.208C262.295 499.656 262.231 500.088 262.103 500.504C262.007 500.92 261.831 501.336 261.575 501.752C261.351 502.136 261.031 502.504 260.615 502.856C260.231 503.176 259.783 503.48 259.271 503.768C258.759 504.024 258.151 504.232 257.447 504.392C256.743 504.52 255.991 504.584 255.191 504.584L248.423 504.632C248.743 505.656 249.319 506.472 250.151 507.08C250.983 507.656 252.039 507.944 253.319 507.944C254.695 507.944 256.103 507.768 257.543 507.416C258.151 507.256 258.807 507 259.511 506.648C260.247 506.296 260.775 506.12 261.095 506.12C261.639 506.12 262.055 506.28 262.343 506.6C262.663 506.92 262.823 507.32 262.823 507.8C262.823 508.376 262.567 509.08 262.055 509.912C261.543 510.712 260.823 511.528 259.895 512.36C258.999 513.16 257.799 513.848 256.295 514.424C254.791 515 253.175 515.288 251.447 515.288ZM248.183 501.56C250.391 501.528 251.591 501.512 251.783 501.512C252.263 501.512 252.615 501.224 252.839 500.648C252.999 500.232 253.079 499.656 253.079 498.92C253.079 496.904 252.471 495.896 251.255 495.896C250.807 495.896 250.359 496.136 249.911 496.616C249.495 497.096 249.127 497.784 248.807 498.68C248.487 499.544 248.279 500.504 248.183 501.56ZM279.37 499.304C279.722 499.304 280.026 499.336 280.282 499.4C280.506 499.464 280.682 499.592 280.81 499.784C280.97 499.944 281.098 500.104 281.194 500.264C281.29 500.424 281.354 500.68 281.386 501.032C281.418 501.384 281.434 501.672 281.434 501.896V503.048L281.482 510.728C281.482 512.2 281.898 513.288 282.73 513.992C283.562 514.664 284.97 515 286.954 515C288.362 515 289.418 514.712 290.122 514.136C290.794 513.528 291.274 512.472 291.562 510.968C291.85 509.432 291.994 507.096 291.994 503.96C291.994 502.232 291.722 500.68 291.178 499.304C290.634 497.928 289.93 496.808 289.066 495.944C288.202 495.048 287.21 494.296 286.09 493.688C284.938 493.112 283.802 492.696 282.682 492.44C281.562 492.216 280.442 492.104 279.322 492.104C278.17 492.104 277.034 492.216 275.914 492.44C274.794 492.696 273.674 493.112 272.554 493.688C271.434 494.296 270.458 495.048 269.626 495.944C268.762 496.808 268.058 497.928 267.514 499.304C266.97 500.68 266.698 502.232 266.698 503.96C266.698 505.848 266.746 507.4 266.842 508.616C266.938 509.864 267.082 510.92 267.274 511.784C267.466 512.68 267.77 513.336 268.186 513.752C268.602 514.2 269.082 514.52 269.626 514.712C270.17 514.904 270.874 515 271.738 515C273.082 515 274.154 514.84 274.954 514.52C275.754 514.2 276.33 513.736 276.682 513.128C277.002 512.52 277.162 511.72 277.162 510.728L277.21 503C277.21 501.592 277.338 500.632 277.594 500.12C277.85 499.576 278.442 499.304 279.37 499.304ZM309.525 515.288C305.621 515.288 302.389 514.28 299.829 512.264C297.301 510.248 296.037 507.496 296.037 504.008C296.037 500.232 297.285 497.256 299.781 495.08C302.309 492.872 305.557 491.768 309.525 491.768C313.269 491.768 316.005 492.44 317.733 493.784C319.493 495.096 320.373 496.904 320.373 499.208C320.373 499.656 320.309 500.088 320.181 500.504C320.085 500.92 319.909 501.336 319.653 501.752C319.429 502.136 319.109 502.504 318.693 502.856C318.309 503.176 317.861 503.48 317.349 503.768C316.837 504.024 316.229 504.232 315.525 504.392C314.821 504.52 314.069 504.584 313.269 504.584L306.501 504.632C306.821 505.656 307.397 506.472 308.229 507.08C309.061 507.656 310.117 507.944 311.397 507.944C312.773 507.944 314.181 507.768 315.621 507.416C316.229 507.256 316.885 507 317.589 506.648C318.325 506.296 318.853 506.12 319.173 506.12C319.717 506.12 320.133 506.28 320.421 506.6C320.741 506.92 320.901 507.32 320.901 507.8C320.901 508.376 320.645 509.08 320.133 509.912C319.621 510.712 318.901 511.528 317.973 512.36C317.077 513.16 315.877 513.848 314.373 514.424C312.869 515 311.253 515.288 309.525 515.288ZM306.261 501.56C308.469 501.528 309.669 501.512 309.861 501.512C310.341 501.512 310.693 501.224 310.917 500.648C311.077 500.232 311.157 499.656 311.157 498.92C311.157 496.904 310.549 495.896 309.333 495.896C308.885 495.896 308.437 496.136 307.989 496.616C307.573 497.096 307.205 497.784 306.885 498.68C306.565 499.544 306.357 500.504 306.261 501.56ZM354.392 507.656C353.912 508.808 353.224 509.384 352.328 509.384C351.464 509.384 350.76 508.936 350.216 508.04V499.112C350.76 498.184 351.464 497.72 352.328 497.72C353.16 497.72 353.832 498.328 354.344 499.544C354.856 500.76 355.112 502.152 355.112 503.72C355.112 505.192 354.872 506.504 354.392 507.656ZM337.496 509.384C336.632 509.384 335.96 508.808 335.48 507.656C335 506.504 334.76 505.192 334.76 503.72C334.76 502.152 335.016 500.76 335.528 499.544C336.04 498.328 336.712 497.72 337.544 497.72C338.408 497.72 339.112 498.168 339.656 499.064V502.808V508.04C339.112 508.936 338.392 509.384 337.496 509.384ZM363.08 494.984C361.448 492.84 359.352 491.768 356.792 491.768C354.264 491.768 351.896 492.632 349.688 494.36C349.304 493.464 348.728 492.856 347.96 492.536C347.192 492.248 346.184 492.104 344.936 492.104H344.552C343.464 492.136 342.584 492.296 341.912 492.584C341.144 492.872 340.568 493.464 340.184 494.36C337.976 492.632 335.608 491.768 333.08 491.768C330.52 491.768 328.424 492.84 326.792 494.984C325.16 497.128 324.344 500.04 324.344 503.72C324.344 507.304 325.176 510.136 326.84 512.216C328.504 514.264 330.6 515.288 333.128 515.288C335.56 515.288 337.736 514.744 339.656 513.656V517.784C339.656 519.128 339.768 520.264 339.992 521.192C340.216 522.184 340.552 522.952 341 523.496C341.736 524.392 342.856 524.888 344.36 524.984H344.696H344.936C346.696 524.984 348.024 524.424 348.92 523.304C349.784 522.216 350.216 520.376 350.216 517.784V513.656C352.136 514.744 354.312 515.288 356.744 515.288C359.272 515.288 361.368 514.248 363.032 512.168C364.696 510.12 365.528 507.304 365.528 503.72C365.528 500.04 364.712 497.128 363.08 494.984ZM384.907 503.624C384.907 501.96 384.699 500.504 384.283 499.256C383.867 497.976 383.259 497.336 382.459 497.336C381.915 497.336 381.435 497.656 381.019 498.296C380.603 498.936 380.299 499.72 380.107 500.648C379.915 501.576 379.819 502.568 379.819 503.624C379.819 505.256 380.043 506.696 380.491 507.944C380.939 509.16 381.579 509.768 382.411 509.768C383.243 509.768 383.867 509.16 384.283 507.944C384.699 506.728 384.907 505.288 384.907 503.624ZM382.411 515.336C379.915 515.336 377.659 514.888 375.643 513.992C373.659 513.096 372.059 511.752 370.843 509.96C369.659 508.168 369.067 506.072 369.067 503.672C369.067 500.024 370.315 497.128 372.811 494.984C375.307 492.84 378.507 491.768 382.411 491.768C386.315 491.768 389.499 492.84 391.963 494.984C394.427 497.128 395.659 500.024 395.659 503.672C395.659 507.288 394.395 510.136 391.867 512.216C389.371 514.296 386.219 515.336 382.411 515.336ZM423.493 493.256C422.533 492.488 421.189 492.104 419.461 492.104C417.989 492.104 416.805 492.6 415.909 493.592C415.045 494.584 414.613 495.896 414.613 497.528V500.648H409.909V497.384C409.909 495.368 409.429 493.992 408.469 493.256C407.509 492.488 406.165 492.104 404.437 492.104C402.965 492.104 401.781 492.6 400.885 493.592C400.021 494.584 399.589 495.896 399.589 497.528V509.336C399.589 511.352 399.925 512.808 400.597 513.704C401.301 514.568 402.597 515 404.485 515C406.501 515 407.909 514.632 408.709 513.896C409.509 513.128 409.909 511.784 409.909 509.864V506.456H414.613V509.336C414.613 511.352 414.949 512.808 415.621 513.704C416.325 514.568 417.621 515 419.509 515C421.525 515 422.933 514.632 423.733 513.896C424.533 513.128 424.933 511.784 424.933 509.864V497.384C424.933 495.368 424.453 493.992 423.493 493.256ZM428.879 511.736C428.879 510.648 429.327 509.768 430.223 509.096C431.119 508.424 432.399 508.088 434.063 508.088C437.551 508.088 439.295 509.304 439.295 511.736C439.295 513.112 438.847 514.072 437.951 514.616C437.087 515.128 435.791 515.384 434.063 515.384C432.559 515.384 431.311 515.096 430.319 514.52C429.359 513.944 428.879 513.016 428.879 511.736ZM428.879 495.464C428.879 494.376 429.327 493.496 430.223 492.824C431.119 492.152 432.399 491.816 434.063 491.816C437.551 491.816 439.295 493.032 439.295 495.464C439.295 496.808 438.847 497.752 437.951 498.296C437.087 498.84 435.791 499.112 434.063 499.112C433.103 499.112 432.255 499 431.519 498.776C430.783 498.552 430.159 498.168 429.647 497.624C429.135 497.048 428.879 496.328 428.879 495.464ZM172.051 568.288C170.003 568.288 168.147 568.016 166.483 567.472C164.851 566.896 163.363 566 162.019 564.784C160.707 563.568 159.683 561.904 158.947 559.792C158.243 557.68 157.891 555.2 157.891 552.352C157.891 549.28 158.243 546.656 158.947 544.48C159.651 542.304 160.659 540.608 161.971 539.392C163.283 538.176 164.755 537.296 166.387 536.752C168.019 536.208 169.907 535.936 172.051 535.936C174.131 535.936 176.003 536.256 177.667 536.896C179.331 537.504 180.787 538.448 182.035 539.728C183.315 541.008 184.291 542.72 184.963 544.864C185.667 546.976 186.019 549.472 186.019 552.352C186.019 555.232 185.667 557.728 184.963 559.84C184.259 561.92 183.251 563.568 181.939 564.784C180.659 566 179.187 566.896 177.523 567.472C175.891 568.016 174.067 568.288 172.051 568.288ZM174.643 558.64C175.219 556.88 175.507 554.784 175.507 552.352C175.507 549.888 175.203 547.712 174.595 545.824C173.987 543.936 173.139 542.992 172.051 542.992C171.283 542.992 170.611 543.472 170.035 544.432C169.491 545.392 169.091 546.576 168.835 547.984C168.579 549.36 168.451 550.816 168.451 552.352C168.451 554.72 168.755 556.8 169.363 558.592C170.003 560.384 170.899 561.28 172.051 561.28C173.203 561.28 174.067 560.4 174.643 558.64ZM210.698 543.712H200.858L200.762 546.832C204.41 546.832 207.338 547.264 209.546 548.128C212.906 549.504 214.586 552.384 214.586 556.768C214.586 560.416 213.418 563.248 211.082 565.264C208.746 567.28 205.21 568.288 200.474 568.288C196.634 568.288 193.914 567.872 192.314 567.04C190.714 566.176 189.914 564.848 189.914 563.056C189.914 559.92 191.018 558.352 193.226 558.352C193.802 558.352 194.81 558.528 196.25 558.88C197.722 559.232 198.762 559.408 199.37 559.408C200.842 559.408 201.93 559.216 202.634 558.832C203.338 558.448 203.69 557.76 203.69 556.768C203.69 554.976 200.682 554.08 194.666 554.08C193.002 554.08 191.898 553.712 191.354 552.976C190.81 552.24 190.538 550.768 190.538 548.56V539.968C190.538 538.624 190.938 537.632 191.738 536.992C192.57 536.32 194.01 535.984 196.058 535.984H209.69C211.194 535.984 212.218 536.272 212.762 536.848C213.306 537.424 213.578 538.56 213.578 540.256C213.578 541.504 213.354 542.4 212.906 542.944C212.49 543.456 211.754 543.712 210.698 543.712ZM232.285 568.288C230.237 568.288 228.381 568.016 226.717 567.472C225.085 566.896 223.597 566 222.253 564.784C220.941 563.568 219.917 561.904 219.181 559.792C218.477 557.68 218.125 555.2 218.125 552.352C218.125 549.28 218.477 546.656 219.181 544.48C219.885 542.304 220.893 540.608 222.205 539.392C223.517 538.176 224.989 537.296 226.621 536.752C228.253 536.208 230.141 535.936 232.285 535.936C234.365 535.936 236.237 536.256 237.901 536.896C239.565 537.504 241.021 538.448 242.269 539.728C243.549 541.008 244.525 542.72 245.197 544.864C245.901 546.976 246.253 549.472 246.253 552.352C246.253 555.232 245.901 557.728 245.197 559.84C244.493 561.92 243.485 563.568 242.173 564.784C240.893 566 239.421 566.896 237.757 567.472C236.125 568.016 234.301 568.288 232.285 568.288ZM234.877 558.64C235.453 556.88 235.741 554.784 235.741 552.352C235.741 549.888 235.437 547.712 234.829 545.824C234.221 543.936 233.373 542.992 232.285 542.992C231.517 542.992 230.845 543.472 230.269 544.432C229.725 545.392 229.325 546.576 229.069 547.984C228.813 549.36 228.685 550.816 228.685 552.352C228.685 554.72 228.989 556.8 229.597 558.592C230.237 560.384 231.133 561.28 232.285 561.28C233.437 561.28 234.301 560.4 234.877 558.64ZM276.91 568.288C274.862 568.288 273.006 568.016 271.342 567.472C269.71 566.896 268.222 566 266.878 564.784C265.566 563.568 264.542 561.904 263.806 559.792C263.102 557.68 262.75 555.2 262.75 552.352C262.75 549.28 263.102 546.656 263.806 544.48C264.51 542.304 265.518 540.608 266.83 539.392C268.142 538.176 269.614 537.296 271.246 536.752C272.878 536.208 274.766 535.936 276.91 535.936C278.99 535.936 280.862 536.256 282.526 536.896C284.19 537.504 285.646 538.448 286.894 539.728C288.174 541.008 289.15 542.72 289.822 544.864C290.526 546.976 290.878 549.472 290.878 552.352C290.878 555.232 290.526 557.728 289.822 559.84C289.118 561.92 288.11 563.568 286.798 564.784C285.518 566 284.046 566.896 282.382 567.472C280.75 568.016 278.926 568.288 276.91 568.288ZM279.502 558.64C280.078 556.88 280.366 554.784 280.366 552.352C280.366 549.888 280.062 547.712 279.454 545.824C278.846 543.936 277.998 542.992 276.91 542.992C276.142 542.992 275.47 543.472 274.894 544.432C274.35 545.392 273.95 546.576 273.694 547.984C273.438 549.36 273.31 550.816 273.31 552.352C273.31 554.72 273.614 556.8 274.222 558.592C274.862 560.384 275.758 561.28 276.91 561.28C278.062 561.28 278.926 560.4 279.502 558.64ZM314.646 567.952C312.758 567.952 311.382 567.44 310.518 566.416C309.654 565.36 309.222 563.536 309.222 560.944H300.342C298.262 560.944 296.71 560.448 295.686 559.456C294.694 558.464 294.198 557.184 294.198 555.616C294.198 553.92 294.63 552.416 295.494 551.104C297.766 547.552 300.326 543.712 303.174 539.584C304.838 537.152 307.126 535.936 310.038 535.936L314.214 535.984C316.55 535.984 318.134 536.384 318.966 537.184C319.798 537.952 320.214 539.312 320.214 541.264V553.936C321.59 554.064 322.534 554.4 323.046 554.944C323.558 555.488 323.814 556.352 323.814 557.536C323.814 558.752 323.542 559.6 322.998 560.08C322.454 560.528 321.526 560.8 320.214 560.896C320.214 563.424 319.75 565.232 318.822 566.32C317.894 567.408 316.502 567.952 314.646 567.952ZM309.174 554.128L309.318 543.904L302.886 554.128H309.174ZM341.223 568.288C339.175 568.288 337.319 568.016 335.655 567.472C334.023 566.896 332.535 566 331.191 564.784C329.879 563.568 328.855 561.904 328.119 559.792C327.415 557.68 327.063 555.2 327.063 552.352C327.063 549.28 327.415 546.656 328.119 544.48C328.823 542.304 329.831 540.608 331.143 539.392C332.455 538.176 333.927 537.296 335.559 536.752C337.191 536.208 339.079 535.936 341.223 535.936C343.303 535.936 345.175 536.256 346.839 536.896C348.503 537.504 349.959 538.448 351.207 539.728C352.487 541.008 353.463 542.72 354.135 544.864C354.839 546.976 355.191 549.472 355.191 552.352C355.191 555.232 354.839 557.728 354.135 559.84C353.431 561.92 352.423 563.568 351.111 564.784C349.831 566 348.359 566.896 346.695 567.472C345.063 568.016 343.239 568.288 341.223 568.288ZM343.815 558.64C344.391 556.88 344.679 554.784 344.679 552.352C344.679 549.888 344.375 547.712 343.767 545.824C343.159 543.936 342.311 542.992 341.223 542.992C340.455 542.992 339.783 543.472 339.207 544.432C338.663 545.392 338.263 546.576 338.007 547.984C337.751 549.36 337.623 550.816 337.623 552.352C337.623 554.72 337.927 556.8 338.535 558.592C339.175 560.384 340.071 561.28 341.223 561.28C342.375 561.28 343.239 560.4 343.815 558.64ZM391.896 567.952C390.008 567.952 388.632 567.44 387.768 566.416C386.904 565.36 386.472 563.536 386.472 560.944H377.592C375.512 560.944 373.96 560.448 372.936 559.456C371.944 558.464 371.448 557.184 371.448 555.616C371.448 553.92 371.88 552.416 372.744 551.104C375.016 547.552 377.576 543.712 380.424 539.584C382.088 537.152 384.376 535.936 387.288 535.936L391.464 535.984C393.8 535.984 395.384 536.384 396.216 537.184C397.048 537.952 397.464 539.312 397.464 541.264V553.936C398.84 554.064 399.784 554.4 400.296 554.944C400.808 555.488 401.064 556.352 401.064 557.536C401.064 558.752 400.792 559.6 400.248 560.08C399.704 560.528 398.776 560.8 397.464 560.896C397.464 563.424 397 565.232 396.072 566.32C395.144 567.408 393.752 567.952 391.896 567.952ZM386.424 554.128L386.568 543.904L380.136 554.128H386.424ZM405.707 562.912C405.707 561.248 405.963 559.456 406.475 557.536C407.019 555.616 407.659 553.872 408.395 552.304C409.163 550.736 409.931 549.296 410.699 547.984C411.467 546.64 412.107 545.6 412.619 544.864L413.435 543.712H406.811C404.923 543.712 403.627 543.424 402.923 542.848C402.251 542.272 401.915 541.296 401.915 539.92C401.915 538.288 402.299 537.232 403.067 536.752C403.867 536.24 405.259 535.984 407.243 535.984L421.451 535.936C423.723 535.936 425.307 536.24 426.203 536.848C427.131 537.456 427.595 538.72 427.595 540.64C427.595 540.832 427.579 541.024 427.547 541.216C427.547 541.408 427.515 541.6 427.451 541.792C427.387 541.952 427.339 542.096 427.307 542.224C427.275 542.352 427.195 542.512 427.067 542.704C426.971 542.864 426.891 542.992 426.827 543.088C426.795 543.184 426.683 543.328 426.491 543.52C426.331 543.712 426.219 543.856 426.155 543.952C426.091 544.016 425.947 544.176 425.723 544.432C425.499 544.688 425.339 544.864 425.243 544.96C422.523 547.968 420.555 550.864 419.339 553.648C418.123 556.432 417.243 559.408 416.699 562.576C416.315 564.88 415.771 566.352 415.067 566.992C414.363 567.632 413.051 567.952 411.131 567.952C409.371 567.952 408.027 567.52 407.099 566.656C406.171 565.76 405.707 564.512 405.707 562.912ZM439.527 548.56C441.191 548.048 442.807 547.792 444.375 547.792C446.391 547.792 448.199 548.192 449.799 548.992C451.399 549.76 452.647 550.848 453.543 552.256C454.471 553.632 454.935 555.2 454.935 556.96C454.935 559.328 454.423 561.392 453.399 563.152C452.407 564.88 451.015 566.208 449.223 567.136C447.463 568.032 445.415 568.48 443.079 568.48C441.255 568.48 439.591 568.272 438.087 567.856C436.615 567.408 435.367 566.8 434.343 566.032C433.351 565.264 432.487 564.4 431.751 563.44C431.047 562.48 430.503 561.408 430.119 560.224C429.735 559.008 429.447 557.824 429.255 556.672C429.095 555.52 429.015 554.336 429.015 553.12C429.015 550.496 429.319 548.144 429.927 546.064C430.535 543.984 431.479 542.144 432.759 540.544C434.039 538.944 435.751 537.712 437.895 536.848C440.071 535.952 442.631 535.504 445.575 535.504C448.135 535.504 450.295 536.064 452.055 537.184C453.815 538.272 454.695 539.68 454.695 541.408C454.695 542.496 454.343 543.472 453.639 544.336C452.967 545.168 452.055 545.584 450.903 545.584C450.359 545.584 449.495 545.328 448.311 544.816C447.159 544.304 446.119 544.048 445.191 544.048C443.847 544.048 442.631 544.48 441.543 545.344C440.455 546.208 439.783 547.28 439.527 548.56ZM445.095 557.68C445.095 556.304 444.887 555.104 444.471 554.08C444.055 553.024 443.463 552.496 442.695 552.496C441.895 552.496 441.255 553.024 440.775 554.08C440.327 555.136 440.103 556.336 440.103 557.68C440.103 558.96 440.327 560.096 440.775 561.088C441.223 562.048 441.847 562.528 442.647 562.528C443.479 562.528 444.087 562.048 444.471 561.088C444.887 560.128 445.095 558.992 445.095 557.68ZM468.73 548.56C470.394 548.048 472.01 547.792 473.578 547.792C475.594 547.792 477.402 548.192 479.002 548.992C480.602 549.76 481.85 550.848 482.746 552.256C483.674 553.632 484.138 555.2 484.138 556.96C484.138 559.328 483.626 561.392 482.602 563.152C481.61 564.88 480.218 566.208 478.426 567.136C476.666 568.032 474.618 568.48 472.282 568.48C470.458 568.48 468.794 568.272 467.29 567.856C465.818 567.408 464.57 566.8 463.546 566.032C462.554 565.264 461.69 564.4 460.954 563.44C460.25 562.48 459.706 561.408 459.322 560.224C458.938 559.008 458.65 557.824 458.458 556.672C458.298 555.52 458.218 554.336 458.218 553.12C458.218 550.496 458.522 548.144 459.13 546.064C459.738 543.984 460.682 542.144 461.962 540.544C463.242 538.944 464.954 537.712 467.098 536.848C469.274 535.952 471.834 535.504 474.778 535.504C477.338 535.504 479.498 536.064 481.258 537.184C483.018 538.272 483.898 539.68 483.898 541.408C483.898 542.496 483.546 543.472 482.842 544.336C482.17 545.168 481.258 545.584 480.106 545.584C479.562 545.584 478.698 545.328 477.514 544.816C476.362 544.304 475.322 544.048 474.394 544.048C473.05 544.048 471.834 544.48 470.746 545.344C469.658 546.208 468.986 547.28 468.73 548.56ZM474.298 557.68C474.298 556.304 474.09 555.104 473.674 554.08C473.258 553.024 472.666 552.496 471.898 552.496C471.098 552.496 470.458 553.024 469.978 554.08C469.53 555.136 469.306 556.336 469.306 557.68C469.306 558.96 469.53 560.096 469.978 561.088C470.426 562.048 471.05 562.528 471.85 562.528C472.682 562.528 473.29 562.048 473.674 561.088C474.09 560.128 474.298 558.992 474.298 557.68Z" fill="#2B1F19"/>
<path d="M233.412 231.496C233.412 230.312 233.3 229.384 233.076 228.712C232.852 228.008 232.452 227.48 231.876 227.128C231.332 226.776 230.724 226.552 230.052 226.456C229.412 226.328 228.516 226.264 227.364 226.264V236.824C228.26 236.824 229.044 236.744 229.716 236.584C230.42 236.424 231.06 236.152 231.636 235.768C232.212 235.384 232.644 234.84 232.932 234.136C233.252 233.4 233.412 232.52 233.412 231.496ZM227.364 245.8C227.364 248.392 226.884 250.248 225.924 251.368C224.964 252.456 223.492 253 221.508 253C219.524 253 218.068 252.504 217.14 251.512C216.212 250.488 215.748 248.696 215.748 246.136V225.88C215.748 223.928 216.276 222.488 217.332 221.56C218.388 220.6 219.78 220.12 221.508 220.12H230.052C232.132 220.12 234.052 220.408 235.812 220.984C237.572 221.528 239.092 222.312 240.372 223.336C241.684 224.328 242.692 225.592 243.396 227.128C244.132 228.632 244.5 230.312 244.5 232.168C244.5 234.44 243.844 236.424 242.532 238.12C241.22 239.784 239.492 241.032 237.348 241.864C235.204 242.696 232.788 243.112 230.1 243.112H227.364V245.8ZM264.142 241.624C264.142 239.96 263.934 238.504 263.518 237.256C263.102 235.976 262.494 235.336 261.694 235.336C261.15 235.336 260.67 235.656 260.254 236.296C259.838 236.936 259.534 237.72 259.342 238.648C259.15 239.576 259.054 240.568 259.054 241.624C259.054 243.256 259.278 244.696 259.726 245.944C260.174 247.16 260.814 247.768 261.646 247.768C262.478 247.768 263.102 247.16 263.518 245.944C263.934 244.728 264.142 243.288 264.142 241.624ZM261.646 253.336C259.15 253.336 256.894 252.888 254.878 251.992C252.894 251.096 251.294 249.752 250.078 247.96C248.894 246.168 248.302 244.072 248.302 241.672C248.302 238.024 249.55 235.128 252.046 232.984C254.542 230.84 257.742 229.768 261.646 229.768C265.55 229.768 268.734 230.84 271.198 232.984C273.662 235.128 274.894 238.024 274.894 241.672C274.894 245.288 273.63 248.136 271.102 250.216C268.606 252.296 265.454 253.336 261.646 253.336ZM288.471 237.64C288.471 237.96 288.439 238.184 288.375 238.312C288.279 238.472 287.943 238.616 287.367 238.744C286.791 238.872 285.895 238.936 284.679 238.936C282.855 238.936 281.943 239.624 281.943 241C281.943 241.928 282.215 242.568 282.759 242.92C283.303 243.24 284.231 243.4 285.543 243.4C286.183 243.4 286.727 243.432 287.175 243.496C287.591 243.528 287.927 243.608 288.183 243.736C288.439 243.896 288.615 244.072 288.711 244.264C288.807 244.456 288.855 244.696 288.855 244.984C288.855 245.88 287.639 246.328 285.207 246.328C284.759 246.328 284.119 246.296 283.287 246.232C282.423 246.136 281.783 246.088 281.367 246.088C280.567 246.088 279.943 246.296 279.495 246.712C279.047 247.096 278.823 247.864 278.823 249.016C278.823 250.36 279.527 251.368 280.935 252.04C282.311 252.68 284.615 253 287.847 253C290.439 253 292.503 252.392 294.039 251.176C295.575 249.96 296.343 248.376 296.343 246.424C296.343 245.464 296.215 244.664 295.959 244.024C295.703 243.352 295.335 242.808 294.855 242.392C294.375 241.944 293.687 241.48 292.791 241C294.711 239.688 295.671 237.912 295.671 235.672C295.671 234.104 294.919 232.824 293.415 231.832C291.943 230.84 289.703 230.344 286.695 230.344C282.023 230.344 279.687 231.336 279.687 233.32C279.687 235.272 280.487 236.248 282.087 236.248C282.407 236.248 282.935 236.216 283.671 236.152C284.407 236.056 284.983 236.008 285.399 236.008C287.447 236.008 288.471 236.552 288.471 237.64ZM323.085 243.064C321.933 242.136 320.605 241.672 319.101 241.672C320.573 241.672 321.901 241.128 323.085 240.04C324.269 238.952 324.861 237.416 324.861 235.432C324.861 233.544 324.509 232.248 323.805 231.544C323.133 230.808 321.805 230.44 319.821 230.44C317.933 230.44 316.589 230.776 315.789 231.448C315.021 232.12 314.637 233.208 314.637 234.712C314.637 235.736 314.509 236.408 314.253 236.728C313.965 237.08 313.437 237.256 312.669 237.256C311.837 237.256 311.229 237.08 310.845 236.728C310.717 234.808 310.413 233.384 309.933 232.456C309.261 231.112 307.933 230.44 305.949 230.44C304.797 230.504 303.853 230.712 303.117 231.064C302.413 231.416 301.837 232.024 301.389 232.888C300.941 233.72 300.717 234.808 300.717 236.152V246.136C300.717 248.696 301.133 250.488 301.965 251.512C302.829 252.504 304.157 253 305.949 253C307.549 253 308.829 252.28 309.789 250.84C310.749 249.4 311.229 247.848 311.229 246.184H312.957C313.405 246.184 313.741 246.232 313.965 246.328C314.157 246.456 314.317 246.712 314.445 247.096C314.573 247.448 314.637 247.992 314.637 248.728C314.637 250.2 315.021 251.288 315.789 251.992C316.589 252.664 317.933 253 319.821 253C321.869 253 323.229 252.632 323.901 251.896C324.541 251.16 324.861 249.576 324.861 247.144C324.861 245.32 324.269 243.96 323.085 243.064ZM341.229 237.304C341.581 237.304 341.885 237.336 342.141 237.4C342.365 237.464 342.541 237.592 342.669 237.784C342.829 237.944 342.957 238.104 343.053 238.264C343.149 238.424 343.213 238.68 343.245 239.032C343.277 239.384 343.293 239.672 343.293 239.896V241.048L343.341 248.728C343.341 250.2 343.757 251.288 344.589 251.992C345.421 252.664 346.829 253 348.813 253C350.221 253 351.277 252.712 351.981 252.136C352.653 251.528 353.133 250.472 353.421 248.968C353.709 247.432 353.853 245.096 353.853 241.96C353.853 240.232 353.581 238.68 353.037 237.304C352.493 235.928 351.789 234.808 350.925 233.944C350.061 233.048 349.069 232.296 347.949 231.688C346.797 231.112 345.661 230.696 344.541 230.44C343.421 230.216 342.301 230.104 341.181 230.104C340.029 230.104 338.893 230.216 337.773 230.44C336.653 230.696 335.533 231.112 334.413 231.688C333.293 232.296 332.317 233.048 331.485 233.944C330.621 234.808 329.917 235.928 329.373 237.304C328.829 238.68 328.557 240.232 328.557 241.96C328.557 243.848 328.605 245.4 328.701 246.616C328.797 247.864 328.941 248.92 329.133 249.784C329.325 250.68 329.629 251.336 330.045 251.752C330.461 252.2 330.941 252.52 331.485 252.712C332.029 252.904 332.733 253 333.597 253C334.941 253 336.013 252.84 336.813 252.52C337.613 252.2 338.189 251.736 338.541 251.128C338.861 250.52 339.021 249.72 339.021 248.728L339.069 241C339.069 239.592 339.197 238.632 339.453 238.12C339.709 237.576 340.301 237.304 341.229 237.304ZM366.777 253.288C364.249 253.288 362.153 252.264 360.489 250.216C358.825 248.136 357.993 245.304 357.993 241.72C357.993 238.072 358.809 235.176 360.441 233.032C362.105 230.856 364.217 229.768 366.777 229.768C369.369 229.768 371.769 230.68 373.977 232.504C374.841 230.904 376.233 230.104 378.153 230.104C379.881 230.104 381.225 230.488 382.185 231.256C383.145 231.992 383.625 233.368 383.625 235.384V247.864C383.625 249.784 383.225 251.128 382.425 251.896C381.625 252.632 380.217 253 378.201 253C376.089 253 374.697 252.408 374.025 251.224C371.977 252.6 369.561 253.288 366.777 253.288ZM373.305 237.112C372.761 236.184 372.057 235.72 371.193 235.72C370.361 235.72 369.689 236.328 369.177 237.544C368.665 238.76 368.409 240.152 368.409 241.72C368.409 243.192 368.649 244.504 369.129 245.656C369.609 246.808 370.281 247.384 371.145 247.384C372.041 247.384 372.761 246.952 373.305 246.088V237.112ZM396.874 253.288C394.346 253.288 392.25 252.264 390.586 250.216C388.922 248.136 388.09 245.288 388.09 241.672C388.09 238.024 388.906 235.128 390.538 232.984C392.17 230.84 394.266 229.768 396.826 229.768C399.418 229.768 401.818 230.664 404.026 232.456C404.858 230.888 406.234 230.104 408.154 230.104C409.882 230.104 411.226 230.488 412.186 231.256C413.178 232.024 413.674 233.4 413.674 235.384V244.168C413.674 247.272 413.466 249.944 413.05 252.184C412.666 254.392 411.978 256.344 410.986 258.04C410.026 259.736 408.682 261 406.954 261.832C405.258 262.664 403.162 263.08 400.666 263.08C398.938 263.08 397.338 262.84 395.866 262.36C394.394 261.88 393.226 261.288 392.362 260.584C391.498 259.88 390.826 259.176 390.346 258.472C389.866 257.768 389.626 257.16 389.626 256.648C389.626 256.04 389.802 255.528 390.154 255.112C390.506 254.696 391.002 254.488 391.642 254.488C392.026 254.488 392.986 254.904 394.522 255.736C396.09 256.568 397.354 256.984 398.314 256.984C401.578 256.984 403.21 255.304 403.21 251.944C401.354 252.84 399.242 253.288 396.874 253.288ZM403.402 246.088L403.354 237.016C402.81 236.12 402.122 235.672 401.29 235.672C400.714 235.672 400.202 235.976 399.754 236.584C399.338 237.192 399.018 237.944 398.794 238.84C398.602 239.736 398.506 240.68 398.506 241.672C398.506 243.176 398.746 244.504 399.226 245.656C399.706 246.776 400.378 247.336 401.242 247.336C402.106 247.336 402.826 246.92 403.402 246.088ZM417.707 249.736C417.707 248.648 418.155 247.768 419.051 247.096C419.947 246.424 421.227 246.088 422.891 246.088C426.379 246.088 428.123 247.304 428.123 249.736C428.123 251.112 427.675 252.072 426.779 252.616C425.915 253.128 424.619 253.384 422.891 253.384C421.387 253.384 420.139 253.096 419.147 252.52C418.187 251.944 417.707 251.016 417.707 249.736ZM417.707 233.464C417.707 232.376 418.155 231.496 419.051 230.824C419.947 230.152 421.227 229.816 422.891 229.816C426.379 229.816 428.123 231.032 428.123 233.464C428.123 234.808 427.675 235.752 426.779 236.296C425.915 236.84 424.619 237.112 422.891 237.112C421.931 237.112 421.083 237 420.347 236.776C419.611 236.552 418.987 236.168 418.475 235.624C417.963 235.048 417.707 234.328 417.707 233.464ZM257.398 274.128L257.11 273.84C256.566 273.36 255.59 273.12 254.182 273.12H233.686C232.022 273.12 230.694 273.584 229.702 274.512C228.678 275.44 228.166 276.896 228.166 278.88L228.31 299.136C228.31 301.696 228.742 303.472 229.606 304.464C230.47 305.488 231.83 306 233.686 306C235.638 306 237.062 305.456 237.958 304.368C238.854 303.28 239.302 301.424 239.302 298.8V279.936H247.798V286.512L247.846 293.712L247.894 299.136C247.894 301.696 248.326 303.472 249.19 304.464C250.054 305.488 251.414 306 253.27 306C255.158 306 256.566 305.456 257.494 304.368C258.422 303.248 258.886 301.392 258.886 298.8V278.448C258.886 276.304 258.406 274.88 257.446 274.176L257.398 274.128ZM287.633 284.256C286.673 283.488 285.329 283.104 283.601 283.104C282.129 283.104 280.945 283.6 280.049 284.592C279.185 285.584 278.753 286.896 278.753 288.528V291.648H274.049V288.384C274.049 286.368 273.569 284.992 272.609 284.256C271.649 283.488 270.305 283.104 268.577 283.104C267.105 283.104 265.921 283.6 265.025 284.592C264.161 285.584 263.729 286.896 263.729 288.528V300.336C263.729 302.352 264.065 303.808 264.737 304.704C265.441 305.568 266.737 306 268.625 306C270.641 306 272.049 305.632 272.849 304.896C273.649 304.128 274.049 302.784 274.049 300.864V297.456H278.753V300.336C278.753 302.352 279.089 303.808 279.761 304.704C280.465 305.568 281.761 306 283.649 306C285.665 306 287.073 305.632 287.873 304.896C288.673 304.128 289.073 302.784 289.073 300.864V288.384C289.073 286.368 288.593 284.992 287.633 284.256ZM292.635 302.688C292.635 301.6 293.083 300.72 293.979 300.048C294.907 299.376 296.203 299.04 297.867 299.04C301.355 299.04 303.099 300.256 303.099 302.688C303.099 303.616 302.875 304.368 302.427 304.944C301.979 305.488 301.387 305.856 300.651 306.048C299.915 306.24 298.987 306.336 297.867 306.336C296.363 306.336 295.115 306.048 294.123 305.472C293.131 304.896 292.635 303.968 292.635 302.688ZM330.303 289.392C331.455 289.392 332.367 289.52 333.039 289.776C333.711 290 334.191 290.384 334.479 290.928C334.767 291.472 334.911 292.208 334.911 293.136C334.911 294.32 334.511 295.152 333.711 295.632C332.911 296.08 331.631 296.304 329.871 296.304H323.295C320.703 296.304 319.407 295.184 319.407 292.944C319.407 290.576 320.815 289.392 323.631 289.392H330.303ZM384.212 298.8C384.212 301.392 383.748 303.248 382.82 304.368C381.892 305.456 380.484 306 378.596 306C376.74 306 375.38 305.504 374.516 304.512C373.652 303.488 373.22 301.696 373.22 299.136L373.172 293.712H363.38V298.8C363.38 301.424 362.932 303.28 362.036 304.368C361.14 305.456 359.716 306 357.764 306C355.908 306 354.548 305.504 353.684 304.512C352.82 303.488 352.388 301.696 352.388 299.136L352.244 278.88C352.244 276.896 352.74 275.44 353.732 274.512C354.756 273.584 356.1 273.12 357.764 273.12C359.684 273.12 361.092 273.472 361.988 274.176C362.916 274.88 363.38 276.304 363.38 278.448V286.512H373.124V278.88C373.124 277.536 373.364 276.432 373.844 275.568C374.356 274.672 374.996 274.048 375.764 273.696C376.564 273.312 377.508 273.12 378.596 273.12C380.452 273.12 381.844 273.472 382.772 274.176C383.732 274.88 384.212 276.304 384.212 278.448V298.8ZM397.905 306.288C395.377 306.288 393.281 305.264 391.617 303.216C389.953 301.136 389.121 298.288 389.121 294.672C389.121 291.024 389.937 288.128 391.569 285.984C393.201 283.84 395.297 282.768 397.857 282.768C400.449 282.768 402.849 283.664 405.057 285.456C405.889 283.888 407.265 283.104 409.185 283.104C410.913 283.104 412.257 283.488 413.217 284.256C414.209 285.024 414.705 286.4 414.705 288.384V297.168C414.705 300.272 414.497 302.944 414.081 305.184C413.697 307.392 413.009 309.344 412.017 311.04C411.057 312.736 409.713 314 407.985 314.832C406.289 315.664 404.193 316.08 401.697 316.08C399.969 316.08 398.369 315.84 396.897 315.36C395.425 314.88 394.257 314.288 393.393 313.584C392.529 312.88 391.857 312.176 391.377 311.472C390.897 310.768 390.657 310.16 390.657 309.648C390.657 309.04 390.833 308.528 391.185 308.112C391.537 307.696 392.033 307.488 392.673 307.488C393.057 307.488 394.017 307.904 395.553 308.736C397.121 309.568 398.385 309.984 399.345 309.984C402.609 309.984 404.241 308.304 404.241 304.944C402.385 305.84 400.273 306.288 397.905 306.288ZM404.433 299.088L404.385 290.016C403.841 289.12 403.153 288.672 402.321 288.672C401.745 288.672 401.233 288.976 400.785 289.584C400.369 290.192 400.049 290.944 399.825 291.84C399.633 292.736 399.537 293.68 399.537 294.672C399.537 296.176 399.777 297.504 400.257 298.656C400.737 299.776 401.409 300.336 402.273 300.336C403.137 300.336 403.857 299.92 404.433 299.088ZM418.354 302.688C418.354 301.6 418.802 300.72 419.698 300.048C420.626 299.376 421.922 299.04 423.586 299.04C427.074 299.04 428.818 300.256 428.818 302.688C428.818 303.616 428.594 304.368 428.146 304.944C427.698 305.488 427.106 305.856 426.37 306.048C425.634 306.24 424.706 306.336 423.586 306.336C422.082 306.336 420.834 306.048 419.842 305.472C418.85 304.896 418.354 303.968 418.354 302.688ZM195.945 346.712C194.281 347.224 192.681 347.48 191.145 347.48C188.073 347.48 185.545 346.52 183.561 344.6C181.577 342.68 180.585 340.248 180.585 337.304C180.585 335.096 181.081 333.176 182.073 331.544C183.065 329.912 184.441 328.68 186.201 327.848C187.993 326.984 190.057 326.552 192.393 326.552C194.569 326.552 196.505 326.888 198.201 327.56C199.897 328.2 201.257 329.048 202.281 330.104C203.305 331.128 204.137 332.36 204.777 333.8C205.449 335.24 205.897 336.68 206.121 338.12C206.377 339.528 206.505 341.016 206.505 342.584C206.505 344.568 206.313 346.408 205.929 348.104C205.577 349.768 204.985 351.304 204.153 352.712C203.353 354.12 202.329 355.32 201.081 356.312C199.865 357.304 198.345 358.072 196.521 358.616C194.729 359.16 192.697 359.432 190.425 359.432C187.833 359.432 185.657 358.888 183.897 357.8C182.137 356.712 181.257 355.304 181.257 353.576C181.257 352.488 181.609 351.512 182.313 350.648C183.017 349.784 183.929 349.352 185.049 349.352C185.593 349.352 186.457 349.656 187.641 350.264C188.825 350.872 189.881 351.176 190.809 351.176C191.577 351.176 192.329 350.984 193.065 350.6C193.801 350.216 194.425 349.688 194.937 349.016C195.449 348.312 195.785 347.544 195.945 346.712ZM190.137 337.592C190.137 338.968 190.345 340.184 190.761 341.24C191.177 342.264 191.769 342.776 192.537 342.776C193.049 342.776 193.497 342.52 193.881 342.008C194.297 341.464 194.601 340.808 194.793 340.04C194.985 339.24 195.081 338.424 195.081 337.592C195.081 336.248 194.857 335.064 194.409 334.04C193.961 333.016 193.337 332.504 192.537 332.504C191.737 332.504 191.129 333 190.713 333.992C190.329 334.984 190.137 336.184 190.137 337.592ZM209.746 355.736C209.746 354.648 210.194 353.768 211.09 353.096C211.986 352.424 213.266 352.088 214.93 352.088C218.418 352.088 220.162 353.304 220.162 355.736C220.162 357.112 219.714 358.072 218.818 358.616C217.954 359.128 216.658 359.384 214.93 359.384C213.426 359.384 212.178 359.096 211.186 358.52C210.226 357.944 209.746 357.016 209.746 355.736ZM209.746 339.464C209.746 338.376 210.194 337.496 211.09 336.824C211.986 336.152 213.266 335.816 214.93 335.816C218.418 335.816 220.162 337.032 220.162 339.464C220.162 340.808 219.714 341.752 218.818 342.296C217.954 342.84 216.658 343.112 214.93 343.112C213.97 343.112 213.122 343 212.386 342.776C211.65 342.552 211.026 342.168 210.514 341.624C210.002 341.048 209.746 340.328 209.746 339.464ZM238.059 359.288C236.011 359.288 234.155 359.016 232.491 358.472C230.859 357.896 229.371 357 228.027 355.784C226.715 354.568 225.691 352.904 224.955 350.792C224.251 348.68 223.899 346.2 223.899 343.352C223.899 340.28 224.251 337.656 224.955 335.48C225.659 333.304 226.667 331.608 227.979 330.392C229.291 329.176 230.763 328.296 232.395 327.752C234.027 327.208 235.915 326.936 238.059 326.936C240.139 326.936 242.011 327.256 243.675 327.896C245.339 328.504 246.795 329.448 248.043 330.728C249.323 332.008 250.299 333.72 250.971 335.864C251.675 337.976 252.027 340.472 252.027 343.352C252.027 346.232 251.675 348.728 250.971 350.84C250.267 352.92 249.259 354.568 247.947 355.784C246.667 357 245.195 357.896 243.531 358.472C241.899 359.016 240.075 359.288 238.059 359.288ZM240.651 349.64C241.227 347.88 241.515 345.784 241.515 343.352C241.515 340.888 241.211 338.712 240.603 336.824C239.995 334.936 239.147 333.992 238.059 333.992C237.291 333.992 236.619 334.472 236.043 335.432C235.499 336.392 235.099 337.576 234.843 338.984C234.587 340.36 234.459 341.816 234.459 343.352C234.459 345.72 234.763 347.8 235.371 349.592C236.011 351.384 236.907 352.28 238.059 352.28C239.211 352.28 240.075 351.4 240.651 349.64ZM269.746 359.288C267.698 359.288 265.842 359.016 264.178 358.472C262.546 357.896 261.058 357 259.714 355.784C258.402 354.568 257.378 352.904 256.642 350.792C255.938 348.68 255.586 346.2 255.586 343.352C255.586 340.28 255.938 337.656 256.642 335.48C257.346 333.304 258.354 331.608 259.666 330.392C260.978 329.176 262.45 328.296 264.082 327.752C265.714 327.208 267.602 326.936 269.746 326.936C271.826 326.936 273.698 327.256 275.362 327.896C277.026 328.504 278.482 329.448 279.73 330.728C281.01 332.008 281.986 333.72 282.658 335.864C283.362 337.976 283.714 340.472 283.714 343.352C283.714 346.232 283.362 348.728 282.658 350.84C281.954 352.92 280.946 354.568 279.634 355.784C278.354 357 276.882 357.896 275.218 358.472C273.586 359.016 271.762 359.288 269.746 359.288ZM272.338 349.64C272.914 347.88 273.202 345.784 273.202 343.352C273.202 340.888 272.898 338.712 272.29 336.824C271.682 334.936 270.834 333.992 269.746 333.992C268.978 333.992 268.306 334.472 267.73 335.432C267.186 336.392 266.786 337.576 266.53 338.984C266.274 340.36 266.146 341.816 266.146 343.352C266.146 345.72 266.45 347.8 267.058 349.592C267.698 351.384 268.594 352.28 269.746 352.28C270.898 352.28 271.762 351.4 272.338 349.64ZM311.107 342.392C312.259 342.392 313.171 342.52 313.843 342.776C314.515 343 314.995 343.384 315.283 343.928C315.571 344.472 315.715 345.208 315.715 346.136C315.715 347.32 315.315 348.152 314.515 348.632C313.715 349.08 312.435 349.304 310.675 349.304H304.099C301.507 349.304 300.211 348.184 300.211 345.944C300.211 343.576 301.619 342.392 304.435 342.392H311.107ZM347.161 350.072H352.489C355.177 350.072 356.521 351.576 356.521 354.584C356.521 356.28 356.089 357.496 355.225 358.232C354.393 358.936 352.889 359.288 350.713 359.288H337.705C335.465 359.288 333.929 359 333.097 358.424C332.297 357.816 331.896 356.536 331.896 354.584C331.896 353.944 331.961 353.4 332.089 352.952C332.217 352.472 332.457 352.008 332.809 351.56C333.161 351.112 333.641 350.68 334.249 350.264C335.977 349.112 337.337 348.184 338.329 347.48C339.321 346.776 340.281 346.04 341.209 345.272C342.169 344.472 342.873 343.8 343.321 343.256C343.769 342.68 344.169 342.04 344.521 341.336C344.905 340.632 345.145 339.928 345.241 339.224C345.369 338.52 345.433 337.688 345.433 336.728C345.433 334.936 344.873 334.04 343.753 334.04C342.537 334.04 341.929 335.096 341.929 337.208C341.929 338.392 341.545 339.16 340.777 339.512C340.009 339.864 338.873 340.04 337.368 340.04C335.321 340.04 333.929 339.592 333.193 338.696C332.489 337.8 332.137 336.312 332.137 334.232C332.137 332.152 333.113 330.424 335.065 329.048C337.049 327.64 339.801 326.936 343.321 326.936C352.025 326.936 356.377 330.248 356.377 336.872C356.377 338.408 356.201 339.816 355.849 341.096C355.497 342.344 355.065 343.4 354.552 344.264C354.041 345.096 353.337 345.896 352.441 346.664C351.577 347.432 350.761 348.056 349.993 348.536C349.225 349.016 348.281 349.528 347.161 350.072ZM373.514 337.352C373.514 335.784 372.058 335 369.146 335C368.538 335 367.706 335.064 366.65 335.192C365.626 335.288 364.874 335.336 364.394 335.336C362.09 335.336 360.938 333.96 360.938 331.208C360.938 328.36 364.266 326.936 370.922 326.936C375.242 326.936 378.474 327.64 380.618 329.048C382.762 330.456 383.834 332.296 383.834 334.568C383.834 337.736 382.458 340.264 379.706 342.152C381.562 343.144 382.858 344.184 383.594 345.272C384.362 346.328 384.746 347.864 384.746 349.88C384.746 352.664 383.642 354.936 381.434 356.696C379.258 358.424 376.33 359.288 372.65 359.288C368.042 359.288 364.73 358.824 362.714 357.896C360.73 356.936 359.738 355.496 359.738 353.576C359.738 351.976 360.058 350.888 360.698 350.312C361.338 349.704 362.234 349.4 363.386 349.4C363.962 349.4 364.858 349.464 366.074 349.592C367.29 349.72 368.218 349.784 368.858 349.784C372.346 349.784 374.09 349.144 374.09 347.864C374.09 347 373.754 346.408 373.082 346.088C372.41 345.736 371.146 345.56 369.29 345.56C367.434 345.56 366.122 345.32 365.354 344.84C364.586 344.36 364.202 343.464 364.202 342.152C364.202 340.168 365.514 339.176 368.138 339.176C369.834 339.176 371.082 339.096 371.882 338.936C372.714 338.776 373.194 338.6 373.322 338.408C373.45 338.184 373.514 337.832 373.514 337.352ZM388.199 355.736C388.199 354.648 388.647 353.768 389.543 353.096C390.439 352.424 391.719 352.088 393.383 352.088C396.871 352.088 398.615 353.304 398.615 355.736C398.615 357.112 398.167 358.072 397.271 358.616C396.407 359.128 395.111 359.384 393.383 359.384C391.879 359.384 390.631 359.096 389.639 358.52C388.679 357.944 388.199 357.016 388.199 355.736ZM388.199 339.464C388.199 338.376 388.647 337.496 389.543 336.824C390.439 336.152 391.719 335.816 393.383 335.816C396.871 335.816 398.615 337.032 398.615 339.464C398.615 340.808 398.167 341.752 397.271 342.296C396.407 342.84 395.111 343.112 393.383 343.112C392.423 343.112 391.575 343 390.839 342.776C390.103 342.552 389.479 342.168 388.967 341.624C388.455 341.048 388.199 340.328 388.199 339.464ZM416.512 359.288C414.464 359.288 412.608 359.016 410.944 358.472C409.312 357.896 407.824 357 406.48 355.784C405.168 354.568 404.144 352.904 403.408 350.792C402.704 348.68 402.352 346.2 402.352 343.352C402.352 340.28 402.704 337.656 403.408 335.48C404.112 333.304 405.12 331.608 406.432 330.392C407.744 329.176 409.216 328.296 410.848 327.752C412.48 327.208 414.368 326.936 416.512 326.936C418.592 326.936 420.464 327.256 422.128 327.896C423.792 328.504 425.248 329.448 426.496 330.728C427.776 332.008 428.752 333.72 429.424 335.864C430.128 337.976 430.48 340.472 430.48 343.352C430.48 346.232 430.128 348.728 429.424 350.84C428.72 352.92 427.712 354.568 426.4 355.784C425.12 357 423.648 357.896 421.984 358.472C420.352 359.016 418.528 359.288 416.512 359.288ZM419.104 349.64C419.68 347.88 419.968 345.784 419.968 343.352C419.968 340.888 419.664 338.712 419.056 336.824C418.448 334.936 417.6 333.992 416.512 333.992C415.744 333.992 415.072 334.472 414.496 335.432C413.952 336.392 413.552 337.576 413.296 338.984C413.04 340.36 412.912 341.816 412.912 343.352C412.912 345.72 413.216 347.8 413.824 349.592C414.464 351.384 415.36 352.28 416.512 352.28C417.664 352.28 418.528 351.4 419.104 349.64ZM448.199 359.288C446.151 359.288 444.295 359.016 442.631 358.472C440.999 357.896 439.511 357 438.167 355.784C436.855 354.568 435.831 352.904 435.095 350.792C434.391 348.68 434.039 346.2 434.039 343.352C434.039 340.28 434.391 337.656 435.095 335.48C435.799 333.304 436.807 331.608 438.119 330.392C439.431 329.176 440.903 328.296 442.535 327.752C444.167 327.208 446.055 326.936 448.199 326.936C450.279 326.936 452.151 327.256 453.815 327.896C455.479 328.504 456.935 329.448 458.183 330.728C459.463 332.008 460.439 333.72 461.111 335.864C461.815 337.976 462.167 340.472 462.167 343.352C462.167 346.232 461.815 348.728 461.111 350.84C460.407 352.92 459.399 354.568 458.087 355.784C456.807 357 455.335 357.896 453.671 358.472C452.039 359.016 450.215 359.288 448.199 359.288ZM450.791 349.64C451.367 347.88 451.655 345.784 451.655 343.352C451.655 340.888 451.351 338.712 450.743 336.824C450.135 334.936 449.287 333.992 448.199 333.992C447.431 333.992 446.759 334.472 446.183 335.432C445.639 336.392 445.239 337.576 444.983 338.984C444.727 340.36 444.599 341.816 444.599 343.352C444.599 345.72 444.903 347.8 445.511 349.592C446.151 351.384 447.047 352.28 448.199 352.28C449.351 352.28 450.215 351.4 450.791 349.64Z" fill="#2B1F19"/>
</svg>
