<svg width="586" height="80" viewBox="0 0 586 80" fill="none" xmlns="http://www.w3.org/2000/svg">
<path d="M134.272 32.192C134.272 31.296 133.888 30.528 133.12 29.888C132.395 29.248 131.52 28.928 130.496 28.928C128.448 28.928 126.763 30.1013 125.44 32.448C124.117 34.752 123.456 37.376 123.456 40.32C123.456 42.5813 123.883 44.6293 124.736 46.464C125.589 48.256 126.827 49.6853 128.448 50.752C130.069 51.8187 131.947 52.352 134.08 52.352C135.659 52.352 137.173 52.0533 138.624 51.456C140.075 50.816 141.248 50.1333 142.144 49.408C143.04 48.64 143.957 47.9573 144.896 47.36C145.877 46.72 146.731 46.4 147.456 46.4C148.395 46.4 149.205 46.784 149.888 47.552C150.571 48.2773 150.912 49.0453 150.912 49.856C150.912 50.752 150.635 51.7973 150.08 52.992C149.568 54.1867 148.736 55.4667 147.584 56.832C146.432 58.1547 145.088 59.392 143.552 60.544C142.016 61.6533 140.096 62.592 137.792 63.36C135.531 64.0853 133.141 64.448 130.624 64.448C127.296 64.448 124.203 63.9573 121.344 62.976C118.528 61.952 116.075 60.5227 113.984 58.688C111.893 56.8107 110.251 54.464 109.056 51.648C107.861 48.832 107.264 45.6747 107.264 42.176C107.264 35.264 109.333 29.8027 113.472 25.792C117.611 21.7813 123.029 19.776 129.728 19.776C133.141 19.776 136.299 20.352 139.2 21.504C142.101 22.656 144.405 24.256 146.112 26.304C147.819 28.352 148.672 30.592 148.672 33.024C148.672 35.84 147.733 38.4 145.856 40.704C143.979 42.9653 141.547 44.096 138.56 44.096C136.853 44.096 135.317 43.6267 133.952 42.688C132.587 41.7493 131.904 40.4053 131.904 38.656C131.904 37.8453 132.288 36.7147 133.056 35.264C133.867 33.8133 134.272 32.7893 134.272 32.192ZM171.085 50.496C171.085 52.928 172.024 54.144 173.901 54.144C174.541 54.144 175.096 53.952 175.565 53.568C176.077 53.1413 176.461 52.5653 176.717 51.84C176.973 51.1147 177.101 50.2827 177.101 49.344V40.768C177.101 39.3173 177.357 38.0587 177.869 36.992C178.381 35.8827 179.128 35.0293 180.109 34.432C181.09 33.8347 182.242 33.536 183.565 33.536C185.869 33.536 187.661 34.048 188.941 35.072C190.221 36.0533 190.861 37.888 190.861 40.576V57.216C190.861 59.8187 190.328 61.6107 189.261 62.592C188.194 63.5733 186.317 64.064 183.629 64.064C182.477 64.064 181.496 63.9573 180.685 63.744C179.874 63.488 179.213 63.1253 178.701 62.656C178.232 62.1867 177.869 61.568 177.613 60.8C175.864 61.952 174.008 62.7627 172.045 63.232C170.125 63.7013 167.97 63.936 165.581 63.936C162.552 63.936 160.376 62.7627 159.053 60.416C157.73 58.0267 157.069 54.1227 157.069 48.704C157.069 46.016 157.133 43.84 157.261 42.176C157.389 40.4693 157.581 39.0187 157.837 37.824C158.136 36.5867 158.562 35.6693 159.117 35.072C159.714 34.4747 160.397 34.048 161.165 33.792C161.976 33.536 163.021 33.408 164.301 33.408C166.69 33.408 168.397 33.856 169.421 34.752C170.488 35.648 171.021 36.992 171.021 38.784L171.085 50.496ZM235.021 47.104C235.021 44.7147 234.061 43.52 232.141 43.52C231.288 43.52 230.648 44.0107 230.221 44.992C229.794 45.9733 229.581 47.2107 229.581 48.704C229.581 50.9653 229.538 52.8427 229.453 54.336C229.41 55.8293 229.282 57.1733 229.069 58.368C228.856 59.5627 228.6 60.5013 228.301 61.184C228.002 61.8667 227.597 62.4427 227.085 62.912C226.573 63.3387 225.997 63.6373 225.357 63.808C224.717 63.936 223.906 64 222.925 64C221.432 64 220.216 63.7867 219.277 63.36C218.381 62.9333 217.741 62.336 217.357 61.568C216.973 60.8 216.781 59.84 216.781 58.688V47.104C216.781 44.7147 215.821 43.52 213.901 43.52C213.133 43.52 212.493 43.968 211.981 44.864C211.512 45.7173 211.277 46.848 211.277 48.256V57.152C211.277 59.712 210.744 61.504 209.677 62.528C208.61 63.5093 206.733 64 204.045 64C201.528 64 199.8 63.424 198.861 62.272C197.965 61.0773 197.517 59.136 197.517 56.448V40.704C197.517 38.528 198.093 36.7787 199.245 35.456C200.44 34.1333 202.018 33.472 203.981 33.472C207.48 33.472 209.698 34.6027 210.637 36.864C212.258 35.6693 213.837 34.8373 215.373 34.368C216.952 33.8987 218.786 33.664 220.877 33.664C224.034 33.664 226.317 35.0293 227.725 37.76C227.938 37.5893 228.152 37.4187 228.365 37.248C231.65 34.8587 235.682 33.664 240.461 33.664C243.49 33.664 245.666 34.816 246.989 37.12C248.312 39.424 248.973 43.2853 248.973 48.704C248.973 50.9653 248.93 52.8427 248.845 54.336C248.802 55.8293 248.674 57.1733 248.461 58.368C248.248 59.5627 247.97 60.5013 247.629 61.184C247.33 61.8667 246.882 62.4427 246.285 62.912C245.73 63.3387 245.09 63.6373 244.365 63.808C243.682 63.936 242.808 64 241.741 64C240.12 64 238.797 63.7867 237.773 63.36C236.792 62.9333 236.088 62.336 235.661 61.568C235.234 60.8 235.021 59.84 235.021 58.688V47.104ZM269.023 50.496C269.023 52.928 269.961 54.144 271.839 54.144C272.479 54.144 273.033 53.952 273.503 53.568C274.015 53.1413 274.399 52.5653 274.655 51.84C274.911 51.1147 275.039 50.2827 275.039 49.344V40.768C275.039 39.3173 275.295 38.0587 275.807 36.992C276.319 35.8827 277.065 35.0293 278.047 34.432C279.028 33.8347 280.18 33.536 281.503 33.536C283.807 33.536 285.599 34.048 286.879 35.072C288.159 36.0533 288.799 37.888 288.799 40.576V57.216C288.799 59.8187 288.265 61.6107 287.199 62.592C286.132 63.5733 284.255 64.064 281.567 64.064C280.415 64.064 279.433 63.9573 278.623 63.744C277.812 63.488 277.151 63.1253 276.639 62.656C276.169 62.1867 275.807 61.568 275.551 60.8C273.801 61.952 271.945 62.7627 269.983 63.232C268.063 63.7013 265.908 63.936 263.519 63.936C260.489 63.936 258.313 62.7627 256.991 60.416C255.668 58.0267 255.007 54.1227 255.007 48.704C255.007 46.016 255.071 43.84 255.199 42.176C255.327 40.4693 255.519 39.0187 255.775 37.824C256.073 36.5867 256.5 35.6693 257.055 35.072C257.652 34.4747 258.335 34.048 259.103 33.792C259.913 33.536 260.959 33.408 262.239 33.408C264.628 33.408 266.335 33.856 267.359 34.752C268.425 35.648 268.959 36.992 268.959 38.784L269.023 50.496ZM309.023 50.496C309.023 52.928 309.961 54.144 311.839 54.144C312.777 54.144 313.545 53.696 314.143 52.8C314.74 51.904 315.039 50.752 315.039 49.344V40.768C315.039 39.7013 315.188 38.72 315.487 37.824C315.785 36.928 316.212 36.16 316.767 35.52C317.321 34.88 318.004 34.3893 318.815 34.048C319.625 33.7067 320.521 33.536 321.503 33.536C323.807 33.536 325.599 34.048 326.879 35.072C328.159 36.0533 328.799 37.888 328.799 40.576V57.216C328.799 59.8187 328.265 61.6107 327.199 62.592C326.132 63.5733 324.255 64.064 321.567 64.064C318.324 64.064 316.319 62.976 315.551 60.8C312.308 62.8907 308.297 63.936 303.519 63.936C300.489 63.936 298.313 62.7627 296.991 60.416C295.668 58.0267 295.007 54.1227 295.007 48.704C295.007 46.016 295.071 43.84 295.199 42.176C295.327 40.4693 295.519 39.0187 295.775 37.824C296.073 36.5867 296.5 35.6693 297.055 35.072C297.652 34.4747 298.335 34.048 299.103 33.792C299.913 33.536 300.959 33.408 302.239 33.408C304.628 33.408 306.335 33.856 307.359 34.752C308.425 35.648 308.959 36.992 308.959 38.784L309.023 50.496ZM312.031 22.848C313.439 22.848 314.143 21.8453 314.143 19.84C314.143 17.792 315.679 16.768 318.751 16.768C322.207 16.768 323.935 18.176 323.935 20.992C323.935 27.2213 319.967 30.336 312.031 30.336C308.276 30.336 305.353 29.632 303.263 28.224C301.172 26.816 300.127 24.4053 300.127 20.992C300.127 18.176 301.855 16.768 305.311 16.768C308.383 16.768 309.919 17.792 309.919 19.84C309.919 20.864 310.068 21.632 310.367 22.144C310.665 22.6133 311.22 22.848 312.031 22.848ZM387.487 21.504L387.103 21.12C386.377 20.48 385.076 20.16 383.199 20.16H355.871C353.652 20.16 351.881 20.7787 350.559 22.016C349.193 23.2533 348.511 25.1947 348.511 27.84L348.703 54.848C348.703 58.2613 349.279 60.6293 350.431 61.952C351.583 63.3173 353.396 64 355.871 64C358.473 64 360.372 63.2747 361.567 61.824C362.761 60.3733 363.359 57.8987 363.359 54.4V29.248H374.687V38.016L374.751 47.616L374.815 54.848C374.815 58.2613 375.391 60.6293 376.543 61.952C377.695 63.3173 379.508 64 381.983 64C384.5 64 386.377 63.2747 387.615 61.824C388.852 60.3307 389.471 57.856 389.471 54.4V27.264C389.471 24.4053 388.831 22.5067 387.551 21.568L387.487 21.504ZM407.513 64.384C404.142 64.384 401.347 63.0187 399.129 60.288C396.91 57.5147 395.801 53.7387 395.801 48.96C395.801 44.096 396.889 40.2347 399.065 37.376C401.283 34.4747 404.099 33.024 407.513 33.024C410.969 33.024 414.169 34.24 417.113 36.672C418.265 34.5387 420.121 33.472 422.681 33.472C424.985 33.472 426.777 33.984 428.057 35.008C429.337 35.9893 429.977 37.824 429.977 40.512V57.152C429.977 59.712 429.443 61.504 428.377 62.528C427.31 63.5093 425.433 64 422.745 64C419.929 64 418.073 63.2107 417.177 61.632C414.446 63.4667 411.225 64.384 407.513 64.384ZM416.217 42.816C415.491 41.5787 414.553 40.96 413.401 40.96C412.291 40.96 411.395 41.7707 410.713 43.392C410.03 45.0133 409.689 46.8693 409.689 48.96C409.689 50.9227 410.009 52.672 410.649 54.208C411.289 55.744 412.185 56.512 413.337 56.512C414.531 56.512 415.491 55.936 416.217 54.784V42.816ZM467.738 35.008C466.458 33.984 464.666 33.472 462.362 33.472C460.399 33.472 458.821 34.1333 457.626 35.456C456.474 36.7787 455.898 38.528 455.898 40.704V44.864H449.626V40.512C449.626 37.824 448.986 35.9893 447.706 35.008C446.426 33.984 444.634 33.472 442.33 33.472C440.367 33.472 438.789 34.1333 437.594 35.456C436.442 36.7787 435.866 38.528 435.866 40.704V56.448C435.866 59.136 436.314 61.0773 437.21 62.272C438.149 63.424 439.877 64 442.394 64C445.082 64 446.959 63.5093 448.026 62.528C449.093 61.504 449.626 59.712 449.626 57.152V52.608H455.898V56.448C455.898 59.136 456.346 61.0773 457.242 62.272C458.181 63.424 459.909 64 462.426 64C465.114 64 466.991 63.5093 468.058 62.528C469.125 61.504 469.658 59.712 469.658 57.152V40.512C469.658 37.824 469.018 35.9893 467.738 35.008Z" fill="#E3CE0B"/>
<path d="M497.573 75.893C524.358 69.2071 573.656 45.7297 556.566 5.30743" stroke="#E3CE0B" stroke-width="3"/>
<path d="M537.521 57.8676C542.361 54.2149 549.1 43.7538 537.338 31.1308" stroke="#E3CE0B" stroke-width="3"/>
<path d="M549.336 47.5158C553.743 43.3514 559.288 32.2106 546.204 20.9623" stroke="#E3CE0B" stroke-width="3"/>
<path d="M567.71 54.9628C564.058 50.1228 553.597 43.3833 540.973 55.1457" stroke="#E3CE0B" stroke-width="3"/>
<path d="M579.129 30.3046C573.941 27.1648 561.727 24.7865 554.367 40.3921" stroke="#E3CE0B" stroke-width="3"/>
<circle cx="535.18" cy="40.6974" r="2.07906" transform="rotate(-19.2966 535.18 40.6974)" fill="#E3CE0B"/>
<circle cx="553.035" cy="18.292" r="2.07906" transform="rotate(-19.2966 553.035 18.292)" fill="#E3CE0B"/>
<circle cx="570.6" cy="34.9045" r="2.07906" transform="rotate(-19.2966 570.6 34.9045)" fill="#E3CE0B"/>
<path d="M87.9996 74.893C61.2144 68.2071 11.9166 44.7297 29.0066 4.30743" stroke="#E3CE0B" stroke-width="3"/>
<path d="M48.0517 56.8676C43.2117 53.2149 36.4722 42.7538 48.2346 30.1308" stroke="#E3CE0B" stroke-width="3"/>
<path d="M36.2367 46.5158C31.8292 42.3514 26.2851 31.2106 39.3683 19.9623" stroke="#E3CE0B" stroke-width="3"/>
<path d="M17.8622 53.9628C21.5149 49.1228 31.976 42.3833 44.5991 54.1457" stroke="#E3CE0B" stroke-width="3"/>
<path d="M6.44383 29.3046C11.6313 26.1648 23.846 23.7865 31.2054 39.3921" stroke="#E3CE0B" stroke-width="3"/>
<circle r="2.07906" transform="matrix(-0.94382 -0.330459 -0.330459 0.94382 50.3921 39.6974)" fill="#E3CE0B"/>
<circle r="2.07906" transform="matrix(-0.94382 -0.330459 -0.330459 0.94382 32.5374 17.292)" fill="#E3CE0B"/>
<circle r="2.07906" transform="matrix(-0.94382 -0.330459 -0.330459 0.94382 14.9726 33.9045)" fill="#E3CE0B"/>
</svg>
