<svg width="359" height="567" viewBox="0 0 359 567" fill="none" xmlns="http://www.w3.org/2000/svg">
<path d="M51.2029 378.712C49.5389 379.224 47.9389 379.48 46.4029 379.48C43.3309 379.48 40.8029 378.52 38.8189 376.6C36.8349 374.68 35.8429 372.248 35.8429 369.304C35.8429 367.096 36.3389 365.176 37.3309 363.544C38.3229 361.912 39.6989 360.68 41.4589 359.848C43.2509 358.984 45.3149 358.552 47.6509 358.552C49.8269 358.552 51.7629 358.888 53.4589 359.56C55.1549 360.2 56.5149 361.048 57.5389 362.104C58.5629 363.128 59.3949 364.36 60.0349 365.8C60.7069 367.24 61.1549 368.68 61.3789 370.12C61.6349 371.528 61.7629 373.016 61.7629 374.584C61.7629 376.568 61.5709 378.408 61.1869 380.104C60.8349 381.768 60.2429 383.304 59.4109 384.712C58.6109 386.12 57.5869 387.32 56.3389 388.312C55.1229 389.304 53.6029 390.072 51.7789 390.616C49.9869 391.16 47.9549 391.432 45.6829 391.432C43.0909 391.432 40.9149 390.888 39.1549 389.8C37.3949 388.712 36.5149 387.304 36.5149 385.576C36.5149 384.488 36.8669 383.512 37.5709 382.648C38.2749 381.784 39.1869 381.352 40.3069 381.352C40.8509 381.352 41.7149 381.656 42.8989 382.264C44.0829 382.872 45.1389 383.176 46.0669 383.176C46.8349 383.176 47.5869 382.984 48.3229 382.6C49.0589 382.216 49.6829 381.688 50.1949 381.016C50.7069 380.312 51.0429 379.544 51.2029 378.712ZM45.3949 369.592C45.3949 370.968 45.6029 372.184 46.0189 373.24C46.4349 374.264 47.0269 374.776 47.7949 374.776C48.3069 374.776 48.7549 374.52 49.1389 374.008C49.5549 373.464 49.8589 372.808 50.0509 372.04C50.2429 371.24 50.3389 370.424 50.3389 369.592C50.3389 368.248 50.1149 367.064 49.6669 366.04C49.2189 365.016 48.5949 364.504 47.7949 364.504C46.9949 364.504 46.3869 365 45.9709 365.992C45.5869 366.984 45.3949 368.184 45.3949 369.592ZM79.0197 391.288C76.9717 391.288 75.1157 391.016 73.4517 390.472C71.8197 389.896 70.3317 389 68.9877 387.784C67.6757 386.568 66.6517 384.904 65.9157 382.792C65.2117 380.68 64.8597 378.2 64.8597 375.352C64.8597 372.28 65.2117 369.656 65.9157 367.48C66.6197 365.304 67.6277 363.608 68.9397 362.392C70.2517 361.176 71.7237 360.296 73.3557 359.752C74.9877 359.208 76.8757 358.936 79.0197 358.936C81.0997 358.936 82.9717 359.256 84.6357 359.896C86.2997 360.504 87.7557 361.448 89.0037 362.728C90.2837 364.008 91.2597 365.72 91.9317 367.864C92.6357 369.976 92.9877 372.472 92.9877 375.352C92.9877 378.232 92.6357 380.728 91.9317 382.84C91.2277 384.92 90.2197 386.568 88.9077 387.784C87.6277 389 86.1557 389.896 84.4917 390.472C82.8597 391.016 81.0357 391.288 79.0197 391.288ZM81.6117 381.64C82.1877 379.88 82.4757 377.784 82.4757 375.352C82.4757 372.888 82.1717 370.712 81.5637 368.824C80.9557 366.936 80.1077 365.992 79.0197 365.992C78.2517 365.992 77.5797 366.472 77.0037 367.432C76.4597 368.392 76.0597 369.576 75.8037 370.984C75.5477 372.36 75.4197 373.816 75.4197 375.352C75.4197 377.72 75.7237 379.8 76.3317 381.592C76.9717 383.384 77.8677 384.28 79.0197 384.28C80.1717 384.28 81.0357 383.4 81.6117 381.64ZM115.891 388.6C115.443 389.72 114.915 390.536 114.307 391.048C113.699 391.56 112.899 391.816 111.907 391.816C110.371 391.816 108.915 391.336 107.539 390.376C106.195 389.384 105.523 388.28 105.523 387.064C105.523 386.552 105.699 385.864 106.051 385L116.899 358.648C117.283 357.752 117.763 357.096 118.339 356.68C118.947 356.264 119.747 356.056 120.739 356.056C122.275 356.056 123.731 356.504 125.107 357.4C126.515 358.296 127.219 359.336 127.219 360.52C127.219 361 127.091 361.576 126.835 362.248L115.891 388.6ZM103.075 373.192C100.867 373.192 99.0912 372.632 97.7472 371.512C96.4032 370.36 95.7312 368.536 95.7312 366.04C95.7312 363.384 96.3712 361.496 97.6512 360.376C98.9632 359.256 100.771 358.696 103.075 358.696C104.163 358.696 105.139 358.84 106.003 359.128C106.867 359.384 107.619 359.8 108.259 360.376C108.931 360.952 109.443 361.72 109.795 362.68C110.179 363.64 110.371 364.76 110.371 366.04C110.371 368.536 109.699 370.36 108.355 371.512C107.043 372.632 105.283 373.192 103.075 373.192ZM104.179 366.04C104.179 365.816 104.163 365.608 104.131 365.416C104.131 365.192 104.099 364.984 104.035 364.792C104.003 364.568 103.955 364.376 103.891 364.216C103.827 364.024 103.763 363.864 103.699 363.736C103.635 363.608 103.539 363.512 103.411 363.448C103.315 363.352 103.203 363.304 103.075 363.304C102.723 363.304 102.435 363.592 102.211 364.168C102.019 364.712 101.923 365.336 101.923 366.04C101.923 366.712 102.019 367.304 102.211 367.816C102.435 368.328 102.723 368.584 103.075 368.584C103.459 368.584 103.731 368.344 103.891 367.864C104.083 367.352 104.179 366.744 104.179 366.04ZM129.043 391.576C126.803 391.576 125.011 391.016 123.667 389.896C122.323 388.776 121.651 386.968 121.651 384.472C121.651 381.784 122.307 379.88 123.619 378.76C124.931 377.64 126.739 377.08 129.043 377.08C131.251 377.08 133.011 377.688 134.323 378.904C135.635 380.088 136.291 381.944 136.291 384.472C136.291 386.968 135.635 388.776 134.323 389.896C133.011 391.016 131.251 391.576 129.043 391.576ZM130.099 384.472C130.099 383.992 130.051 383.56 129.955 383.176C129.891 382.76 129.779 382.424 129.619 382.168C129.459 381.88 129.267 381.736 129.043 381.736C128.659 381.736 128.355 382.024 128.131 382.6C127.939 383.144 127.843 383.768 127.843 384.472C127.843 385.144 127.939 385.736 128.131 386.248C128.355 386.728 128.659 386.968 129.043 386.968C129.267 386.968 129.459 386.84 129.619 386.584C129.811 386.328 129.939 386.024 130.003 385.672C130.067 385.288 130.099 384.888 130.099 384.472ZM176.664 369.256C175.704 368.488 174.36 368.104 172.632 368.104C171.16 368.104 169.976 368.6 169.08 369.592C168.216 370.584 167.784 371.896 167.784 373.528V376.648H163.08V373.384C163.08 371.368 162.6 369.992 161.64 369.256C160.68 368.488 159.336 368.104 157.608 368.104C156.136 368.104 154.952 368.6 154.056 369.592C153.192 370.584 152.76 371.896 152.76 373.528V385.336C152.76 387.352 153.096 388.808 153.768 389.704C154.472 390.568 155.768 391 157.656 391C159.672 391 161.08 390.632 161.88 389.896C162.68 389.128 163.08 387.784 163.08 385.864V382.456H167.784V385.336C167.784 387.352 168.12 388.808 168.792 389.704C169.496 390.568 170.792 391 172.68 391C174.696 391 176.104 390.632 176.904 389.896C177.704 389.128 178.104 387.784 178.104 385.864V373.384C178.104 371.368 177.624 369.992 176.664 369.256ZM191.027 391.288C188.499 391.288 186.403 390.264 184.739 388.216C183.075 386.136 182.243 383.304 182.243 379.72C182.243 376.072 183.059 373.176 184.691 371.032C186.355 368.856 188.467 367.768 191.027 367.768C193.619 367.768 196.019 368.68 198.227 370.504C199.091 368.904 200.483 368.104 202.403 368.104C204.131 368.104 205.475 368.488 206.435 369.256C207.395 369.992 207.875 371.368 207.875 373.384V385.864C207.875 387.784 207.475 389.128 206.675 389.896C205.875 390.632 204.467 391 202.451 391C200.339 391 198.947 390.408 198.275 389.224C196.227 390.6 193.811 391.288 191.027 391.288ZM197.555 375.112C197.011 374.184 196.307 373.72 195.443 373.72C194.611 373.72 193.939 374.328 193.427 375.544C192.915 376.76 192.659 378.152 192.659 379.72C192.659 381.192 192.899 382.504 193.379 383.656C193.859 384.808 194.531 385.384 195.395 385.384C196.291 385.384 197.011 384.952 197.555 384.088V375.112ZM222.756 372.136C222.756 371.272 222.596 370.552 222.276 369.976C221.956 369.4 221.412 368.952 220.644 368.632C219.908 368.312 218.932 368.152 217.716 368.152C216.916 368.152 216.244 368.2 215.7 368.296C215.188 368.424 214.708 368.648 214.26 368.968C213.844 369.32 213.508 369.752 213.252 370.264C213.028 370.776 212.836 371.48 212.676 372.376C212.516 373.272 212.404 374.28 212.34 375.4C212.308 376.52 212.292 377.928 212.292 379.624C212.292 383.688 212.788 386.584 213.78 388.312C214.772 390.04 216.404 390.904 218.676 390.904C222.26 390.904 225.284 390.008 227.748 388.216L228.228 387.832C229.284 389.88 230.996 390.904 233.364 390.904C234.932 390.904 236.292 390.728 237.444 390.376C238.628 390.024 239.828 389.4 241.044 388.504C241.748 390.2 243.412 391.048 246.036 391.048C247.508 391.048 248.692 390.552 249.588 389.56C250.452 388.568 250.884 387.256 250.884 385.624V373.816C250.884 371.8 250.548 370.344 249.876 369.448C249.172 368.584 247.876 368.152 245.988 368.152C243.972 368.152 242.564 368.52 241.764 369.256C240.964 370.024 240.564 371.368 240.564 373.288V379.96C240.564 381.016 240.372 381.88 239.988 382.552C239.636 383.192 239.172 383.512 238.596 383.512C237.156 383.512 236.436 382.616 236.436 380.824V372.136C236.436 371.272 236.292 370.552 236.004 369.976C235.716 369.4 235.236 368.952 234.564 368.632C233.86 368.312 232.948 368.152 231.828 368.152C231.092 368.152 230.484 368.2 230.004 368.296C229.524 368.424 229.092 368.648 228.708 368.968C228.324 369.32 228.02 369.752 227.796 370.264C227.572 370.776 227.38 371.48 227.22 372.376C227.06 373.272 226.948 374.28 226.884 375.4C226.852 376.52 226.836 377.928 226.836 379.624C226.836 380.744 226.676 381.672 226.356 382.408C226.036 383.144 225.556 383.512 224.916 383.512C223.476 383.512 222.756 382.616 222.756 380.824V372.136ZM265.697 380.872C265.697 382.696 266.401 383.608 267.809 383.608C268.289 383.608 268.705 383.464 269.057 383.176C269.441 382.856 269.729 382.424 269.921 381.88C270.113 381.336 270.209 380.712 270.209 380.008V373.576C270.209 372.488 270.401 371.544 270.785 370.744C271.169 369.912 271.729 369.272 272.465 368.824C273.201 368.376 274.065 368.152 275.057 368.152C276.785 368.152 278.129 368.536 279.089 369.304C280.049 370.04 280.529 371.416 280.529 373.432V385.912C280.529 387.864 280.129 389.208 279.329 389.944C278.529 390.68 277.121 391.048 275.105 391.048C274.241 391.048 273.505 390.968 272.897 390.808C272.289 390.616 271.793 390.344 271.409 389.992C271.057 389.64 270.785 389.176 270.593 388.6C269.281 389.464 267.889 390.072 266.417 390.424C264.977 390.776 263.361 390.952 261.569 390.952C259.297 390.952 257.665 390.072 256.673 388.312C255.681 386.52 255.185 383.592 255.185 379.528C255.185 377.512 255.233 375.88 255.329 374.632C255.425 373.352 255.569 372.264 255.761 371.368C255.985 370.44 256.305 369.752 256.721 369.304C257.169 368.856 257.681 368.536 258.257 368.344C258.865 368.152 259.649 368.056 260.609 368.056C262.401 368.056 263.681 368.392 264.449 369.064C265.249 369.736 265.649 370.744 265.649 372.088L265.697 380.872ZM297.473 386.248C297.409 386.344 297.201 386.568 296.849 386.92C296.497 387.272 296.257 387.512 296.129 387.64C296.033 387.768 295.809 388.008 295.457 388.36C295.137 388.68 294.881 388.92 294.689 389.08C294.529 389.208 294.289 389.4 293.969 389.656C293.649 389.912 293.361 390.104 293.105 390.232C292.881 390.328 292.625 390.456 292.337 390.616C292.049 390.744 291.761 390.84 291.473 390.904C291.185 390.968 290.897 391 290.609 391C289.201 391 287.857 390.424 286.577 389.272C285.297 388.12 284.657 386.888 284.657 385.576C284.657 385.256 284.785 384.904 285.041 384.52C285.329 384.104 285.729 383.656 286.241 383.176C286.785 382.696 287.249 382.28 287.633 381.928C288.049 381.576 288.561 381.16 289.169 380.68C289.809 380.2 290.193 379.896 290.321 379.768C290.065 379.576 289.697 379.288 289.217 378.904C288.737 378.488 288.337 378.136 288.017 377.848C287.697 377.56 287.329 377.208 286.913 376.792C286.497 376.344 286.161 375.928 285.905 375.544C285.681 375.128 285.473 374.664 285.281 374.152C285.089 373.64 284.993 373.112 284.993 372.568C284.993 371.48 285.521 370.472 286.577 369.544C287.633 368.616 288.721 368.152 289.841 368.152C290.449 368.152 291.041 368.28 291.617 368.536C292.193 368.792 292.737 369.16 293.249 369.64C293.793 370.088 294.273 370.552 294.689 371.032C295.137 371.48 295.617 372.024 296.129 372.664C296.673 373.272 297.121 373.736 297.473 374.056C297.825 373.736 298.369 373.144 299.105 372.28C299.841 371.416 300.449 370.744 300.929 370.264C301.409 369.752 302.033 369.272 302.801 368.824C303.569 368.376 304.321 368.152 305.057 368.152C305.505 368.152 305.969 368.248 306.449 368.44C306.929 368.6 307.361 368.84 307.745 369.16C308.161 369.448 308.529 369.784 308.849 370.168C309.201 370.52 309.457 370.92 309.617 371.368C309.809 371.784 309.905 372.2 309.905 372.616C309.905 373.16 309.809 373.704 309.617 374.248C309.425 374.76 309.057 375.336 308.513 375.976C307.969 376.584 307.569 377.032 307.313 377.32C307.089 377.576 306.577 378.056 305.777 378.76C305.009 379.432 304.625 379.768 304.625 379.768C304.721 379.896 305.089 380.2 305.729 380.68C306.369 381.16 306.881 381.576 307.265 381.928C307.681 382.28 308.145 382.696 308.657 383.176C309.169 383.656 309.553 384.104 309.809 384.52C310.097 384.904 310.241 385.256 310.241 385.576C310.241 386.888 309.601 388.12 308.321 389.272C307.041 390.424 305.697 391 304.289 391C303.969 391 303.633 390.952 303.281 390.856C302.961 390.76 302.657 390.664 302.369 390.568C302.113 390.44 301.809 390.248 301.457 389.992C301.105 389.736 300.817 389.528 300.593 389.368C300.401 389.208 300.113 388.952 299.729 388.6C299.377 388.248 299.121 388.008 298.961 387.88C298.833 387.72 298.577 387.432 298.193 387.016C297.809 386.6 297.569 386.344 297.473 386.248ZM39.5451 438.096C38.6491 438.096 37.9291 437.664 37.3851 436.8V434.4C37.8331 434.496 38.3611 434.544 38.9691 434.544C39.6091 434.544 40.1371 434.56 40.5531 434.592C41.0011 434.656 41.3531 434.752 41.6091 434.88C41.7371 434.976 41.8491 435.072 41.9451 435.168C41.8491 435.584 41.7211 435.984 41.5611 436.368C41.0811 437.52 40.4091 438.096 39.5451 438.096ZM39.4971 426.432C40.3291 426.432 41.0011 427.04 41.5131 428.256C41.6411 428.544 41.7531 428.864 41.8491 429.216C41.8171 429.312 41.7851 429.392 41.7531 429.456C41.6891 429.616 41.3691 429.76 40.7931 429.888C40.2171 430.016 39.3211 430.08 38.1051 430.08C37.8491 430.08 37.6091 430.08 37.3851 430.08V427.824C37.9291 426.896 38.6331 426.432 39.4971 426.432ZM51.5931 434.592C51.3371 433.92 50.9691 433.36 50.4891 432.912C49.9771 432.464 49.2731 431.984 48.3771 431.472C50.3291 430.128 51.3051 428.288 51.3051 425.952C51.3051 424.32 50.5531 422.992 49.0491 421.968C48.3771 421.52 47.5451 421.168 46.5531 420.912C45.7211 420.624 44.8411 420.48 43.9131 420.48C41.3211 420.48 38.9211 421.392 36.7131 423.216C35.8491 421.616 34.4571 420.816 32.5371 420.816C30.8091 420.816 29.4651 421.2 28.5051 421.968C27.5451 422.704 27.0651 424.08 27.0651 426.096V438.576C27.0651 440.496 27.4651 441.84 28.2651 442.608C29.0651 443.344 30.4731 443.712 32.4891 443.712C34.6011 443.712 35.9931 443.12 36.6651 441.936C38.7131 443.312 41.1291 444 43.9131 444C44.8731 444 45.7691 443.856 46.6011 443.568C47.7851 443.248 48.7931 442.736 49.6251 442.032C51.1931 440.784 51.9771 439.152 51.9771 437.136C51.9771 436.112 51.8491 435.264 51.5931 434.592ZM56.1734 414.432C56.1734 413.376 56.6214 412.512 57.5174 411.84C58.4454 411.136 59.7414 410.784 61.4054 410.784C64.8934 410.784 66.6374 412 66.6374 414.432C66.6374 415.776 66.1894 416.72 65.2934 417.264C64.4294 417.808 63.1334 418.08 61.4054 418.08C59.9014 418.08 58.6534 417.792 57.6614 417.216C56.6694 416.64 56.1734 415.712 56.1734 414.432ZM66.5894 438.864C66.5894 440.784 66.1894 442.128 65.3894 442.896C64.5894 443.632 63.1814 444 61.1654 444C59.2774 444 57.9814 443.568 57.2774 442.704C56.6054 441.808 56.2694 440.352 56.2694 438.336V426.528C56.2694 424.896 56.7014 423.584 57.5654 422.592C58.4614 421.6 59.6454 421.104 61.1174 421.104C62.8454 421.104 64.1894 421.488 65.1494 422.256C66.1094 422.992 66.5894 424.368 66.5894 426.384V438.864ZM79.6784 444.288C77.1504 444.288 75.0544 443.264 73.3904 441.216C71.7264 439.136 70.8944 436.288 70.8944 432.672C70.8944 429.024 71.7104 426.128 73.3424 423.984C74.9744 421.84 77.0704 420.768 79.6304 420.768C82.2224 420.768 84.6224 421.664 86.8304 423.456C87.6624 421.888 89.0384 421.104 90.9584 421.104C92.6864 421.104 94.0304 421.488 94.9904 422.256C95.9824 423.024 96.4784 424.4 96.4784 426.384V435.168C96.4784 438.272 96.2704 440.944 95.8544 443.184C95.4704 445.392 94.7824 447.344 93.7904 449.04C92.8304 450.736 91.4864 452 89.7584 452.832C88.0624 453.664 85.9664 454.08 83.4704 454.08C81.7424 454.08 80.1424 453.84 78.6704 453.36C77.1984 452.88 76.0304 452.288 75.1664 451.584C74.3024 450.88 73.6304 450.176 73.1504 449.472C72.6704 448.768 72.4304 448.16 72.4304 447.648C72.4304 447.04 72.6064 446.528 72.9584 446.112C73.3104 445.696 73.8064 445.488 74.4464 445.488C74.8304 445.488 75.7904 445.904 77.3264 446.736C78.8944 447.568 80.1584 447.984 81.1184 447.984C84.3824 447.984 86.0144 446.304 86.0144 442.944C84.1584 443.84 82.0464 444.288 79.6784 444.288ZM86.2064 437.088L86.1584 428.016C85.6144 427.12 84.9264 426.672 84.0944 426.672C83.5184 426.672 83.0064 426.976 82.5584 427.584C82.1424 428.192 81.8224 428.944 81.5984 429.84C81.4064 430.736 81.3104 431.68 81.3104 432.672C81.3104 434.176 81.5504 435.504 82.0304 436.656C82.5104 437.776 83.1824 438.336 84.0464 438.336C84.9104 438.336 85.6304 437.92 86.2064 437.088ZM113.28 438.096C112.384 438.096 111.664 437.664 111.12 436.8V434.4C111.568 434.496 112.096 434.544 112.704 434.544C113.344 434.544 113.872 434.56 114.288 434.592C114.736 434.656 115.088 434.752 115.344 434.88C115.472 434.976 115.584 435.072 115.68 435.168C115.584 435.584 115.456 435.984 115.296 436.368C114.816 437.52 114.144 438.096 113.28 438.096ZM113.232 426.432C114.064 426.432 114.736 427.04 115.248 428.256C115.376 428.544 115.488 428.864 115.584 429.216C115.552 429.312 115.52 429.392 115.488 429.456C115.424 429.616 115.104 429.76 114.528 429.888C113.952 430.016 113.056 430.08 111.84 430.08C111.584 430.08 111.344 430.08 111.12 430.08V427.824C111.664 426.896 112.368 426.432 113.232 426.432ZM125.328 434.592C125.072 433.92 124.704 433.36 124.224 432.912C123.712 432.464 123.008 431.984 122.112 431.472C124.064 430.128 125.04 428.288 125.04 425.952C125.04 424.32 124.288 422.992 122.784 421.968C122.112 421.52 121.28 421.168 120.288 420.912C119.456 420.624 118.576 420.48 117.648 420.48C115.056 420.48 112.656 421.392 110.448 423.216C109.584 421.616 108.192 420.816 106.272 420.816C104.544 420.816 103.2 421.2 102.24 421.968C101.28 422.704 100.8 424.08 100.8 426.096V438.576C100.8 440.496 101.2 441.84 102 442.608C102.8 443.344 104.208 443.712 106.224 443.712C108.336 443.712 109.728 443.12 110.4 441.936C112.448 443.312 114.864 444 117.648 444C118.608 444 119.504 443.856 120.336 443.568C121.52 443.248 122.528 442.736 123.359 442.032C124.928 440.784 125.712 439.152 125.712 437.136C125.712 436.112 125.584 435.264 125.328 434.592ZM129.908 414.432C129.908 413.376 130.356 412.512 131.252 411.84C132.18 411.136 133.476 410.784 135.14 410.784C138.628 410.784 140.372 412 140.372 414.432C140.372 415.776 139.924 416.72 139.028 417.264C138.164 417.808 136.868 418.08 135.14 418.08C133.636 418.08 132.388 417.792 131.396 417.216C130.404 416.64 129.908 415.712 129.908 414.432ZM140.324 438.864C140.324 440.784 139.924 442.128 139.124 442.896C138.324 443.632 136.916 444 134.9 444C133.012 444 131.716 443.568 131.012 442.704C130.34 441.808 130.004 440.352 130.004 438.336V426.528C130.004 424.896 130.436 423.584 131.3 422.592C132.196 421.6 133.38 421.104 134.852 421.104C136.58 421.104 137.924 421.488 138.884 422.256C139.844 422.992 140.324 424.368 140.324 426.384V438.864ZM153.413 444.288C150.885 444.288 148.789 443.264 147.125 441.216C145.461 439.136 144.629 436.288 144.629 432.672C144.629 429.024 145.445 426.128 147.077 423.984C148.709 421.84 150.805 420.768 153.365 420.768C155.957 420.768 158.357 421.664 160.565 423.456C161.397 421.888 162.773 421.104 164.693 421.104C166.421 421.104 167.765 421.488 168.725 422.256C169.717 423.024 170.213 424.4 170.213 426.384V435.168C170.213 438.272 170.005 440.944 169.589 443.184C169.205 445.392 168.517 447.344 167.525 449.04C166.565 450.736 165.221 452 163.493 452.832C161.797 453.664 159.701 454.08 157.205 454.08C155.477 454.08 153.877 453.84 152.405 453.36C150.933 452.88 149.765 452.288 148.901 451.584C148.037 450.88 147.365 450.176 146.885 449.472C146.405 448.768 146.165 448.16 146.165 447.648C146.165 447.04 146.341 446.528 146.693 446.112C147.045 445.696 147.541 445.488 148.181 445.488C148.565 445.488 149.525 445.904 151.061 446.736C152.629 447.568 153.893 447.984 154.853 447.984C158.117 447.984 159.749 446.304 159.749 442.944C157.893 443.84 155.781 444.288 153.413 444.288ZM159.941 437.088L159.893 428.016C159.349 427.12 158.661 426.672 157.829 426.672C157.253 426.672 156.741 426.976 156.293 427.584C155.877 428.192 155.557 428.944 155.333 429.84C155.141 430.736 155.045 431.68 155.045 432.672C155.045 434.176 155.285 435.504 155.765 436.656C156.245 437.776 156.917 438.336 157.781 438.336C158.645 438.336 159.365 437.92 159.941 437.088ZM199.494 430.464C199.494 435.936 199.334 439.76 199.014 441.936C198.758 443.888 198.358 445.568 197.814 446.976C197.27 448.416 196.502 449.68 195.51 450.768C194.518 451.888 193.254 452.72 191.718 453.264C190.182 453.808 188.358 454.08 186.246 454.08C184.55 454.08 182.966 453.824 181.494 453.312C180.054 452.832 178.902 452.224 178.038 451.488C177.206 450.784 176.55 450.08 176.07 449.376C175.59 448.672 175.35 448.064 175.35 447.552C175.35 447.04 175.51 446.56 175.83 446.112C176.182 445.696 176.646 445.488 177.222 445.488C177.638 445.488 178.118 445.616 178.662 445.872C179.238 446.128 179.782 446.416 180.294 446.736C180.806 447.056 181.414 447.344 182.118 447.6C182.822 447.856 183.51 447.984 184.182 447.984C185.91 447.984 187.126 447.552 187.83 446.688C188.566 445.824 188.934 444.592 188.934 442.992C188.39 443.216 187.862 443.408 187.35 443.568C186.838 443.728 186.342 443.856 185.862 443.952C185.382 444.048 184.918 444.112 184.47 444.144C184.054 444.176 183.638 444.192 183.222 444.192C181.334 444.192 179.718 443.664 178.374 442.608C177.03 441.552 176.054 440.256 175.446 438.72C174.87 437.152 174.582 435.472 174.582 433.68C174.582 431.888 174.598 430.368 174.63 429.12C174.694 427.872 174.806 426.768 174.966 425.808C175.126 424.816 175.302 424.032 175.494 423.456C175.718 422.88 176.022 422.416 176.406 422.064C176.79 421.68 177.222 421.424 177.702 421.296C178.182 421.168 178.758 421.104 179.43 421.104C181.446 421.104 182.854 421.456 183.654 422.16C184.486 422.832 184.902 423.904 184.902 425.376L184.95 433.104C184.95 433.616 184.95 434 184.95 434.256C184.95 434.48 184.966 434.768 184.998 435.12C185.062 435.472 185.126 435.728 185.19 435.888C185.286 436.048 185.398 436.224 185.526 436.416C185.686 436.576 185.878 436.688 186.102 436.752C186.358 436.816 186.662 436.848 187.014 436.848C187.974 436.848 188.566 436.592 188.79 436.08C189.046 435.536 189.174 434.56 189.174 433.152L189.222 425.376C189.222 424.384 189.382 423.584 189.702 422.976C190.054 422.368 190.63 421.904 191.43 421.584C192.23 421.264 193.318 421.104 194.694 421.104C195.526 421.104 196.23 421.248 196.806 421.536C197.414 421.792 197.894 422.144 198.246 422.592C198.598 423.008 198.854 423.648 199.014 424.512C199.206 425.344 199.334 426.192 199.398 427.056C199.462 427.92 199.494 429.056 199.494 430.464ZM216.17 438.096C215.274 438.096 214.554 437.664 214.01 436.8V434.4C214.458 434.496 214.986 434.544 215.594 434.544C216.234 434.544 216.762 434.56 217.178 434.592C217.626 434.656 217.978 434.752 218.234 434.88C218.362 434.976 218.474 435.072 218.57 435.168C218.474 435.584 218.346 435.984 218.186 436.368C217.706 437.52 217.034 438.096 216.17 438.096ZM216.122 426.432C216.954 426.432 217.626 427.04 218.138 428.256C218.266 428.544 218.378 428.864 218.474 429.216C218.442 429.312 218.41 429.392 218.378 429.456C218.314 429.616 217.994 429.76 217.418 429.888C216.842 430.016 215.946 430.08 214.73 430.08C214.474 430.08 214.234 430.08 214.01 430.08V427.824C214.554 426.896 215.258 426.432 216.122 426.432ZM228.218 434.592C227.962 433.92 227.594 433.36 227.114 432.912C226.602 432.464 225.898 431.984 225.002 431.472C226.954 430.128 227.93 428.288 227.93 425.952C227.93 424.32 227.178 422.992 225.674 421.968C225.002 421.52 224.17 421.168 223.178 420.912C222.346 420.624 221.466 420.48 220.538 420.48C217.946 420.48 215.546 421.392 213.338 423.216C212.474 421.616 211.082 420.816 209.162 420.816C207.434 420.816 206.09 421.2 205.13 421.968C204.17 422.704 203.69 424.08 203.69 426.096V438.576C203.69 440.496 204.09 441.84 204.89 442.608C205.69 443.344 207.098 443.712 209.114 443.712C211.226 443.712 212.618 443.12 213.29 441.936C215.338 443.312 217.754 444 220.538 444C221.498 444 222.394 443.856 223.226 443.568C224.41 443.248 225.418 442.736 226.25 442.032C227.818 440.784 228.602 439.152 228.602 437.136C228.602 436.112 228.474 435.264 228.218 434.592ZM241.534 444.288C239.006 444.288 236.91 443.264 235.246 441.216C233.582 439.136 232.75 436.304 232.75 432.72C232.75 429.072 233.566 426.176 235.198 424.032C236.862 421.856 238.974 420.768 241.534 420.768C244.126 420.768 246.526 421.68 248.734 423.504C249.598 421.904 250.99 421.104 252.91 421.104C254.638 421.104 255.982 421.488 256.942 422.256C257.902 422.992 258.382 424.368 258.382 426.384V438.864C258.382 440.784 257.982 442.128 257.182 442.896C256.382 443.632 254.974 444 252.958 444C250.846 444 249.454 443.408 248.782 442.224C246.734 443.6 244.318 444.288 241.534 444.288ZM248.062 428.112C247.518 427.184 246.814 426.72 245.95 426.72C245.118 426.72 244.446 427.328 243.934 428.544C243.422 429.76 243.166 431.152 243.166 432.72C243.166 434.192 243.406 435.504 243.886 436.656C244.366 437.808 245.038 438.384 245.902 438.384C246.798 438.384 247.518 437.952 248.062 437.088V428.112ZM288.144 428.592V426.432C288.144 424.416 287.664 423.04 286.704 422.304C285.744 421.536 284.4 421.152 282.672 421.152C281.2 421.152 280.016 421.648 279.12 422.64C278.256 423.632 277.824 424.944 277.824 426.576V428.592H277.776C277.744 429.072 277.664 429.52 277.536 429.936C277.344 430.48 277.056 430.912 276.672 431.232C276.32 431.52 275.904 431.664 275.424 431.664C274.016 431.664 273.312 430.752 273.312 428.928V428.64L273.264 425.184C273.264 423.84 272.88 422.832 272.112 422.16C271.312 421.488 270 421.152 268.176 421.152C267.216 421.152 266.432 421.248 265.824 421.44C265.248 421.632 264.736 421.952 264.288 422.4C263.84 422.848 263.52 423.52 263.328 424.416C263.104 425.344 262.944 426.432 262.848 427.68L262.8 428.592V428.64C262.896 432.16 263.392 434.736 264.288 436.368C265.28 438.128 266.912 439.008 269.184 439.008C270.976 439.008 272.592 438.832 274.032 438.48C275.344 438.16 276.608 437.632 277.824 436.896V438.384C277.824 440.4 278.16 441.856 278.832 442.752C279.536 443.616 280.832 444.048 282.72 444.048C284.736 444.048 286.144 443.68 286.944 442.944C287.744 442.176 288.144 440.832 288.144 438.912V434.448V433.968V428.592ZM292.33 414.432C292.33 413.376 292.778 412.512 293.674 411.84C294.602 411.136 295.898 410.784 297.562 410.784C301.05 410.784 302.794 412 302.794 414.432C302.794 415.776 302.346 416.72 301.45 417.264C300.586 417.808 299.29 418.08 297.562 418.08C296.058 418.08 294.81 417.792 293.818 417.216C292.826 416.64 292.33 415.712 292.33 414.432ZM302.746 438.864C302.746 440.784 302.346 442.128 301.546 442.896C300.746 443.632 299.338 444 297.322 444C295.434 444 294.138 443.568 293.434 442.704C292.762 441.808 292.426 440.352 292.426 438.336V426.528C292.426 424.896 292.858 423.584 293.722 422.592C294.618 421.6 295.802 421.104 297.274 421.104C299.002 421.104 300.346 421.488 301.306 422.256C302.266 422.992 302.746 424.368 302.746 426.384V438.864ZM319.483 438.096C318.587 438.096 317.867 437.664 317.323 436.8V434.4C317.771 434.496 318.299 434.544 318.907 434.544C319.547 434.544 320.075 434.56 320.491 434.592C320.939 434.656 321.291 434.752 321.547 434.88C321.675 434.976 321.787 435.072 321.883 435.168C321.787 435.584 321.659 435.984 321.499 436.368C321.019 437.52 320.347 438.096 319.483 438.096ZM319.435 426.432C320.267 426.432 320.939 427.04 321.451 428.256C321.579 428.544 321.691 428.864 321.787 429.216C321.755 429.312 321.723 429.392 321.691 429.456C321.627 429.616 321.307 429.76 320.731 429.888C320.155 430.016 319.259 430.08 318.043 430.08C317.787 430.08 317.547 430.08 317.323 430.08V427.824C317.867 426.896 318.571 426.432 319.435 426.432ZM331.531 434.592C331.275 433.92 330.907 433.36 330.427 432.912C329.915 432.464 329.211 431.984 328.315 431.472C330.267 430.128 331.243 428.288 331.243 425.952C331.243 424.32 330.491 422.992 328.987 421.968C328.315 421.52 327.483 421.168 326.491 420.912C325.659 420.624 324.779 420.48 323.851 420.48C321.259 420.48 318.859 421.392 316.651 423.216C315.787 421.616 314.395 420.816 312.475 420.816C310.747 420.816 309.403 421.2 308.443 421.968C307.483 422.704 307.003 424.08 307.003 426.096V438.576C307.003 440.496 307.403 441.84 308.203 442.608C309.003 443.344 310.411 443.712 312.427 443.712C314.539 443.712 315.931 443.12 316.603 441.936C318.651 443.312 321.067 444 323.851 444C324.811 444 325.707 443.856 326.539 443.568C327.723 443.248 328.731 442.736 329.563 442.032C331.131 440.784 331.915 439.152 331.915 437.136C331.915 436.112 331.787 435.264 331.531 434.592ZM16.7913 481.64C16.7913 481.96 16.7593 482.184 16.6953 482.312C16.5993 482.472 16.2633 482.616 15.6873 482.744C15.1113 482.872 14.2153 482.936 12.9993 482.936C11.1753 482.936 10.2633 483.624 10.2633 485C10.2633 485.928 10.5353 486.568 11.0793 486.92C11.6233 487.24 12.5513 487.4 13.8633 487.4C14.5033 487.4 15.0473 487.432 15.4953 487.496C15.9113 487.528 16.2473 487.608 16.5033 487.736C16.7593 487.896 16.9353 488.072 17.0312 488.264C17.1273 488.456 17.1753 488.696 17.1753 488.984C17.1753 489.88 15.9593 490.328 13.5273 490.328C13.0793 490.328 12.4393 490.296 11.6073 490.232C10.7433 490.136 10.1033 490.088 9.68725 490.088C8.88725 490.088 8.26325 490.296 7.81525 490.712C7.36725 491.096 7.14325 491.864 7.14325 493.016C7.14325 494.36 7.84725 495.368 9.25525 496.04C10.6313 496.68 12.9353 497 16.1673 497C18.7593 497 20.8233 496.392 22.3593 495.176C23.8953 493.96 24.6633 492.376 24.6633 490.424C24.6633 489.464 24.5353 488.664 24.2793 488.024C24.0233 487.352 23.6553 486.808 23.1753 486.392C22.6953 485.944 22.0073 485.48 21.1113 485C23.0313 483.688 23.9913 481.912 23.9913 479.672C23.9913 478.104 23.2393 476.824 21.7353 475.832C20.2633 474.84 18.0233 474.344 15.0153 474.344C10.3433 474.344 8.00725 475.336 8.00725 477.32C8.00725 479.272 8.80725 480.248 10.4073 480.248C10.7273 480.248 11.2553 480.216 11.9913 480.152C12.7273 480.056 13.3033 480.008 13.7193 480.008C15.7673 480.008 16.7913 480.552 16.7913 481.64ZM37.5813 497.288C35.0533 497.288 32.9573 496.264 31.2933 494.216C29.6293 492.136 28.7973 489.304 28.7973 485.72C28.7973 482.072 29.6133 479.176 31.2453 477.032C32.9093 474.856 35.0213 473.768 37.5813 473.768C40.1733 473.768 42.5733 474.68 44.7813 476.504C45.6453 474.904 47.0373 474.104 48.9573 474.104C50.6853 474.104 52.0293 474.488 52.9893 475.256C53.9493 475.992 54.4293 477.368 54.4293 479.384V491.864C54.4293 493.784 54.0293 495.128 53.2292 495.896C52.4293 496.632 51.0213 497 49.0053 497C46.8933 497 45.5013 496.408 44.8293 495.224C42.7813 496.6 40.3653 497.288 37.5813 497.288ZM44.1093 481.112C43.5653 480.184 42.8613 479.72 41.9973 479.72C41.1653 479.72 40.4933 480.328 39.9813 481.544C39.4693 482.76 39.2133 484.152 39.2133 485.72C39.2133 487.192 39.4533 488.504 39.9333 489.656C40.4133 490.808 41.0853 491.384 41.9493 491.384C42.8453 491.384 43.5653 490.952 44.1093 490.088V481.112ZM71.5184 481.304C71.8704 481.304 72.1744 481.336 72.4304 481.4C72.6544 481.464 72.8304 481.592 72.9584 481.784C73.1184 481.944 73.2464 482.104 73.3424 482.264C73.4384 482.424 73.5024 482.68 73.5344 483.032C73.5664 483.384 73.5824 483.672 73.5824 483.896V485.048L73.6304 492.728C73.6304 494.2 74.0464 495.288 74.8784 495.992C75.7104 496.664 77.1184 497 79.1024 497C80.5104 497 81.5664 496.712 82.2704 496.136C82.9424 495.528 83.4224 494.472 83.7104 492.968C83.9984 491.432 84.1424 489.096 84.1424 485.96C84.1424 484.232 83.8704 482.68 83.3264 481.304C82.7824 479.928 82.0784 478.808 81.2144 477.944C80.3504 477.048 79.3584 476.296 78.2384 475.688C77.0864 475.112 75.9504 474.696 74.8304 474.44C73.7104 474.216 72.5904 474.104 71.4704 474.104C70.3184 474.104 69.1824 474.216 68.0624 474.44C66.9424 474.696 65.8224 475.112 64.7024 475.688C63.5824 476.296 62.6064 477.048 61.7744 477.944C60.9104 478.808 60.2064 479.928 59.6624 481.304C59.1184 482.68 58.8464 484.232 58.8464 485.96C58.8464 487.848 58.8944 489.4 58.9904 490.616C59.0864 491.864 59.2304 492.92 59.4224 493.784C59.6144 494.68 59.9184 495.336 60.3344 495.752C60.7504 496.2 61.2304 496.52 61.7744 496.712C62.3184 496.904 63.0224 497 63.8864 497C65.2304 497 66.3024 496.84 67.1024 496.52C67.9024 496.2 68.4784 495.736 68.8304 495.128C69.1504 494.52 69.3104 493.72 69.3104 492.728L69.3584 485C69.3584 483.592 69.4864 482.632 69.7424 482.12C69.9984 481.576 70.5904 481.304 71.5184 481.304ZM98.9856 486.872C98.9856 488.696 99.6896 489.608 101.098 489.608C101.578 489.608 101.994 489.464 102.346 489.176C102.73 488.856 103.018 488.424 103.21 487.88C103.402 487.336 103.498 486.712 103.498 486.008V479.576C103.498 478.488 103.69 477.544 104.074 476.744C104.458 475.912 105.018 475.272 105.754 474.824C106.49 474.376 107.354 474.152 108.346 474.152C110.074 474.152 111.418 474.536 112.378 475.304C113.338 476.04 113.818 477.416 113.818 479.432V491.912C113.818 493.864 113.418 495.208 112.618 495.944C111.818 496.68 110.41 497.048 108.394 497.048C107.53 497.048 106.794 496.968 106.186 496.808C105.578 496.616 105.082 496.344 104.698 495.992C104.346 495.64 104.074 495.176 103.882 494.6C102.57 495.464 101.178 496.072 99.7056 496.424C98.2656 496.776 96.6496 496.952 94.8576 496.952C92.5856 496.952 90.9536 496.072 89.9616 494.312C88.9696 492.52 88.4736 489.592 88.4736 485.528C88.4736 483.512 88.5216 481.88 88.6176 480.632C88.7136 479.352 88.8576 478.264 89.0496 477.368C89.2736 476.44 89.5936 475.752 90.0096 475.304C90.4576 474.856 90.9696 474.536 91.5456 474.344C92.1536 474.152 92.9376 474.056 93.8976 474.056C95.6896 474.056 96.9696 474.392 97.7376 475.064C98.5376 475.736 98.9376 476.744 98.9376 478.088L98.9856 486.872ZM128.842 478.136C128.842 477.272 128.682 476.552 128.362 475.976C128.042 475.4 127.498 474.952 126.73 474.632C125.994 474.312 125.018 474.152 123.802 474.152C123.002 474.152 122.33 474.2 121.786 474.296C121.274 474.424 120.794 474.648 120.346 474.968C119.93 475.32 119.594 475.752 119.338 476.264C119.114 476.776 118.922 477.48 118.762 478.376C118.602 479.272 118.49 480.28 118.426 481.4C118.394 482.52 118.378 483.928 118.378 485.624C118.378 489.688 118.874 492.584 119.866 494.312C120.858 496.04 122.49 496.904 124.762 496.904C128.346 496.904 131.37 496.008 133.834 494.216L134.314 493.832C135.37 495.88 137.082 496.904 139.45 496.904C141.018 496.904 142.378 496.728 143.53 496.376C144.714 496.024 145.914 495.4 147.13 494.504C147.834 496.2 149.498 497.048 152.122 497.048C153.594 497.048 154.778 496.552 155.674 495.56C156.538 494.568 156.97 493.256 156.97 491.624V479.816C156.97 477.8 156.634 476.344 155.962 475.448C155.258 474.584 153.962 474.152 152.074 474.152C150.058 474.152 148.65 474.52 147.85 475.256C147.05 476.024 146.65 477.368 146.65 479.288V485.96C146.65 487.016 146.458 487.88 146.074 488.552C145.722 489.192 145.258 489.512 144.682 489.512C143.242 489.512 142.522 488.616 142.522 486.824V478.136C142.522 477.272 142.378 476.552 142.09 475.976C141.802 475.4 141.322 474.952 140.65 474.632C139.946 474.312 139.034 474.152 137.914 474.152C137.178 474.152 136.57 474.2 136.09 474.296C135.61 474.424 135.178 474.648 134.794 474.968C134.41 475.32 134.106 475.752 133.882 476.264C133.658 476.776 133.466 477.48 133.306 478.376C133.146 479.272 133.034 480.28 132.97 481.4C132.938 482.52 132.922 483.928 132.922 485.624C132.922 486.744 132.762 487.672 132.442 488.408C132.122 489.144 131.642 489.512 131.002 489.512C129.562 489.512 128.842 488.616 128.842 486.824V478.136ZM169.863 497.288C167.335 497.288 165.239 496.264 163.575 494.216C161.911 492.136 161.079 489.304 161.079 485.72C161.079 482.072 161.895 479.176 163.527 477.032C165.191 474.856 167.303 473.768 169.863 473.768C172.455 473.768 174.855 474.68 177.063 476.504C177.927 474.904 179.319 474.104 181.239 474.104C182.967 474.104 184.311 474.488 185.271 475.256C186.231 475.992 186.711 477.368 186.711 479.384V491.864C186.711 493.784 186.311 495.128 185.51 495.896C184.711 496.632 183.303 497 181.287 497C179.175 497 177.783 496.408 177.111 495.224C175.063 496.6 172.647 497.288 169.863 497.288ZM176.391 481.112C175.847 480.184 175.143 479.72 174.279 479.72C173.447 479.72 172.775 480.328 172.263 481.544C171.751 482.76 171.495 484.152 171.495 485.72C171.495 487.192 171.735 488.504 172.215 489.656C172.695 490.808 173.367 491.384 174.231 491.384C175.127 491.384 175.847 490.952 176.391 490.088V481.112ZM218.248 489.944C217.832 491.16 217.208 491.768 216.376 491.768C215.544 491.768 214.904 491.16 214.456 489.944C214.008 488.696 213.784 487.256 213.784 485.624C213.784 484.568 213.88 483.576 214.072 482.648C214.264 481.72 214.568 480.936 214.984 480.296C215.4 479.656 215.88 479.336 216.424 479.336C217.224 479.336 217.832 479.96 218.248 481.208C218.664 482.488 218.872 483.96 218.872 485.624C218.872 487.288 218.664 488.728 218.248 489.944ZM225.928 476.984C223.464 474.84 220.28 473.768 216.376 473.768C212.472 473.768 209.272 474.84 206.776 476.984C205.016 478.488 203.88 480.376 203.368 482.648H201.16V479.384C201.16 477.368 200.68 475.992 199.72 475.256C198.76 474.488 197.416 474.104 195.688 474.104C194.216 474.104 193.032 474.6 192.136 475.592C191.272 476.584 190.84 477.896 190.84 479.528V491.336C190.84 493.352 191.176 494.808 191.848 495.704C192.552 496.568 193.848 497 195.736 497C197.752 497 199.16 496.632 199.96 495.896C200.76 495.128 201.16 493.784 201.16 491.864V488.456H203.368C203.656 489.736 204.152 490.904 204.856 491.96C206.04 493.752 207.64 495.096 209.656 495.992C211.64 496.888 213.88 497.336 216.376 497.336C220.184 497.336 223.352 496.296 225.88 494.216C228.376 492.136 229.624 489.288 229.624 485.672C229.624 482.024 228.392 479.128 225.928 476.984ZM262.391 484.328C262.391 482.536 261.671 481.64 260.231 481.64C259.591 481.64 259.111 482.008 258.791 482.744C258.471 483.48 258.311 484.408 258.311 485.528C258.311 487.224 258.279 488.632 258.215 489.752C258.183 490.872 258.087 491.88 257.927 492.776C257.767 493.672 257.575 494.376 257.351 494.888C257.127 495.4 256.823 495.832 256.439 496.184C256.055 496.504 255.623 496.728 255.143 496.856C254.663 496.952 254.055 497 253.319 497C252.199 497 251.287 496.84 250.583 496.52C249.911 496.2 249.431 495.752 249.143 495.176C248.855 494.6 248.711 493.88 248.711 493.016V484.328C248.711 482.536 247.991 481.64 246.551 481.64C245.975 481.64 245.495 481.976 245.111 482.648C244.759 483.288 244.583 484.136 244.583 485.192V491.864C244.583 493.784 244.183 495.128 243.383 495.896C242.583 496.632 241.175 497 239.159 497C237.271 497 235.975 496.568 235.271 495.704C234.599 494.808 234.263 493.352 234.263 491.336V479.528C234.263 477.896 234.695 476.584 235.559 475.592C236.455 474.6 237.639 474.104 239.111 474.104C241.735 474.104 243.399 474.952 244.103 476.648C245.319 475.752 246.503 475.128 247.655 474.776C248.839 474.424 250.215 474.248 251.783 474.248C254.151 474.248 255.863 475.272 256.919 477.32C257.079 477.192 257.239 477.064 257.399 476.936C259.863 475.144 262.887 474.248 266.471 474.248C268.743 474.248 270.375 475.112 271.367 476.84C272.359 478.568 272.855 481.464 272.855 485.528C272.855 487.224 272.823 488.632 272.759 489.752C272.727 490.872 272.631 491.88 272.471 492.776C272.311 493.672 272.103 494.376 271.847 494.888C271.623 495.4 271.287 495.832 270.839 496.184C270.423 496.504 269.943 496.728 269.399 496.856C268.887 496.952 268.231 497 267.431 497C266.215 497 265.223 496.84 264.455 496.52C263.719 496.2 263.191 495.752 262.871 495.176C262.551 494.6 262.391 493.88 262.391 493.016V484.328ZM287.556 492.632C287.588 492.248 287.604 491.816 287.604 491.336V485.48L287.796 485.528C288.276 485.624 288.708 485.816 289.092 486.104C289.508 486.36 289.828 486.744 290.052 487.256C290.244 487.736 290.34 488.344 290.34 489.08C290.34 489.912 290.26 490.552 290.1 491C289.94 491.48 289.668 491.848 289.284 492.104C288.9 492.36 288.484 492.52 288.036 492.584L287.556 492.632ZM277.284 491.864C277.284 493.784 277.684 495.128 278.484 495.896C279.028 496.376 279.844 496.712 280.932 496.904C281.284 496.968 281.668 497 282.084 497H282.18H282.708H283.14H287.988C289.46 497 290.804 496.808 292.02 496.424C293.236 496.008 294.308 495.448 295.236 494.744C296.132 494.072 296.82 493.192 297.3 492.104C297.812 491.048 298.068 489.88 298.068 488.6C298.068 487.032 297.62 485.656 296.724 484.472C295.796 483.288 294.58 482.408 293.076 481.832C291.604 481.256 289.924 480.968 288.036 480.968H287.604V479.528C287.604 477.896 287.156 476.584 286.26 475.592C285.396 474.6 284.228 474.104 282.756 474.104H282.468H282.084C280.964 474.104 280.084 474.328 279.444 474.776C279.188 474.904 278.948 475.064 278.724 475.256C277.764 475.992 277.284 477.368 277.284 479.384V491.864ZM316.619 479.048C316.619 478.312 316.203 477.944 315.371 477.944C314.763 477.944 314.219 478.28 313.739 478.952C313.259 479.624 312.891 480.472 312.635 481.496C312.379 482.488 312.251 483.528 312.251 484.616C312.251 486.216 312.731 487.512 313.691 488.504C314.683 489.496 316.011 489.992 317.675 489.992C319.307 489.992 320.715 489.8 321.899 489.416C322.379 489.288 322.955 489.048 323.627 488.696C324.331 488.344 324.827 488.168 325.115 488.168C325.563 488.168 325.931 488.248 326.219 488.408C326.507 488.568 326.699 488.76 326.795 488.984C326.923 489.208 326.987 489.448 326.987 489.704C326.987 490.152 326.827 490.696 326.507 491.336C326.219 491.976 325.755 492.648 325.115 493.352C324.475 494.056 323.723 494.712 322.859 495.32C322.027 495.896 320.987 496.376 319.739 496.76C318.491 497.144 317.179 497.336 315.803 497.336C311.835 497.336 308.571 496.28 306.011 494.168C303.451 492.024 302.171 489.096 302.171 485.384C302.171 483.016 302.747 480.952 303.899 479.192C305.083 477.4 306.699 476.056 308.747 475.16C310.795 474.232 313.147 473.768 315.803 473.768C318.331 473.768 320.411 474.072 322.043 474.68C323.707 475.256 324.891 476.04 325.595 477.032C326.299 478.024 326.651 479.208 326.651 480.584C326.651 481.192 326.523 481.816 326.267 482.456C326.043 483.096 325.675 483.736 325.163 484.376C324.683 485.016 323.963 485.544 323.003 485.96C322.043 486.344 320.923 486.536 319.643 486.536C319.067 486.536 318.587 486.504 318.203 486.44C317.851 486.376 317.467 486.248 317.051 486.056C316.667 485.832 316.379 485.48 316.187 485C315.995 484.52 315.899 483.912 315.899 483.176C315.899 482.536 316.011 481.768 316.235 480.872C316.491 479.944 316.619 479.336 316.619 479.048ZM339.018 480.104C339.178 479.624 339.45 479.272 339.834 479.048C340.218 478.792 340.634 478.632 341.082 478.568L341.562 478.472C341.53 478.888 341.514 479.336 341.514 479.816V485.672L341.322 485.624C340.842 485.496 340.41 485.304 340.026 485.048C339.61 484.792 339.29 484.408 339.066 483.896C338.874 483.384 338.778 482.776 338.778 482.072C338.778 481.24 338.858 480.584 339.018 480.104ZM350.634 475.256C350.09 474.744 349.274 474.408 348.186 474.248C347.834 474.184 347.466 474.152 347.082 474.152H346.938H346.41H345.978H341.13C339.658 474.152 338.314 474.344 337.098 474.728C335.882 475.112 334.826 475.656 333.93 476.36C333.002 477.064 332.298 477.944 331.818 479C331.306 480.056 331.05 481.24 331.05 482.552C331.05 484.12 331.514 485.496 332.442 486.68C332.634 486.904 332.842 487.144 333.066 487.4C332.842 487.56 332.618 487.752 332.394 487.976C331.498 488.968 331.05 490.2 331.05 491.672C331.05 493.848 331.338 495.288 331.914 495.992C332.49 496.696 333.45 497.048 334.794 497.048C337.354 497.048 338.634 495.928 338.634 493.688C338.634 491.992 338.778 490.776 339.066 490.04C339.706 490.136 340.378 490.184 341.082 490.184H341.514V491.624C341.514 493.256 341.962 494.568 342.858 495.56C343.722 496.552 344.89 497.048 346.362 497.048H346.65H347.082C348.17 497.048 349.034 496.824 349.674 496.376C349.93 496.216 350.17 496.056 350.394 495.896C351.354 495.16 351.834 493.784 351.834 491.768V479.288C351.834 477.368 351.434 476.024 350.634 475.256ZM13.7678 533.64C13.7678 533.96 13.7358 534.184 13.6718 534.312C13.5758 534.472 13.2398 534.616 12.6638 534.744C12.0878 534.872 11.1918 534.936 9.97581 534.936C8.15181 534.936 7.23981 535.624 7.23981 537C7.23981 537.928 7.51181 538.568 8.05581 538.92C8.59981 539.24 9.52781 539.4 10.8398 539.4C11.4798 539.4 12.0238 539.432 12.4718 539.496C12.8878 539.528 13.2238 539.608 13.4798 539.736C13.7358 539.896 13.9118 540.072 14.0078 540.264C14.1038 540.456 14.1518 540.696 14.1518 540.984C14.1518 541.88 12.9358 542.328 10.5038 542.328C10.0558 542.328 9.41581 542.296 8.58381 542.232C7.71981 542.136 7.07981 542.088 6.66381 542.088C5.86381 542.088 5.23981 542.296 4.79181 542.712C4.34381 543.096 4.11981 543.864 4.11981 545.016C4.11981 546.36 4.82381 547.368 6.23181 548.04C7.60781 548.68 9.91181 549 13.1438 549C15.7358 549 17.7998 548.392 19.3358 547.176C20.8718 545.96 21.6398 544.376 21.6398 542.424C21.6398 541.464 21.5118 540.664 21.2558 540.024C20.9998 539.352 20.6318 538.808 20.1518 538.392C19.6718 537.944 18.9838 537.48 18.0878 537C20.0078 535.688 20.9678 533.912 20.9678 531.672C20.9678 530.104 20.2158 528.824 18.7118 527.832C17.2398 526.84 14.9998 526.344 11.9918 526.344C7.31981 526.344 4.98381 527.336 4.98381 529.32C4.98381 531.272 5.78381 532.248 7.38381 532.248C7.70381 532.248 8.23181 532.216 8.96781 532.152C9.70381 532.056 10.2798 532.008 10.6958 532.008C12.7438 532.008 13.7678 532.552 13.7678 533.64ZM34.5578 549.288C32.0298 549.288 29.9338 548.264 28.2698 546.216C26.6058 544.136 25.7738 541.304 25.7738 537.72C25.7738 534.072 26.5898 531.176 28.2218 529.032C29.8858 526.856 31.9978 525.768 34.5578 525.768C37.1498 525.768 39.5498 526.68 41.7578 528.504C42.6218 526.904 44.0138 526.104 45.9338 526.104C47.6618 526.104 49.0058 526.488 49.9658 527.256C50.9258 527.992 51.4058 529.368 51.4058 531.384V543.864C51.4058 545.784 51.0058 547.128 50.2058 547.896C49.4058 548.632 47.9978 549 45.9818 549C43.8698 549 42.4778 548.408 41.8058 547.224C39.7578 548.6 37.3418 549.288 34.5578 549.288ZM41.0858 533.112C40.5418 532.184 39.8378 531.72 38.9738 531.72C38.1418 531.72 37.4698 532.328 36.9578 533.544C36.4458 534.76 36.1898 536.152 36.1898 537.72C36.1898 539.192 36.4298 540.504 36.9098 541.656C37.3898 542.808 38.0618 543.384 38.9258 543.384C39.8218 543.384 40.5418 542.952 41.0858 542.088V533.112ZM64.6549 549.288C62.1269 549.288 60.0309 548.264 58.3669 546.216C56.7029 544.136 55.8709 541.288 55.8709 537.672C55.8709 534.024 56.6869 531.128 58.3189 528.984C59.9509 526.84 62.0469 525.768 64.6069 525.768C67.1989 525.768 69.5989 526.664 71.8069 528.456C72.6389 526.888 74.0149 526.104 75.9349 526.104C77.6629 526.104 79.0069 526.488 79.9669 527.256C80.9589 528.024 81.4549 529.4 81.4549 531.384V540.168C81.4549 543.272 81.2469 545.944 80.8309 548.184C80.4469 550.392 79.7589 552.344 78.7669 554.04C77.8069 555.736 76.4629 557 74.7349 557.832C73.0389 558.664 70.9429 559.08 68.4469 559.08C66.7189 559.08 65.1189 558.84 63.6469 558.36C62.1749 557.88 61.0069 557.288 60.1429 556.584C59.2789 555.88 58.6069 555.176 58.1269 554.472C57.6469 553.768 57.4069 553.16 57.4069 552.648C57.4069 552.04 57.5829 551.528 57.9349 551.112C58.2869 550.696 58.7829 550.488 59.4229 550.488C59.8069 550.488 60.7669 550.904 62.3029 551.736C63.8709 552.568 65.1349 552.984 66.0949 552.984C69.3589 552.984 70.9909 551.304 70.9909 547.944C69.1349 548.84 67.0229 549.288 64.6549 549.288ZM71.1829 542.088L71.1349 533.016C70.5909 532.12 69.9029 531.672 69.0709 531.672C68.4949 531.672 67.9829 531.976 67.5349 532.584C67.1189 533.192 66.7989 533.944 66.5749 534.84C66.3829 535.736 66.2869 536.68 66.2869 537.672C66.2869 539.176 66.5269 540.504 67.0069 541.656C67.4869 542.776 68.1589 543.336 69.0229 543.336C69.8869 543.336 70.6069 542.92 71.1829 542.088ZM101.376 537.624C101.376 535.96 101.168 534.504 100.752 533.256C100.336 531.976 99.7281 531.336 98.9281 531.336C98.3841 531.336 97.9041 531.656 97.4881 532.296C97.0721 532.936 96.7681 533.72 96.5761 534.648C96.3841 535.576 96.2881 536.568 96.2881 537.624C96.2881 539.256 96.5121 540.696 96.9601 541.944C97.4081 543.16 98.0481 543.768 98.8801 543.768C99.7121 543.768 100.336 543.16 100.752 541.944C101.168 540.728 101.376 539.288 101.376 537.624ZM98.8801 549.336C96.3841 549.336 94.1281 548.888 92.1121 547.992C90.1281 547.096 88.5281 545.752 87.3121 543.96C86.1281 542.168 85.5361 540.072 85.5361 537.672C85.5361 534.024 86.7841 531.128 89.2801 528.984C91.7761 526.84 94.9761 525.768 98.8801 525.768C102.784 525.768 105.968 526.84 108.432 528.984C110.896 531.128 112.128 534.024 112.128 537.672C112.128 541.288 110.864 544.136 108.336 546.216C105.84 548.296 102.688 549.336 98.8801 549.336ZM128.537 543.096C127.641 543.096 126.921 542.664 126.377 541.8V539.4C126.825 539.496 127.353 539.544 127.961 539.544C128.601 539.544 129.129 539.56 129.545 539.592C129.993 539.656 130.345 539.752 130.601 539.88C130.729 539.976 130.841 540.072 130.937 540.168C130.841 540.584 130.713 540.984 130.553 541.368C130.073 542.52 129.401 543.096 128.537 543.096ZM128.489 531.432C129.321 531.432 129.993 532.04 130.505 533.256C130.633 533.544 130.745 533.864 130.841 534.216C130.809 534.312 130.777 534.392 130.745 534.456C130.681 534.616 130.361 534.76 129.785 534.888C129.209 535.016 128.313 535.08 127.097 535.08C126.841 535.08 126.601 535.08 126.377 535.08V532.824C126.921 531.896 127.625 531.432 128.489 531.432ZM140.585 539.592C140.329 538.92 139.961 538.36 139.481 537.912C138.969 537.464 138.265 536.984 137.369 536.472C139.321 535.128 140.297 533.288 140.297 530.952C140.297 529.32 139.545 527.992 138.041 526.968C137.369 526.52 136.537 526.168 135.545 525.912C134.713 525.624 133.833 525.48 132.905 525.48C130.313 525.48 127.913 526.392 125.705 528.216C124.841 526.616 123.449 525.816 121.529 525.816C119.801 525.816 118.457 526.2 117.497 526.968C116.537 527.704 116.057 529.08 116.057 531.096V543.576C116.057 545.496 116.457 546.84 117.257 547.608C118.057 548.344 119.465 548.712 121.481 548.712C123.593 548.712 124.985 548.12 125.657 546.936C127.705 548.312 130.121 549 132.905 549C133.865 549 134.761 548.856 135.593 548.568C136.777 548.248 137.785 547.736 138.617 547.032C140.185 545.784 140.969 544.152 140.969 542.136C140.969 541.112 140.841 540.264 140.585 539.592ZM160.814 537.624C160.814 535.96 160.606 534.504 160.19 533.256C159.774 531.976 159.166 531.336 158.366 531.336C157.822 531.336 157.342 531.656 156.926 532.296C156.51 532.936 156.206 533.72 156.014 534.648C155.822 535.576 155.726 536.568 155.726 537.624C155.726 539.256 155.95 540.696 156.398 541.944C156.846 543.16 157.486 543.768 158.318 543.768C159.15 543.768 159.774 543.16 160.19 541.944C160.606 540.728 160.814 539.288 160.814 537.624ZM158.318 549.336C155.822 549.336 153.566 548.888 151.55 547.992C149.566 547.096 147.966 545.752 146.75 543.96C145.566 542.168 144.974 540.072 144.974 537.672C144.974 534.024 146.222 531.128 148.718 528.984C151.214 526.84 154.414 525.768 158.318 525.768C162.222 525.768 165.406 526.84 167.87 528.984C170.334 531.128 171.566 534.024 171.566 537.672C171.566 541.288 170.302 544.136 167.774 546.216C165.278 548.296 162.126 549.336 158.318 549.336ZM188.167 533.304C188.519 533.304 188.823 533.336 189.079 533.4C189.303 533.464 189.479 533.592 189.607 533.784C189.767 533.944 189.895 534.104 189.991 534.264C190.087 534.424 190.151 534.68 190.183 535.032C190.215 535.384 190.231 535.672 190.231 535.896V537.048L190.279 544.728C190.279 546.2 190.695 547.288 191.527 547.992C192.359 548.664 193.767 549 195.751 549C197.159 549 198.215 548.712 198.919 548.136C199.591 547.528 200.071 546.472 200.359 544.968C200.647 543.432 200.791 541.096 200.791 537.96C200.791 536.232 200.519 534.68 199.975 533.304C199.431 531.928 198.727 530.808 197.863 529.944C196.999 529.048 196.007 528.296 194.887 527.688C193.735 527.112 192.599 526.696 191.479 526.44C190.359 526.216 189.239 526.104 188.119 526.104C186.967 526.104 185.831 526.216 184.711 526.44C183.591 526.696 182.471 527.112 181.351 527.688C180.231 528.296 179.255 529.048 178.423 529.944C177.559 530.808 176.855 531.928 176.311 533.304C175.767 534.68 175.495 536.232 175.495 537.96C175.495 539.848 175.543 541.4 175.639 542.616C175.735 543.864 175.879 544.92 176.071 545.784C176.263 546.68 176.567 547.336 176.983 547.752C177.399 548.2 177.879 548.52 178.423 548.712C178.967 548.904 179.671 549 180.535 549C181.879 549 182.951 548.84 183.751 548.52C184.551 548.2 185.127 547.736 185.479 547.128C185.799 546.52 185.959 545.72 185.959 544.728L186.007 537C186.007 535.592 186.135 534.632 186.391 534.12C186.647 533.576 187.239 533.304 188.167 533.304ZM218.322 549.288C214.418 549.288 211.186 548.28 208.626 546.264C206.098 544.248 204.834 541.496 204.834 538.008C204.834 534.232 206.082 531.256 208.578 529.08C211.106 526.872 214.354 525.768 218.322 525.768C222.066 525.768 224.802 526.44 226.53 527.784C228.29 529.096 229.17 530.904 229.17 533.208C229.17 533.656 229.106 534.088 228.978 534.504C228.882 534.92 228.706 535.336 228.45 535.752C228.226 536.136 227.906 536.504 227.49 536.856C227.106 537.176 226.658 537.48 226.146 537.768C225.634 538.024 225.026 538.232 224.322 538.392C223.618 538.52 222.866 538.584 222.066 538.584L215.298 538.632C215.618 539.656 216.194 540.472 217.026 541.08C217.858 541.656 218.914 541.944 220.194 541.944C221.57 541.944 222.978 541.768 224.418 541.416C225.026 541.256 225.682 541 226.386 540.648C227.122 540.296 227.65 540.12 227.97 540.12C228.514 540.12 228.93 540.28 229.218 540.6C229.538 540.92 229.698 541.32 229.698 541.8C229.698 542.376 229.442 543.08 228.93 543.912C228.418 544.712 227.698 545.528 226.77 546.36C225.874 547.16 224.674 547.848 223.17 548.424C221.666 549 220.05 549.288 218.322 549.288ZM215.058 535.56C217.266 535.528 218.466 535.512 218.658 535.512C219.138 535.512 219.49 535.224 219.714 534.648C219.874 534.232 219.954 533.656 219.954 532.92C219.954 530.904 219.346 529.896 218.13 529.896C217.682 529.896 217.234 530.136 216.786 530.616C216.37 531.096 216.002 531.784 215.682 532.68C215.362 533.544 215.154 534.504 215.058 535.56ZM257.477 527.256C256.517 526.488 255.173 526.104 253.445 526.104C251.973 526.104 250.789 526.6 249.893 527.592C249.029 528.584 248.597 529.896 248.597 531.528V534.648H243.893V531.384C243.893 529.368 243.413 527.992 242.453 527.256C241.493 526.488 240.149 526.104 238.421 526.104C236.949 526.104 235.765 526.6 234.869 527.592C234.005 528.584 233.573 529.896 233.573 531.528V543.336C233.573 545.352 233.909 546.808 234.581 547.704C235.285 548.568 236.581 549 238.469 549C240.485 549 241.893 548.632 242.693 547.896C243.493 547.128 243.893 545.784 243.893 543.864V540.456H248.597V543.336C248.597 545.352 248.933 546.808 249.605 547.704C250.309 548.568 251.605 549 253.493 549C255.509 549 256.917 548.632 257.717 547.896C258.517 547.128 258.917 545.784 258.917 543.864V531.384C258.917 529.368 258.437 527.992 257.477 527.256ZM273.759 538.872C273.759 540.696 274.463 541.608 275.871 541.608C276.351 541.608 276.767 541.464 277.119 541.176C277.503 540.856 277.791 540.424 277.983 539.88C278.175 539.336 278.271 538.712 278.271 538.008V531.576C278.271 530.488 278.463 529.544 278.847 528.744C279.231 527.912 279.791 527.272 280.527 526.824C281.263 526.376 282.127 526.152 283.119 526.152C284.847 526.152 286.191 526.536 287.151 527.304C288.111 528.04 288.591 529.416 288.591 531.432V543.912C288.591 545.864 288.191 547.208 287.391 547.944C286.591 548.68 285.183 549.048 283.167 549.048C282.303 549.048 281.567 548.968 280.959 548.808C280.351 548.616 279.855 548.344 279.471 547.992C279.119 547.64 278.847 547.176 278.655 546.6C277.343 547.464 275.951 548.072 274.479 548.424C273.039 548.776 271.423 548.952 269.631 548.952C267.359 548.952 265.727 548.072 264.735 546.312C263.743 544.52 263.247 541.592 263.247 537.528C263.247 535.512 263.295 533.88 263.391 532.632C263.487 531.352 263.631 530.264 263.823 529.368C264.047 528.44 264.367 527.752 264.783 527.304C265.231 526.856 265.743 526.536 266.319 526.344C266.927 526.152 267.711 526.056 268.671 526.056C270.463 526.056 271.743 526.392 272.511 527.064C273.311 527.736 273.711 528.744 273.711 530.088L273.759 538.872ZM323.439 527.304C322.479 526.536 321.135 526.152 319.407 526.152C317.935 526.152 316.767 526.648 315.903 527.64L315.663 527.928C315.151 528.312 314.511 529.032 313.743 530.088L309.183 535.848L304.575 529.992C304.159 529.448 303.791 528.984 303.471 528.6C303.151 528.216 302.831 527.896 302.511 527.64L302.127 527.352L302.031 527.304C301.071 526.536 299.727 526.152 297.999 526.152C296.527 526.152 295.343 526.648 294.447 527.64C293.583 528.632 293.151 529.944 293.151 531.576V543.384C293.151 545.4 293.503 546.856 294.207 547.752C294.879 548.616 296.159 549.048 298.047 549.048C300.063 549.048 301.471 548.68 302.271 547.944C303.071 547.176 303.471 545.832 303.471 543.912V540.36L305.583 543.096C306.447 544.216 307.631 544.792 309.135 544.824C310.735 544.856 311.967 544.28 312.831 543.096L314.559 540.84V543.384C314.559 545.4 314.911 546.856 315.615 547.752C316.287 548.616 317.567 549.048 319.455 549.048C321.471 549.048 322.879 548.68 323.679 547.944C324.479 547.176 324.879 545.832 324.879 543.912V531.432C324.879 529.416 324.399 528.04 323.439 527.304ZM339.712 538.872C339.712 540.696 340.416 541.608 341.824 541.608C342.304 541.608 342.72 541.464 343.072 541.176C343.456 540.856 343.744 540.424 343.936 539.88C344.128 539.336 344.224 538.712 344.224 538.008V531.576C344.224 530.488 344.416 529.544 344.8 528.744C345.184 527.912 345.744 527.272 346.48 526.824C347.216 526.376 348.08 526.152 349.072 526.152C350.8 526.152 352.144 526.536 353.104 527.304C354.064 528.04 354.544 529.416 354.544 531.432V543.912C354.544 545.864 354.144 547.208 353.344 547.944C352.544 548.68 351.136 549.048 349.12 549.048C348.256 549.048 347.52 548.968 346.912 548.808C346.304 548.616 345.808 548.344 345.424 547.992C345.072 547.64 344.8 547.176 344.608 546.6C343.296 547.464 341.904 548.072 340.432 548.424C338.992 548.776 337.376 548.952 335.584 548.952C333.312 548.952 331.68 548.072 330.688 546.312C329.696 544.52 329.2 541.592 329.2 537.528C329.2 535.512 329.248 533.88 329.344 532.632C329.44 531.352 329.584 530.264 329.776 529.368C330 528.44 330.32 527.752 330.736 527.304C331.184 526.856 331.696 526.536 332.272 526.344C332.88 526.152 333.664 526.056 334.624 526.056C336.416 526.056 337.696 526.392 338.464 527.064C339.264 527.736 339.664 528.744 339.664 530.088L339.712 538.872Z" fill="#E3CE0B"/>
<circle cx="177" cy="157" r="157" fill="#E3CE0B"/>
<g clip-path="url(#clip0)">
<path d="M106.175 214.296C106.923 213.567 107.187 212.497 106.865 211.502C106.541 210.508 105.699 209.798 104.664 209.647L95.463 208.31C95.0712 208.253 94.7326 208.007 94.5575 207.652L90.444 199.315C89.9822 198.379 89.0447 197.797 88 197.797C86.956 197.797 86.0186 198.379 85.5567 199.315L81.4424 207.653C81.2674 208.008 80.9281 208.254 80.5362 208.311L71.3352 209.648C70.3012 209.798 69.4581 210.509 69.1347 211.503C68.812 212.498 69.0761 213.567 69.8241 214.296L76.4813 220.785C76.7651 221.062 76.8952 221.461 76.8283 221.851L75.2577 231.014C75.1185 231.82 75.33 232.605 75.852 233.223C76.6631 234.187 78.0792 234.481 79.2114 233.886L87.44 229.559C87.7839 229.379 88.2169 229.381 88.56 229.559L96.7893 233.886C97.1895 234.097 97.6164 234.203 98.057 234.203C98.8613 234.203 99.6237 233.846 100.148 233.223C100.671 232.605 100.881 231.819 100.742 231.014L99.171 221.851C99.104 221.46 99.2341 221.062 99.5179 220.785L106.175 214.296Z" fill="#2B1F19"/>
</g>
<g clip-path="url(#clip1)">
<path d="M151.175 214.296C151.923 213.567 152.187 212.497 151.865 211.502C151.541 210.508 150.699 209.798 149.664 209.647L140.463 208.31C140.071 208.253 139.733 208.007 139.558 207.652L135.444 199.315C134.982 198.379 134.045 197.797 133 197.797C131.956 197.797 131.019 198.379 130.557 199.315L126.442 207.653C126.267 208.008 125.928 208.254 125.536 208.311L116.335 209.648C115.301 209.798 114.458 210.509 114.135 211.503C113.812 212.498 114.076 213.567 114.824 214.296L121.481 220.785C121.765 221.062 121.895 221.461 121.828 221.851L120.258 231.014C120.118 231.82 120.33 232.605 120.852 233.223C121.663 234.187 123.079 234.481 124.211 233.886L132.44 229.559C132.784 229.379 133.217 229.381 133.56 229.559L141.789 233.886C142.19 234.097 142.616 234.203 143.057 234.203C143.861 234.203 144.624 233.846 145.148 233.223C145.671 232.605 145.881 231.819 145.742 231.014L144.171 221.851C144.104 221.46 144.234 221.062 144.518 220.785L151.175 214.296Z" fill="#2B1F19"/>
</g>
<g clip-path="url(#clip2)">
<path d="M196.175 214.296C196.923 213.567 197.187 212.497 196.865 211.502C196.541 210.508 195.699 209.798 194.664 209.647L185.463 208.31C185.071 208.253 184.733 208.007 184.558 207.652L180.444 199.315C179.982 198.379 179.045 197.797 178 197.797C176.956 197.797 176.019 198.379 175.557 199.315L171.442 207.653C171.267 208.008 170.928 208.254 170.536 208.311L161.335 209.648C160.301 209.798 159.458 210.509 159.135 211.503C158.812 212.498 159.076 213.567 159.824 214.296L166.481 220.785C166.765 221.062 166.895 221.461 166.828 221.851L165.258 231.014C165.119 231.82 165.33 232.605 165.852 233.223C166.663 234.187 168.079 234.481 169.211 233.886L177.44 229.559C177.784 229.379 178.217 229.381 178.56 229.559L186.789 233.886C187.19 234.097 187.616 234.203 188.057 234.203C188.861 234.203 189.624 233.846 190.148 233.223C190.671 232.605 190.882 231.819 190.742 231.014L189.171 221.851C189.104 221.46 189.234 221.062 189.518 220.785L196.175 214.296Z" fill="#2B1F19"/>
</g>
<g clip-path="url(#clip3)">
<path d="M241.175 214.296C241.923 213.567 242.187 212.497 241.865 211.502C241.541 210.508 240.699 209.798 239.664 209.647L230.463 208.31C230.071 208.253 229.733 208.007 229.558 207.652L225.444 199.315C224.982 198.379 224.045 197.797 223 197.797C221.956 197.797 221.019 198.379 220.557 199.315L216.442 207.653C216.267 208.008 215.928 208.254 215.536 208.311L206.335 209.648C205.301 209.798 204.458 210.509 204.135 211.503C203.812 212.498 204.076 213.567 204.824 214.296L211.481 220.785C211.765 221.062 211.895 221.461 211.828 221.851L210.258 231.014C210.118 231.82 210.33 232.605 210.852 233.223C211.663 234.187 213.079 234.481 214.211 233.886L222.44 229.559C222.784 229.379 223.217 229.381 223.56 229.559L231.789 233.886C232.19 234.097 232.616 234.203 233.057 234.203C233.861 234.203 234.624 233.846 235.148 233.223C235.671 232.605 235.881 231.819 235.742 231.014L234.171 221.851C234.104 221.46 234.234 221.062 234.518 220.785L241.175 214.296Z" fill="#2B1F19"/>
</g>
<g clip-path="url(#clip4)">
<path d="M283.175 214.296C283.923 213.567 284.187 212.497 283.865 211.502C283.541 210.508 282.699 209.798 281.664 209.647L272.463 208.31C272.071 208.253 271.733 208.007 271.558 207.652L267.444 199.315C266.982 198.379 266.045 197.797 265 197.797C263.956 197.797 263.019 198.379 262.557 199.315L258.442 207.653C258.267 208.008 257.928 208.254 257.536 208.311L248.335 209.648C247.301 209.798 246.458 210.509 246.135 211.503C245.812 212.498 246.076 213.567 246.824 214.296L253.481 220.785C253.765 221.062 253.895 221.461 253.828 221.851L252.258 231.014C252.118 231.82 252.33 232.605 252.852 233.223C253.663 234.187 255.079 234.481 256.211 233.886L264.44 229.559C264.784 229.379 265.217 229.381 265.56 229.559L273.789 233.886C274.19 234.097 274.616 234.203 275.057 234.203C275.861 234.203 276.624 233.846 277.148 233.223C277.671 232.605 277.881 231.819 277.742 231.014L276.171 221.851C276.104 221.46 276.234 221.062 276.518 220.785L283.175 214.296Z" fill="#2B1F19" fill-opacity="0.75"/>
</g>
<path d="M134.72 170.88C130 170.88 126.56 169.6 124.4 167.04C122.24 164.4 121.16 159.84 121.16 153.36H98.96C93.76 153.36 89.88 152.12 87.32 149.64C84.84 147.16 83.6 143.96 83.6 140.04C83.6 135.8 84.68 132.04 86.84 128.76C92.52 119.88 98.92 110.28 106.04 99.96C110.2 93.88 115.92 90.84 123.2 90.84L133.64 90.96C139.48 90.96 143.44 91.96 145.52 93.96C147.6 95.88 148.64 99.28 148.64 104.16V135.84C152.08 136.16 154.44 137 155.72 138.36C157 139.72 157.64 141.88 157.64 144.84C157.64 147.88 156.96 150 155.6 151.2C154.24 152.32 151.92 153 148.64 153.24C148.64 159.56 147.48 164.08 145.16 166.8C142.84 169.52 139.36 170.88 134.72 170.88ZM121.04 136.32L121.4 110.76L105.32 136.32H121.04ZM165.163 162.72C165.163 160 166.283 157.8 168.523 156.12C170.843 154.44 174.083 153.6 178.243 153.6C186.963 153.6 191.323 156.64 191.323 162.72C191.323 165.04 190.763 166.92 189.643 168.36C188.523 169.72 187.043 170.64 185.203 171.12C183.363 171.6 181.043 171.84 178.243 171.84C174.483 171.84 171.363 171.12 168.883 169.68C166.403 168.24 165.163 165.92 165.163 162.72ZM237.667 148.68H250.987C257.707 148.68 261.067 152.44 261.067 159.96C261.067 164.2 259.987 167.24 257.827 169.08C255.747 170.84 251.987 171.72 246.547 171.72H214.027C208.427 171.72 204.587 171 202.507 169.56C200.507 168.04 199.507 164.84 199.507 159.96C199.507 158.36 199.667 157 199.987 155.88C200.307 154.68 200.907 153.52 201.787 152.4C202.667 151.28 203.867 150.2 205.387 149.16C209.707 146.28 213.107 143.96 215.587 142.2C218.067 140.44 220.467 138.6 222.787 136.68C225.187 134.68 226.947 133 228.067 131.64C229.187 130.2 230.187 128.6 231.067 126.84C232.027 125.08 232.627 123.32 232.867 121.56C233.187 119.8 233.347 117.72 233.347 115.32C233.347 110.84 231.947 108.6 229.147 108.6C226.107 108.6 224.587 111.24 224.587 116.52C224.587 119.48 223.627 121.4 221.707 122.28C219.787 123.16 216.947 123.6 213.187 123.6C208.067 123.6 204.587 122.48 202.747 120.24C200.987 118 200.107 114.28 200.107 109.08C200.107 103.88 202.547 99.56 207.427 96.12C212.387 92.6 219.267 90.84 228.067 90.84C249.827 90.84 260.707 99.12 260.707 115.68C260.707 119.52 260.267 123.04 259.387 126.24C258.507 129.36 257.427 132 256.147 134.16C254.867 136.24 253.107 138.24 250.867 140.16C248.707 142.08 246.667 143.64 244.747 144.84C242.827 146.04 240.467 147.32 237.667 148.68Z" fill="#2B1F19"/>
<defs>
<clipPath id="clip0">
<rect width="38" height="38" fill="white" transform="translate(69 197)"/>
</clipPath>
<clipPath id="clip1">
<rect width="38" height="38" fill="white" transform="translate(114 197)"/>
</clipPath>
<clipPath id="clip2">
<rect width="38" height="38" fill="white" transform="translate(159 197)"/>
</clipPath>
<clipPath id="clip3">
<rect width="38" height="38" fill="white" transform="translate(204 197)"/>
</clipPath>
<clipPath id="clip4">
<rect width="38" height="38" fill="white" transform="translate(246 197)"/>
</clipPath>
</defs>
</svg>
