<svg width="663" height="221" viewBox="0 0 663 221" fill="none" xmlns="http://www.w3.org/2000/svg">
<path d="M72.3 60C72.3 65.4 71.3333 69.2667 69.4 71.6C67.4667 73.8667 64.5333 75 60.6 75C56.7333 75 53.9 73.9667 52.1 71.9C50.3 69.7667 49.4 66.0333 49.4 60.7L49.3 49.4H28.9V60C28.9 65.4667 27.9667 69.3333 26.1 71.6C24.2333 73.8667 21.2667 75 17.2 75C13.3333 75 10.5 73.9667 8.7 71.9C6.9 69.7667 6 66.0333 6 60.7L5.7 18.5C5.7 14.3667 6.73333 11.3333 8.8 9.4C10.9333 7.46666 13.7333 6.49999 17.2 6.49999C21.2 6.49999 24.1333 7.23333 26 8.7C27.9333 10.1667 28.9 13.1333 28.9 17.6V34.4H49.2V18.5C49.2 15.7 49.7 13.4 50.7 11.6C51.7667 9.73333 53.1 8.43333 54.7 7.7C56.3667 6.89999 58.3333 6.49999 60.6 6.49999C64.4667 6.49999 67.3667 7.23333 69.3 8.7C71.3 10.1667 72.3 13.1333 72.3 17.6V60ZM100.527 75.6C95.2607 75.6 90.894 73.4667 87.4273 69.2C83.9607 64.8667 82.2273 58.9667 82.2273 51.5C82.2273 43.9 83.9273 37.8667 87.3273 33.4C90.794 28.8667 95.194 26.6 100.527 26.6C105.927 26.6 110.927 28.5 115.527 32.3C117.327 28.9667 120.227 27.3 124.227 27.3C127.827 27.3 130.627 28.1 132.627 29.7C134.627 31.2333 135.627 34.1 135.627 38.3V64.3C135.627 68.3 134.794 71.1 133.127 72.7C131.461 74.2333 128.527 75 124.327 75C119.927 75 117.027 73.7667 115.627 71.3C111.361 74.1667 106.327 75.6 100.527 75.6ZM114.127 41.9C112.994 39.9667 111.527 39 109.727 39C107.994 39 106.594 40.2667 105.527 42.8C104.461 45.3333 103.927 48.2333 103.927 51.5C103.927 54.5667 104.427 57.3 105.427 59.7C106.427 62.1 107.827 63.3 109.627 63.3C111.494 63.3 112.994 62.4 114.127 60.6V41.9ZM185.73 28.7C184.33 27.7667 181.83 27.3 178.23 27.3H154.93C154.196 27.3 153.496 27.3667 152.83 27.5C150.296 27.8333 148.563 28.8 147.63 30.4H147.53C145.73 32.4667 144.83 35.2 144.83 38.6V63.2C144.83 67.4 145.53 70.4333 146.93 72.3C148.396 74.1 151.096 75 155.03 75C159.23 75 162.163 74.2333 163.83 72.7C165.496 71.1 166.33 68.3 166.33 64.3V39.5H177.23C181.03 39.5 183.73 39.1 185.33 38.3C186.996 37.5667 187.83 36.1333 187.83 34C187.83 31.4667 187.13 29.7 185.73 28.7ZM227.232 51.3C227.232 47.8333 226.799 44.8 225.932 42.2C225.065 39.5333 223.799 38.2 222.132 38.2C220.999 38.2 219.999 38.8667 219.132 40.2C218.265 41.5333 217.632 43.1667 217.232 45.1C216.832 47.0333 216.632 49.1 216.632 51.3C216.632 54.7 217.099 57.7 218.032 60.3C218.965 62.8333 220.299 64.1 222.032 64.1C223.765 64.1 225.065 62.8333 225.932 60.3C226.799 57.7667 227.232 54.7667 227.232 51.3ZM222.032 75.7C216.832 75.7 212.132 74.7667 207.932 72.9C203.799 71.0333 200.465 68.2333 197.932 64.5C195.465 60.7667 194.232 56.4 194.232 51.4C194.232 43.8 196.832 37.7667 202.032 33.3C207.232 28.8333 213.899 26.6 222.032 26.6C230.165 26.6 236.799 28.8333 241.932 33.3C247.065 37.7667 249.632 43.8 249.632 51.4C249.632 58.9333 246.999 64.8667 241.732 69.2C236.532 73.5333 229.965 75.7 222.032 75.7ZM276.218 75.6C270.951 75.6 266.585 73.4667 263.118 69.2C259.651 64.8667 257.918 58.9333 257.918 51.4C257.918 43.8 259.618 37.7667 263.018 33.3C266.418 28.8333 270.785 26.6 276.118 26.6C281.518 26.6 286.518 28.4667 291.118 32.2C292.851 28.9333 295.718 27.3 299.718 27.3C303.318 27.3 306.118 28.1 308.118 29.7C310.185 31.3 311.218 34.1667 311.218 38.3V56.6C311.218 63.0667 310.785 68.6333 309.918 73.3C309.118 77.9 307.685 81.9667 305.618 85.5C303.618 89.0333 300.818 91.6667 297.218 93.4C293.685 95.1333 289.318 96 284.118 96C280.518 96 277.185 95.5 274.118 94.5C271.051 93.5 268.618 92.2667 266.818 90.8C265.018 89.3333 263.618 87.8667 262.618 86.4C261.618 84.9333 261.118 83.6667 261.118 82.6C261.118 81.3333 261.485 80.2667 262.218 79.4C262.951 78.5333 263.985 78.1 265.318 78.1C266.118 78.1 268.118 78.9667 271.318 80.7C274.585 82.4333 277.218 83.3 279.218 83.3C286.018 83.3 289.418 79.8 289.418 72.8C285.551 74.6667 281.151 75.6 276.218 75.6ZM289.818 60.6L289.718 41.7C288.585 39.8333 287.151 38.9 285.418 38.9C284.218 38.9 283.151 39.5333 282.218 40.8C281.351 42.0667 280.685 43.6333 280.218 45.5C279.818 47.3667 279.618 49.3333 279.618 51.4C279.618 54.5333 280.118 57.3 281.118 59.7C282.118 62.0333 283.518 63.2 285.318 63.2C287.118 63.2 288.618 62.3333 289.818 60.6ZM372.22 46.8C372.22 58.2 371.887 66.1667 371.22 70.7C370.687 74.7667 369.854 78.2667 368.72 81.2C367.587 84.2 365.987 86.8333 363.92 89.1C361.854 91.4333 359.22 93.1667 356.02 94.3C352.82 95.4333 349.02 96 344.62 96C341.087 96 337.787 95.4667 334.72 94.4C331.72 93.4 329.32 92.1333 327.52 90.6C325.787 89.1333 324.42 87.6667 323.42 86.2C322.42 84.7333 321.92 83.4667 321.92 82.4C321.92 81.3333 322.254 80.3333 322.92 79.4C323.654 78.5333 324.62 78.1 325.82 78.1C326.687 78.1 327.687 78.3667 328.82 78.9C330.02 79.4333 331.154 80.0333 332.22 80.7C333.287 81.3667 334.554 81.9667 336.02 82.5C337.487 83.0333 338.92 83.3 340.32 83.3C343.92 83.3 346.454 82.4 347.92 80.6C349.454 78.8 350.22 76.2333 350.22 72.9C349.087 73.3667 347.987 73.7667 346.92 74.1C345.854 74.4333 344.82 74.7 343.82 74.9C342.82 75.1 341.854 75.2333 340.92 75.3C340.054 75.3667 339.187 75.4 338.32 75.4C334.387 75.4 331.02 74.3 328.22 72.1C325.42 69.9 323.387 67.2 322.12 64C320.92 60.7333 320.32 57.2333 320.32 53.5C320.32 49.7667 320.354 46.6 320.42 44C320.554 41.4 320.787 39.1 321.12 37.1C321.454 35.0333 321.82 33.4 322.22 32.2C322.687 31 323.32 30.0333 324.12 29.3C324.92 28.5 325.82 27.9667 326.82 27.7C327.82 27.4333 329.02 27.3 330.42 27.3C334.62 27.3 337.554 28.0333 339.22 29.5C340.954 30.9 341.82 33.1333 341.82 36.2L341.92 52.3C341.92 53.3667 341.92 54.1667 341.92 54.7C341.92 55.1667 341.954 55.7667 342.02 56.5C342.154 57.2333 342.287 57.7667 342.42 58.1C342.62 58.4333 342.854 58.8 343.12 59.2C343.454 59.5333 343.854 59.7667 344.32 59.9C344.854 60.0333 345.487 60.1 346.22 60.1C348.22 60.1 349.454 59.5667 349.92 58.5C350.454 57.3667 350.72 55.3333 350.72 52.4L350.82 36.2C350.82 34.1333 351.154 32.4667 351.82 31.2C352.554 29.9333 353.754 28.9667 355.42 28.3C357.087 27.6333 359.354 27.3 362.22 27.3C363.954 27.3 365.42 27.6 366.62 28.2C367.887 28.7333 368.887 29.4667 369.62 30.4C370.354 31.2667 370.887 32.6 371.22 34.4C371.62 36.1333 371.887 37.9 372.02 39.7C372.154 41.5 372.22 43.8667 372.22 46.8ZM497.969 29.8C495.969 28.2 493.169 27.4 489.569 27.4C486.502 27.4 484.069 28.4333 482.269 30.5L481.769 31.1C480.702 31.9 479.369 33.4 477.769 35.6L468.269 47.6L458.669 35.4C457.802 34.2667 457.035 33.3 456.369 32.5C455.702 31.7 455.035 31.0333 454.369 30.5L453.569 29.9L453.369 29.8C451.369 28.2 448.569 27.4 444.969 27.4C441.902 27.4 439.435 28.4333 437.569 30.5C435.769 32.5667 434.869 35.3 434.869 38.7V63.3C434.869 67.5 435.602 70.5333 437.069 72.4C438.469 74.2 441.135 75.1 445.069 75.1C449.269 75.1 452.202 74.3333 453.869 72.8C455.535 71.2 456.369 68.4 456.369 64.4V57L460.769 62.7C462.569 65.0333 465.035 66.2333 468.169 66.3C471.502 66.3667 474.069 65.1667 475.869 62.7L479.469 58V63.3C479.469 67.5 480.202 70.5333 481.669 72.4C483.069 74.2 485.735 75.1 489.669 75.1C493.869 75.1 496.802 74.3333 498.469 72.8C500.135 71.2 500.969 68.4 500.969 64.4V38.4C500.969 34.2 499.969 31.3333 497.969 29.8ZM542.271 51.3C542.271 47.8333 541.838 44.8 540.971 42.2C540.104 39.5333 538.838 38.2 537.171 38.2C536.038 38.2 535.038 38.8667 534.171 40.2C533.304 41.5333 532.671 43.1667 532.271 45.1C531.871 47.0333 531.671 49.1 531.671 51.3C531.671 54.7 532.138 57.7 533.071 60.3C534.004 62.8333 535.338 64.1 537.071 64.1C538.804 64.1 540.104 62.8333 540.971 60.3C541.838 57.7667 542.271 54.7667 542.271 51.3ZM537.071 75.7C531.871 75.7 527.171 74.7667 522.971 72.9C518.838 71.0333 515.504 68.2333 512.971 64.5C510.504 60.7667 509.271 56.4 509.271 51.4C509.271 43.8 511.871 37.7667 517.071 33.3C522.271 28.8333 528.938 26.6 537.071 26.6C545.204 26.6 551.838 28.8333 556.971 33.3C562.104 37.7667 564.671 43.8 564.671 51.4C564.671 58.9333 562.038 64.8667 556.771 69.2C551.571 73.5333 545.004 75.7 537.071 75.7ZM621.61 40.4C624.01 40.4 625.91 40.6667 627.31 41.2C628.71 41.6667 629.71 42.4667 630.31 43.6C630.91 44.7333 631.21 46.2667 631.21 48.2C631.21 50.6667 630.377 52.4 628.71 53.4C627.043 54.3333 624.377 54.8 620.71 54.8H607.01C601.61 54.8 598.91 52.4667 598.91 47.8C598.91 42.8667 601.843 40.4 607.71 40.4H621.61ZM21 149.8C21.3333 148.8 21.9 148.067 22.7 147.6C23.5 147.067 24.3667 146.733 25.3 146.6L26.3 146.4C26.2333 147.267 26.2 148.2 26.2 149.2V161.4L25.8 161.3C24.8 161.033 23.9 160.633 23.1 160.1C22.2333 159.567 21.5667 158.767 21.1 157.7C20.7 156.633 20.5 155.367 20.5 153.9C20.5 152.167 20.6667 150.8 21 149.8ZM45.2 139.7C44.0667 138.633 42.3667 137.933 40.1 137.6C39.3667 137.467 38.6 137.4 37.8 137.4H37.5H36.4H35.5H25.4C22.3333 137.4 19.5333 137.8 17 138.6C14.4667 139.4 12.2667 140.533 10.4 142C8.46667 143.467 7 145.3 6 147.5C4.93333 149.7 4.4 152.167 4.4 154.9C4.4 158.167 5.36667 161.033 7.3 163.5C7.7 163.967 8.13333 164.467 8.6 165C8.13333 165.333 7.66667 165.733 7.2 166.2C5.33333 168.267 4.4 170.833 4.4 173.9C4.4 178.433 5 181.433 6.2 182.9C7.4 184.367 9.4 185.1 12.2 185.1C17.5333 185.1 20.2 182.767 20.2 178.1C20.2 174.567 20.5 172.033 21.1 170.5C22.4333 170.7 23.8333 170.8 25.3 170.8H26.2V173.8C26.2 177.2 27.1333 179.933 29 182C30.8 184.067 33.2333 185.1 36.3 185.1H36.9H37.8C40.0667 185.1 41.8667 184.633 43.2 183.7C43.7333 183.367 44.2333 183.033 44.7 182.7C46.7 181.167 47.7 178.3 47.7 174.1V148.1C47.7 144.1 46.8667 141.3 45.2 139.7ZM103.448 164.3C101.048 162.367 98.2818 161.4 95.1484 161.4C98.2151 161.4 100.982 160.267 103.448 158C105.915 155.733 107.148 152.533 107.148 148.4C107.148 144.467 106.415 141.767 104.948 140.3C103.548 138.767 100.782 138 96.6484 138C92.7151 138 89.9151 138.7 88.2484 140.1C86.6484 141.5 85.8484 143.767 85.8484 146.9C85.8484 149.033 85.5818 150.433 85.0484 151.1C84.4484 151.833 83.3484 152.2 81.7484 152.2C80.0151 152.2 78.7484 151.833 77.9484 151.1C77.6818 147.1 77.0484 144.133 76.0484 142.2C74.6484 139.4 71.8818 138 67.7484 138C65.3484 138.133 63.3818 138.567 61.8484 139.3C60.3818 140.033 59.1818 141.3 58.2484 143.1C57.3151 144.833 56.8484 147.1 56.8484 149.9V170.7C56.8484 176.033 57.7151 179.767 59.4484 181.9C61.2484 183.967 64.0151 185 67.7484 185C71.0818 185 73.7484 183.5 75.7484 180.5C77.7484 177.5 78.7484 174.267 78.7484 170.8H82.3484C83.2818 170.8 83.9818 170.9 84.4484 171.1C84.8484 171.367 85.1818 171.9 85.4484 172.7C85.7151 173.433 85.8484 174.567 85.8484 176.1C85.8484 179.167 86.6484 181.433 88.2484 182.9C89.9151 184.3 92.7151 185 96.6484 185C100.915 185 103.748 184.233 105.148 182.7C106.482 181.167 107.148 177.867 107.148 172.8C107.148 169 105.915 166.167 103.448 164.3ZM204.002 118.6L203.402 118C202.269 117 200.236 116.5 197.302 116.5H154.602C151.136 116.5 148.369 117.467 146.302 119.4C144.169 121.333 143.102 124.367 143.102 128.5L143.402 170.7C143.402 176.033 144.302 179.733 146.102 181.8C147.902 183.933 150.736 185 154.602 185C158.669 185 161.636 183.867 163.502 181.6C165.369 179.333 166.302 175.467 166.302 170V130.7H184.002V144.4L184.102 159.4L184.202 170.7C184.202 176.033 185.102 179.733 186.902 181.8C188.702 183.933 191.536 185 195.402 185C199.336 185 202.269 183.867 204.202 181.6C206.136 179.267 207.102 175.4 207.102 170V127.6C207.102 123.133 206.102 120.167 204.102 118.7L204.002 118.6ZM235.293 185.6C230.026 185.6 225.66 183.467 222.193 179.2C218.726 174.867 216.993 168.967 216.993 161.5C216.993 153.9 218.693 147.867 222.093 143.4C225.56 138.867 229.96 136.6 235.293 136.6C240.693 136.6 245.693 138.5 250.293 142.3C252.093 138.967 254.993 137.3 258.993 137.3C262.593 137.3 265.393 138.1 267.393 139.7C269.393 141.233 270.393 144.1 270.393 148.3V174.3C270.393 178.3 269.56 181.1 267.893 182.7C266.226 184.233 263.293 185 259.093 185C254.693 185 251.793 183.767 250.393 181.3C246.126 184.167 241.093 185.6 235.293 185.6ZM248.893 151.9C247.76 149.967 246.293 149 244.493 149C242.76 149 241.36 150.267 240.293 152.8C239.226 155.333 238.693 158.233 238.693 161.5C238.693 164.567 239.193 167.3 240.193 169.7C241.193 172.1 242.593 173.3 244.393 173.3C246.26 173.3 247.76 172.4 248.893 170.6V151.9ZM329.395 139.7C327.395 138.1 324.595 137.3 320.995 137.3C317.929 137.3 315.462 138.333 313.595 140.4C311.795 142.467 310.895 145.2 310.895 148.6V155.1H301.095V148.3C301.095 144.1 300.095 141.233 298.095 139.7C296.095 138.1 293.295 137.3 289.695 137.3C286.629 137.3 284.162 138.333 282.295 140.4C280.495 142.467 279.595 145.2 279.595 148.6V173.2C279.595 177.4 280.295 180.433 281.695 182.3C283.162 184.1 285.862 185 289.795 185C293.995 185 296.929 184.233 298.595 182.7C300.262 181.1 301.095 178.3 301.095 174.3V167.2H310.895V173.2C310.895 177.4 311.595 180.433 312.995 182.3C314.462 184.1 317.162 185 321.095 185C325.295 185 328.229 184.233 329.895 182.7C331.562 181.1 332.395 178.3 332.395 174.3V148.3C332.395 144.1 331.395 141.233 329.395 139.7ZM359.316 185.6C354.05 185.6 349.683 183.467 346.216 179.2C342.75 174.867 341.016 168.967 341.016 161.5C341.016 153.9 342.716 147.867 346.116 143.4C349.583 138.867 353.983 136.6 359.316 136.6C364.716 136.6 369.716 138.5 374.316 142.3C376.116 138.967 379.016 137.3 383.016 137.3C386.616 137.3 389.416 138.1 391.416 139.7C393.416 141.233 394.416 144.1 394.416 148.3V174.3C394.416 178.3 393.583 181.1 391.916 182.7C390.25 184.233 387.316 185 383.116 185C378.716 185 375.816 183.767 374.416 181.3C370.15 184.167 365.116 185.6 359.316 185.6ZM372.916 151.9C371.783 149.967 370.316 149 368.516 149C366.783 149 365.383 150.267 364.316 152.8C363.25 155.333 362.716 158.233 362.716 161.5C362.716 164.567 363.216 167.3 364.216 169.7C365.216 172.1 366.616 173.3 368.416 173.3C370.283 173.3 371.783 172.4 372.916 170.6V151.9Z" fill="#2B1F19"/>
<path d="M379.351 50.8C379.351 46.3333 380.284 42.3667 382.151 38.9L382.651 38.3C382.851 38.0333 383.018 37.8 383.151 37.6L383.851 36.7C384.384 36.0333 384.884 35.4333 385.351 34.9C385.951 34.1667 386.451 33.6333 386.851 33.3C391.851 28.8333 398.218 26.6 405.951 26.6C408.618 26.6 411.184 27 413.651 27.8C416.051 28.6 418.084 29.6 419.751 30.8C421.418 32.0667 422.884 33.4333 424.151 34.9C425.351 36.3667 426.251 37.7667 426.851 39.1C427.451 40.4333 427.751 41.5667 427.751 42.5C427.751 43.0333 427.651 43.5333 427.451 44C427.184 44.4667 426.784 44.8667 426.251 45.2C425.718 45.5333 425.018 45.7 424.151 45.7C423.551 45.7 422.584 45.3333 421.251 44.6C419.918 43.8667 418.784 43.3667 417.851 43.1C415.518 42.3 412.751 41.9 409.551 41.9C406.351 41.9 403.784 42.9333 401.851 45L401.351 45.6C401.684 45.8 402.251 46 403.051 46.2C404.184 46.4667 405.918 46.6 408.251 46.6C411.851 46.6 413.651 48.0333 413.651 50.9C413.651 52.8333 413.118 54.1333 412.051 54.8C410.984 55.5333 409.151 55.9 406.551 55.9C405.351 55.9 404.318 55.9333 403.451 56C402.584 56.1333 401.918 56.3333 401.451 56.6L401.351 56.7L401.851 57.3C403.784 59.3667 406.351 60.4 409.551 60.4C412.751 60.4 415.518 60 417.851 59.2C418.784 58.9333 419.918 58.4333 421.251 57.7C422.584 56.9667 423.551 56.6 424.151 56.6C425.018 56.6 425.718 56.7667 426.251 57.1C426.784 57.4333 427.184 57.8333 427.451 58.3C427.651 58.7667 427.751 59.2667 427.751 59.8C427.751 60.7333 427.451 61.8667 426.851 63.2C426.251 64.5333 425.351 65.9333 424.151 67.4C422.884 68.8667 421.418 70.2 419.751 71.4C418.084 72.6667 416.051 73.7 413.651 74.5C411.184 75.3 408.618 75.7 405.951 75.7C398.218 75.7 391.851 73.4667 386.851 69C386.384 68.6 385.818 68 385.151 67.2C384.684 66.6 384.151 65.9 383.551 65.1L382.851 64.1C382.651 63.8333 382.451 63.5667 382.251 63.3C381.918 62.8333 381.751 62.6 381.751 62.6C380.151 59.3333 379.351 55.6333 379.351 51.5V50.8Z" fill="#2B1F19"/>
</svg>
