<svg width="359" height="515" viewBox="0 0 359 515" fill="none" xmlns="http://www.w3.org/2000/svg">
<circle cx="179" cy="157.997" r="157" fill="#E3CE0B"/>
<path d="M249.087 110.022C250.042 112.439 251.07 115.075 252.099 117.858C252.319 118.444 252.539 119.03 252.76 119.616L249.307 121.08C249.307 121.08 249.013 120.641 248.499 119.835C247.544 118.371 245.781 115.588 243.797 112.219C242.989 110.828 242.107 109.29 241.226 107.679C238.728 102.992 236.156 97.6456 234.54 92.5925L239.683 90.3223C241.666 93.691 244.017 98.1583 246.589 104.017C247.397 105.921 248.205 107.898 249.087 110.022Z" fill="#2B1F19"/>
<path d="M250.115 120.055H249.527L248.425 119.982L241.887 119.616C241.887 119.616 241.446 117.785 239.977 114.929C237.773 110.608 233.144 103.944 223.961 97.2795L227.561 95.6683C230.426 96.6936 234.834 99.8426 241.152 107.752C242.181 108.997 243.283 110.388 244.385 111.926C245.854 113.977 247.47 116.174 249.16 118.664C249.527 119.103 249.821 119.542 250.115 120.055Z" fill="#2B1F19"/>
<path d="M255.037 114.489L252.025 117.858L249.601 120.568C249.527 120.348 249.527 120.128 249.454 119.982C249.38 119.542 249.233 119.103 249.16 118.664C247.838 112.951 246.956 108.118 246.515 104.09C245.487 94.8628 246.368 89.7365 247.691 86.8804L251.731 85.1228C248.646 104.383 255.037 114.489 255.037 114.489Z" fill="#2B1F19"/>
<path d="M266.572 115.002C267.82 117.931 270.245 124.669 273.11 133.09C273.624 134.628 274.212 136.24 274.726 137.924C277.959 147.591 281.559 158.722 284.644 168.535C285.012 169.78 285.452 171.025 285.82 172.27C289.346 183.695 291.844 192.556 291.77 194.094C291.477 201.93 289.787 203.687 287.142 204.859C284.424 206.031 282.073 206.031 276.122 200.904C275.461 200.318 273.477 197.389 270.833 192.995C270.392 192.19 269.877 191.384 269.363 190.505C261.429 177.177 248.572 154.401 241.005 140.048C240.124 138.363 239.316 136.825 238.581 135.434C237.038 132.505 235.936 130.234 235.275 128.77C232.704 122.838 236.303 118.078 240.05 115.002C241.373 113.903 242.695 113.025 243.797 112.439C244.017 112.292 244.238 112.146 244.458 112.073C245.487 111.487 246.221 111.194 246.221 111.194C246.221 111.194 246.736 110.974 247.544 110.681C247.985 110.535 248.499 110.388 249.087 110.169C250.189 109.876 251.437 109.509 252.907 109.29C257.756 108.411 263.927 108.924 266.572 115.002Z" fill="#2B1F19"/>
<path d="M238.434 135.287C238.434 135.287 243.136 131.553 251.07 129.795C251.07 129.795 240.858 136.972 240.858 139.901L238.434 135.287Z" fill="#2B1F19"/>
<path d="M251.437 158.795C251.437 158.795 256.139 155.06 264.074 153.303C264.074 153.303 253.862 160.48 253.862 163.409L251.437 158.795Z" fill="#2B1F19"/>
<path d="M277.445 187.576C277.445 187.576 273.698 190.212 270.759 192.922C270.318 192.116 269.804 191.311 269.29 190.432C271.347 189.407 274.139 188.308 277.445 187.576Z" fill="#2B1F19"/>
<path d="M273.11 133.017C273.11 133.017 267.159 133.896 260.474 138.51C260.474 138.51 272.669 135.947 274.873 137.997L273.11 133.017Z" fill="#2B1F19"/>
<path d="M284.644 168.535C285.012 169.78 285.452 171.025 285.82 172.27C281.559 171.977 274.065 173.588 274.065 173.588C278.4 170.586 282.367 169.121 284.644 168.535Z" fill="#2B1F19"/>
<path opacity="0.5" d="M237.552 91.3476L287.142 204.786C284.424 205.957 282.073 205.957 276.122 200.831C275.461 200.245 273.477 197.316 270.833 192.922C270.392 192.116 269.878 191.311 269.363 190.432C261.429 177.104 248.572 154.328 241.005 139.974C240.124 138.29 239.316 136.752 238.581 135.361C237.038 132.431 235.936 130.161 235.275 128.696C232.704 122.765 236.303 118.004 240.05 114.929C237.846 110.608 233.218 103.944 224.035 97.2795L227.634 95.6684C230.5 96.6936 234.908 99.8426 241.226 107.752C238.728 103.065 236.157 97.7189 234.54 92.6658L237.552 91.3476Z" fill="#2B1F19"/>
<path d="M108.252 198.78C105.46 202.515 101.713 205.152 96.644 206.543C80.408 210.937 69.6084 201.197 67.4779 189.114C64.7596 173.662 74.2368 168.755 80.7753 149.934C84.7425 138.583 84.7425 128.184 83.8609 120.86C83.0527 114.343 81.5834 110.242 81.5834 110.242L104.064 106.287V106.36C104.652 109.802 105.533 113.757 106.415 118.078C111.998 143.636 121.035 181.79 108.252 198.78Z" fill="#2B1F19"/>
<path d="M110.235 119.249C110.235 119.249 108.692 118.956 106.488 118.151C102.448 116.759 95.9828 113.83 92.236 108.631C90.7667 113.757 87.0199 118.078 83.8609 120.934C81.2161 123.35 78.9386 124.742 78.9386 124.742C79.3794 110.242 81.8038 107.532 84.8159 105.628C85.0363 105.482 85.4037 105.262 85.8445 104.969C85.8445 104.969 91.5748 102.113 86.2118 92.4461L89.1504 91.4941L90.9136 90.9082C90.9136 90.9082 88.8566 100.721 98.0399 103.211C100.097 103.797 102.081 104.31 103.991 106.287C103.991 106.287 103.991 106.287 104.064 106.36C106.195 108.484 108.178 112.146 110.235 119.249Z" fill="#2B1F19"/>
<path opacity="0.5" d="M89.2239 91.494L108.325 198.78C105.533 202.515 101.787 205.152 96.7175 206.543C80.4814 210.937 69.6819 201.197 67.5514 189.114C64.8331 173.661 74.3103 168.755 80.8488 149.934C84.816 138.583 84.816 128.184 83.9344 120.86C81.2896 123.277 79.0121 124.669 79.0121 124.669C79.4529 110.168 81.8773 107.459 84.8894 105.555C85.1098 105.408 85.4771 105.189 85.9179 104.896C85.9179 104.896 91.6483 102.04 86.2853 92.3728L89.2239 91.494Z" fill="#2B1F19"/>
<path d="M160.413 188.308C153.507 194.24 144.691 205.445 139.622 208.96C138.079 210.058 136.83 210.351 136.169 209.619C136.022 209.399 135.802 209.18 135.655 208.887C135.214 208.008 134.773 206.616 134.553 205.005C133.598 197.828 135.802 184.427 148.585 172.71C157.033 164.947 167.833 164.947 171.212 167.949C171.359 168.096 171.433 168.169 171.58 168.316C174.445 171.538 169.449 180.545 160.413 188.308Z" fill="#2B1F19"/>
<path d="M203.464 170C200.525 173.369 205.521 182.376 214.557 190.139C223.594 197.902 235.936 214.745 238.801 211.377C241.74 208.008 243.209 189.846 226.385 174.394C217.643 166.338 206.329 166.631 203.464 170Z" fill="#2B1F19"/>
<path d="M237.846 216.796C237.846 243.746 216.982 265.862 190.46 267.913C189.138 267.986 187.816 268.059 186.493 268.059C185.465 268.059 184.436 268.059 183.481 267.986C156.519 266.448 135.14 244.112 135.14 216.87C135.14 214.16 135.361 211.524 135.728 208.96C135.875 208.008 136.022 207.056 136.242 206.177C140.136 188.016 153.654 173.442 171.286 167.95C176.135 166.485 181.204 165.68 186.567 165.68C193.032 165.68 199.276 166.851 204.933 169.048C221.169 175.273 233.438 189.407 236.965 206.763C237.332 208.448 237.552 210.205 237.699 211.963C237.773 213.428 237.846 215.112 237.846 216.796Z" fill="#2B1F19"/>
<path d="M186.42 267.913C188.57 267.913 190.314 251.912 190.314 232.175C190.314 212.437 188.57 196.437 186.42 196.437C184.269 196.437 182.526 212.437 182.526 232.175C182.526 251.912 184.269 267.913 186.42 267.913Z" fill="#2B1F19"/>
<path d="M175.988 222.655C170.11 216.796 165.849 211.523 166.51 210.864C167.172 210.205 172.461 214.452 178.339 220.311C184.216 226.17 188.477 231.442 187.816 232.102C187.154 232.761 181.865 228.513 175.988 222.655Z" fill="#2B1F19"/>
<path d="M174.592 243.965C168.714 238.107 164.453 232.834 165.115 232.175C165.776 231.516 171.065 235.763 176.943 241.622C182.82 247.481 187.081 252.753 186.42 253.412C185.759 254.071 180.469 249.824 174.592 243.965Z" fill="#2B1F19"/>
<path d="M197.44 222.655C203.317 216.796 207.578 211.523 206.917 210.864C206.256 210.205 200.966 214.452 195.089 220.311C189.212 226.17 184.951 231.442 185.612 232.102C186.346 232.761 191.562 228.513 197.44 222.655Z" fill="#2B1F19"/>
<path d="M198.836 243.965C204.713 238.107 208.974 232.834 208.313 232.175C207.652 231.516 202.362 235.763 196.485 241.622C190.607 247.481 186.346 252.753 187.008 253.412C187.742 254.071 193.032 249.824 198.836 243.965Z" fill="#2B1F19"/>
<path d="M183.408 267.913C182.6 267.986 112.66 273.918 121.623 214.013C123.386 202.442 128.235 200.904 134.553 204.932C135.067 205.298 135.581 205.664 136.169 206.031C137.271 206.836 138.446 207.861 139.622 208.96C156.005 224.339 177.971 263.958 183.408 267.913Z" fill="#2B1F19"/>
<path d="M190.314 267.913C190.314 267.913 261.135 274.211 252.099 214.013C245.781 172.124 198.542 261.907 190.314 267.913Z" fill="#2B1F19"/>
<path opacity="0.5" d="M186.42 165.533V267.986C185.391 267.986 184.363 267.986 183.408 267.912C182.6 267.986 112.66 273.918 121.623 214.013C123.386 202.442 128.235 200.904 134.553 204.932C133.598 197.755 135.802 184.354 148.585 172.636C157.033 164.874 167.833 164.874 171.212 167.876C175.988 166.338 181.13 165.533 186.42 165.533Z" fill="#2B1F19"/>
<path d="M194.428 56.928L192.811 54.2916C192.811 54.2916 198.101 50.9229 194.134 49.0189C191.195 47.5542 186.493 53.4861 187.154 58.5391C187.301 59.6376 187.742 60.7361 188.55 61.6882C188.918 62.1276 189.358 62.567 189.946 62.9331L187.522 61.9079L183.334 60.1503L178.632 58.173L173.857 56.1225L173.416 55.976C173.416 55.976 173.71 56.0492 174.151 56.0492C174.739 56.0492 175.694 55.976 176.796 55.6098C178.192 55.0972 179.955 53.9987 181.571 51.8749C183.702 49.0189 186.567 46.0895 189.873 45.1375C191.709 44.6249 193.693 44.7713 195.677 45.9431C204.933 51.3623 197.366 58.4659 194.428 56.928Z" fill="#2B1F19"/>
<path d="M176.722 102.04C170.845 115.588 161.809 125.987 152.699 130.82C152.625 130.82 152.625 130.893 152.552 130.893C149.907 132.285 147.336 133.164 144.764 133.603C141.605 134.116 138.52 133.823 135.728 132.578C122.871 127.012 122.21 105.042 130.071 81.9005C137.932 58.7588 150.127 42.3546 170.992 51.3623C173.196 52.3143 175.106 53.779 176.722 55.6098C177.383 56.4154 177.971 57.2209 178.559 58.173C179.661 60.0038 180.542 62.0543 181.204 64.3978C181.277 64.5442 181.277 64.6175 181.277 64.7639C183.995 74.6504 182.6 88.4182 176.722 102.04Z" fill="#2B1F19"/>
<path d="M157.18 93.1784C147.409 115.588 149.981 138.29 162.837 143.856C175.694 149.421 189.579 138.217 203.831 113.317C215.953 92.0799 219.112 71.7211 198.174 62.6402C185.318 57.0745 166.951 70.7691 157.18 93.1784Z" fill="#2B1F19"/>
<path d="M182.746 104.603C175.253 121.886 164.6 134.775 156.078 138.07C153.58 139.022 151.303 139.169 149.319 138.363C149.246 138.363 149.246 138.363 149.172 138.29C147.262 137.484 145.793 135.8 144.764 133.457C141.091 125.181 143.295 108.338 150.862 90.7618C158.282 73.7717 164.013 59.0519 173.71 56.0493C173.857 56.0493 173.931 55.9761 174.077 55.9761C174.886 55.7564 175.767 55.6099 176.722 55.5367C179.073 55.3902 181.644 55.8296 184.436 57.0746L184.583 57.1478C185.538 57.5872 186.42 58.0266 187.228 58.466C188.624 59.3448 189.726 60.2968 190.607 61.3953C197.734 70.1101 190.828 86.0016 182.746 104.603Z" fill="#2B1F19"/>
<path opacity="0.5" d="M189.799 45.2116L149.246 138.437C149.172 138.437 149.172 138.437 149.099 138.364C147.189 137.558 145.719 135.874 144.691 133.531C141.532 134.043 138.446 133.75 135.655 132.505C122.798 126.94 122.137 104.97 129.998 81.8281C137.859 58.6865 150.054 42.2823 170.918 51.29C173.122 52.242 175.032 53.7066 176.649 55.5375C178.045 55.0248 179.808 53.9263 181.424 51.8026C183.555 49.093 186.493 46.0904 189.799 45.2116Z" fill="#2B1F19"/>
<path d="M32.7736 379.328C32.7736 377.536 32.0536 376.64 30.6136 376.64C29.9736 376.64 29.4936 377.008 29.1736 377.744C28.8536 378.48 28.6936 379.408 28.6936 380.528C28.6936 382.224 28.6616 383.632 28.5976 384.752C28.5656 385.872 28.4696 386.88 28.3096 387.776C28.1496 388.672 27.9576 389.376 27.7336 389.888C27.5096 390.4 27.2056 390.832 26.8216 391.184C26.4376 391.504 26.0056 391.728 25.5256 391.856C25.0456 391.952 24.4376 392 23.7016 392C22.5816 392 21.6696 391.84 20.9656 391.52C20.2936 391.2 19.8136 390.752 19.5256 390.176C19.2376 389.6 19.0936 388.88 19.0936 388.016V379.328C19.0936 377.536 18.3736 376.64 16.9336 376.64C16.3576 376.64 15.8776 376.976 15.4936 377.648C15.1416 378.288 14.9656 379.136 14.9656 380.192V386.864C14.9656 388.784 14.5656 390.128 13.7656 390.896C12.9656 391.632 11.5576 392 9.54156 392C7.65356 392 6.35756 391.568 5.65356 390.704C4.98156 389.808 4.64556 388.352 4.64556 386.336V374.528C4.64556 372.896 5.07756 371.584 5.94156 370.592C6.83756 369.6 8.02156 369.104 9.49356 369.104C12.1176 369.104 13.7816 369.952 14.4856 371.648C15.7016 370.752 16.8856 370.128 18.0376 369.776C19.2216 369.424 20.5976 369.248 22.1656 369.248C24.5336 369.248 26.2456 370.272 27.3016 372.32C27.4616 372.192 27.6216 372.064 27.7816 371.936C30.2456 370.144 33.2696 369.248 36.8536 369.248C39.1256 369.248 40.7576 370.112 41.7496 371.84C42.7416 373.568 43.2376 376.464 43.2376 380.528C43.2376 382.224 43.2056 383.632 43.1416 384.752C43.1096 385.872 43.0136 386.88 42.8536 387.776C42.6936 388.672 42.4856 389.376 42.2296 389.888C42.0056 390.4 41.6696 390.832 41.2216 391.184C40.8056 391.504 40.3256 391.728 39.7816 391.856C39.2696 391.952 38.6136 392 37.8136 392C36.5976 392 35.6056 391.84 34.8376 391.52C34.1016 391.2 33.5736 390.752 33.2536 390.176C32.9336 389.6 32.7736 388.88 32.7736 388.016V379.328ZM47.6187 362.432C47.6187 361.376 48.0667 360.512 48.9627 359.84C49.8907 359.136 51.1867 358.784 52.8507 358.784C56.3387 358.784 58.0827 360 58.0827 362.432C58.0827 363.776 57.6347 364.72 56.7387 365.264C55.8747 365.808 54.5787 366.08 52.8507 366.08C51.3467 366.08 50.0987 365.792 49.1067 365.216C48.1147 364.64 47.6187 363.712 47.6187 362.432ZM58.0347 386.864C58.0347 388.784 57.6347 390.128 56.8347 390.896C56.0347 391.632 54.6267 392 52.6107 392C50.7227 392 49.4267 391.568 48.7227 390.704C48.0507 389.808 47.7147 388.352 47.7147 386.336V374.528C47.7147 372.896 48.1467 371.584 49.0107 370.592C49.9067 369.6 51.0907 369.104 52.5627 369.104C54.2907 369.104 55.6347 369.488 56.5947 370.256C57.5547 370.992 58.0347 372.368 58.0347 374.384V386.864ZM74.9637 376.304C75.3157 376.304 75.6197 376.336 75.8757 376.4C76.0997 376.464 76.2757 376.592 76.4037 376.784C76.5637 376.944 76.6917 377.104 76.7877 377.264C76.8837 377.424 76.9477 377.68 76.9797 378.032C77.0117 378.384 77.0277 378.672 77.0277 378.896V380.048L77.0757 387.728C77.0757 389.2 77.4917 390.288 78.3237 390.992C79.1557 391.664 80.5637 392 82.5477 392C83.9557 392 85.0117 391.712 85.7157 391.136C86.3877 390.528 86.8677 389.472 87.1557 387.968C87.4437 386.432 87.5877 384.096 87.5877 380.96C87.5877 379.232 87.3157 377.68 86.7717 376.304C86.2277 374.928 85.5237 373.808 84.6597 372.944C83.7957 372.048 82.8037 371.296 81.6837 370.688C80.5317 370.112 79.3957 369.696 78.2757 369.44C77.1557 369.216 76.0357 369.104 74.9157 369.104C73.7637 369.104 72.6277 369.216 71.5077 369.44C70.3877 369.696 69.2677 370.112 68.1477 370.688C67.0277 371.296 66.0517 372.048 65.2197 372.944C64.3557 373.808 63.6517 374.928 63.1077 376.304C62.5637 377.68 62.2917 379.232 62.2917 380.96C62.2917 382.848 62.3397 384.4 62.4357 385.616C62.5317 386.864 62.6757 387.92 62.8677 388.784C63.0597 389.68 63.3637 390.336 63.7797 390.752C64.1957 391.2 64.6757 391.52 65.2197 391.712C65.7637 391.904 66.4677 392 67.3317 392C68.6757 392 69.7477 391.84 70.5477 391.52C71.3477 391.2 71.9237 390.736 72.2757 390.128C72.5957 389.52 72.7557 388.72 72.7557 387.728L72.8037 380C72.8037 378.592 72.9317 377.632 73.1877 377.12C73.4437 376.576 74.0357 376.304 74.9637 376.304ZM102.095 387.632C102.127 387.248 102.143 386.816 102.143 386.336V380.48L102.335 380.528C102.815 380.624 103.247 380.816 103.631 381.104C104.047 381.36 104.367 381.744 104.591 382.256C104.783 382.736 104.879 383.344 104.879 384.08C104.879 384.912 104.799 385.552 104.639 386C104.479 386.48 104.207 386.848 103.823 387.104C103.439 387.36 103.023 387.52 102.575 387.584L102.095 387.632ZM91.8229 386.864C91.8229 388.784 92.2229 390.128 93.0229 390.896C93.5669 391.376 94.3829 391.712 95.4709 391.904C95.8229 391.968 96.2069 392 96.6229 392H96.7189H97.2469H97.6789H102.527C103.999 392 105.343 391.808 106.559 391.424C107.775 391.008 108.847 390.448 109.775 389.744C110.671 389.072 111.359 388.192 111.839 387.104C112.351 386.048 112.607 384.88 112.607 383.6C112.607 382.032 112.159 380.656 111.263 379.472C110.335 378.288 109.119 377.408 107.615 376.832C106.143 376.256 104.463 375.968 102.575 375.968H102.143V374.528C102.143 372.896 101.695 371.584 100.799 370.592C99.9349 369.6 98.7669 369.104 97.2949 369.104H97.0069H96.6229C95.5029 369.104 94.6229 369.328 93.9829 369.776C93.7269 369.904 93.4869 370.064 93.2629 370.256C92.3029 370.992 91.8229 372.368 91.8229 374.384V386.864ZM139.366 382.064C138.214 381.136 136.886 380.672 135.382 380.672C136.854 380.672 138.182 380.128 139.366 379.04C140.55 377.952 141.142 376.416 141.142 374.432C141.142 372.544 140.79 371.248 140.086 370.544C139.414 369.808 138.086 369.44 136.102 369.44C134.214 369.44 132.87 369.776 132.07 370.448C131.302 371.12 130.918 372.208 130.918 373.712C130.918 374.736 130.79 375.408 130.534 375.728C130.246 376.08 129.718 376.256 128.95 376.256C128.118 376.256 127.51 376.08 127.126 375.728C126.998 373.808 126.694 372.384 126.214 371.456C125.542 370.112 124.214 369.44 122.23 369.44C121.078 369.504 120.134 369.712 119.398 370.064C118.694 370.416 118.118 371.024 117.67 371.888C117.222 372.72 116.998 373.808 116.998 375.152V385.136C116.998 387.696 117.414 389.488 118.246 390.512C119.11 391.504 120.438 392 122.23 392C123.83 392 125.11 391.28 126.07 389.84C127.03 388.4 127.51 386.848 127.51 385.184H129.238C129.686 385.184 130.022 385.232 130.246 385.328C130.438 385.456 130.598 385.712 130.726 386.096C130.854 386.448 130.918 386.992 130.918 387.728C130.918 389.2 131.302 390.288 132.07 390.992C132.87 391.664 134.214 392 136.102 392C138.15 392 139.51 391.632 140.182 390.896C140.822 390.16 141.142 388.576 141.142 386.144C141.142 384.32 140.55 382.96 139.366 382.064ZM155.447 381.872C155.447 383.696 156.151 384.608 157.559 384.608C158.039 384.608 158.455 384.464 158.807 384.176C159.191 383.856 159.479 383.424 159.671 382.88C159.863 382.336 159.959 381.712 159.959 381.008V374.576C159.959 373.488 160.151 372.544 160.535 371.744C160.919 370.912 161.479 370.272 162.215 369.824C162.951 369.376 163.815 369.152 164.807 369.152C166.535 369.152 167.879 369.536 168.839 370.304C169.799 371.04 170.279 372.416 170.279 374.432V386.912C170.279 388.864 169.879 390.208 169.079 390.944C168.279 391.68 166.871 392.048 164.855 392.048C163.991 392.048 163.255 391.968 162.647 391.808C162.039 391.616 161.543 391.344 161.159 390.992C160.807 390.64 160.535 390.176 160.343 389.6C159.031 390.464 157.639 391.072 156.167 391.424C154.727 391.776 153.111 391.952 151.319 391.952C149.047 391.952 147.415 391.072 146.423 389.312C145.431 387.52 144.935 384.592 144.935 380.528C144.935 378.512 144.983 376.88 145.079 375.632C145.175 374.352 145.319 373.264 145.511 372.368C145.735 371.44 146.055 370.752 146.471 370.304C146.919 369.856 147.431 369.536 148.007 369.344C148.615 369.152 149.399 369.056 150.359 369.056C152.151 369.056 153.431 369.392 154.199 370.064C154.999 370.736 155.399 371.744 155.399 373.088L155.447 381.872ZM202.08 374.048C202.08 373.312 201.664 372.944 200.832 372.944C200.224 372.944 199.68 373.28 199.2 373.952C198.72 374.624 198.352 375.472 198.096 376.496C197.84 377.488 197.712 378.528 197.712 379.616C197.712 381.216 198.192 382.512 199.152 383.504C200.144 384.496 201.472 384.992 203.136 384.992C204.768 384.992 206.176 384.8 207.36 384.416C207.84 384.288 208.416 384.048 209.088 383.696C209.792 383.344 210.288 383.168 210.576 383.168C211.024 383.168 211.392 383.248 211.68 383.408C211.968 383.568 212.16 383.76 212.256 383.984C212.384 384.208 212.448 384.448 212.448 384.704C212.448 385.152 212.288 385.696 211.968 386.336C211.68 386.976 211.216 387.648 210.576 388.352C209.936 389.056 209.184 389.712 208.32 390.32C207.488 390.896 206.448 391.376 205.2 391.76C203.952 392.144 202.64 392.336 201.264 392.336C197.296 392.336 194.032 391.28 191.472 389.168C188.912 387.024 187.632 384.096 187.632 380.384C187.632 378.016 188.208 375.952 189.36 374.192C190.544 372.4 192.16 371.056 194.208 370.16C196.256 369.232 198.608 368.768 201.264 368.768C203.792 368.768 205.872 369.072 207.504 369.68C209.168 370.256 210.352 371.04 211.056 372.032C211.76 373.024 212.112 374.208 212.112 375.584C212.112 376.192 211.984 376.816 211.728 377.456C211.504 378.096 211.136 378.736 210.624 379.376C210.144 380.016 209.424 380.544 208.464 380.96C207.504 381.344 206.384 381.536 205.104 381.536C204.528 381.536 204.048 381.504 203.664 381.44C203.312 381.376 202.928 381.248 202.512 381.056C202.128 380.832 201.84 380.48 201.648 380C201.456 379.52 201.36 378.912 201.36 378.176C201.36 377.536 201.472 376.768 201.696 375.872C201.952 374.944 202.08 374.336 202.08 374.048ZM228.99 386.096C228.094 386.096 227.374 385.664 226.83 384.8V382.4C227.278 382.496 227.806 382.544 228.414 382.544C229.054 382.544 229.582 382.56 229.998 382.592C230.446 382.656 230.798 382.752 231.054 382.88C231.182 382.976 231.294 383.072 231.39 383.168C231.294 383.584 231.166 383.984 231.006 384.368C230.526 385.52 229.854 386.096 228.99 386.096ZM228.942 374.432C229.774 374.432 230.446 375.04 230.958 376.256C231.086 376.544 231.198 376.864 231.294 377.216C231.262 377.312 231.23 377.392 231.198 377.456C231.134 377.616 230.814 377.76 230.238 377.888C229.662 378.016 228.766 378.08 227.55 378.08C227.294 378.08 227.054 378.08 226.83 378.08V375.824C227.374 374.896 228.078 374.432 228.942 374.432ZM241.038 382.592C240.782 381.92 240.414 381.36 239.934 380.912C239.422 380.464 238.718 379.984 237.822 379.472C239.774 378.128 240.75 376.288 240.75 373.952C240.75 372.32 239.998 370.992 238.494 369.968C237.822 369.52 236.99 369.168 235.998 368.912C235.166 368.624 234.286 368.48 233.358 368.48C230.766 368.48 228.366 369.392 226.158 371.216C225.294 369.616 223.902 368.816 221.982 368.816C220.254 368.816 218.91 369.2 217.95 369.968C216.99 370.704 216.51 372.08 216.51 374.096V386.576C216.51 388.496 216.91 389.84 217.71 390.608C218.51 391.344 219.918 391.712 221.934 391.712C224.046 391.712 225.438 391.12 226.11 389.936C228.158 391.312 230.574 392 233.358 392C234.318 392 235.214 391.856 236.046 391.568C237.23 391.248 238.238 390.736 239.07 390.032C240.638 388.784 241.422 387.152 241.422 385.136C241.422 384.112 241.294 383.264 241.038 382.592ZM245.619 362.432C245.619 361.376 246.067 360.512 246.963 359.84C247.891 359.136 249.187 358.784 250.851 358.784C254.339 358.784 256.083 360 256.083 362.432C256.083 363.776 255.635 364.72 254.739 365.264C253.875 365.808 252.579 366.08 250.851 366.08C249.347 366.08 248.099 365.792 247.107 365.216C246.115 364.64 245.619 363.712 245.619 362.432ZM256.035 386.864C256.035 388.784 255.635 390.128 254.835 390.896C254.035 391.632 252.627 392 250.611 392C248.723 392 247.427 391.568 246.723 390.704C246.051 389.808 245.715 388.352 245.715 386.336V374.528C245.715 372.896 246.147 371.584 247.011 370.592C247.907 369.6 249.091 369.104 250.563 369.104C252.291 369.104 253.635 369.488 254.595 370.256C255.555 370.992 256.035 372.368 256.035 374.384V386.864ZM296.004 382.064C294.82 381.136 293.476 380.672 291.972 380.672C293.444 380.672 294.772 380.128 295.956 379.04C297.14 377.952 297.732 376.416 297.732 374.432C297.732 372.544 297.396 371.248 296.724 370.544C296.02 369.808 294.676 369.44 292.692 369.44C290.804 369.44 289.476 369.776 288.708 370.448C287.908 371.12 287.508 372.208 287.508 373.712C287.508 374.736 287.38 375.408 287.124 375.728C286.836 376.08 286.308 376.256 285.54 376.256C284.708 376.256 284.116 376.08 283.764 375.728C283.604 373.808 283.284 372.384 282.804 371.456C282.132 370.112 280.804 369.44 278.82 369.44C277.668 369.504 276.74 369.712 276.036 370.064C275.3 370.416 274.708 371.024 274.26 371.888C273.844 372.72 273.62 373.808 273.588 375.152V375.872C273.236 376.128 272.692 376.256 271.956 376.256C271.188 376.256 270.66 376.08 270.372 375.728C270.116 375.408 269.988 374.736 269.988 373.712C269.988 372.208 269.604 371.12 268.836 370.448C268.036 369.776 266.692 369.44 264.804 369.44C262.82 369.44 261.492 369.808 260.82 370.544C260.116 371.248 259.764 372.544 259.764 374.432C259.764 376.416 260.356 377.952 261.54 379.04C262.724 380.128 264.052 380.672 265.524 380.672C264.02 380.672 262.692 381.136 261.54 382.064C260.356 382.96 259.764 384.32 259.764 386.144C259.764 388.576 260.084 390.16 260.724 390.896C261.396 391.632 262.756 392 264.804 392C266.692 392 268.036 391.664 268.836 390.992C269.604 390.288 269.988 389.2 269.988 387.728C269.988 386.992 270.052 386.448 270.18 386.096C270.308 385.712 270.468 385.456 270.66 385.328C270.884 385.232 271.22 385.184 271.668 385.184H273.396C273.396 386.048 273.524 386.88 273.78 387.68C273.972 388.928 274.34 389.872 274.884 390.512C275.716 391.504 277.028 392 278.82 392C280.42 392 281.7 391.28 282.66 389.84C283.62 388.4 284.1 386.848 284.1 385.184H285.828C286.276 385.184 286.612 385.232 286.836 385.328C287.028 385.456 287.188 385.712 287.316 386.096C287.444 386.448 287.508 386.992 287.508 387.728C287.508 389.2 287.908 390.288 288.708 390.992C289.476 391.664 290.804 392 292.692 392C294.74 392 296.1 391.632 296.772 390.896C297.412 390.16 297.732 388.576 297.732 386.144C297.732 384.32 297.156 382.96 296.004 382.064ZM301.4 362.432C301.4 361.376 301.848 360.512 302.744 359.84C303.672 359.136 304.968 358.784 306.632 358.784C310.12 358.784 311.864 360 311.864 362.432C311.864 363.776 311.416 364.72 310.52 365.264C309.656 365.808 308.36 366.08 306.632 366.08C305.128 366.08 303.88 365.792 302.888 365.216C301.896 364.64 301.4 363.712 301.4 362.432ZM311.816 386.864C311.816 388.784 311.416 390.128 310.616 390.896C309.816 391.632 308.408 392 306.392 392C304.504 392 303.208 391.568 302.504 390.704C301.832 389.808 301.496 388.352 301.496 386.336V374.528C301.496 372.896 301.928 371.584 302.792 370.592C303.688 369.6 304.872 369.104 306.344 369.104C308.072 369.104 309.416 369.488 310.376 370.256C311.336 370.992 311.816 372.368 311.816 374.384V386.864ZM339.618 381.872C339.618 383.696 340.322 384.608 341.73 384.608C342.434 384.608 343.01 384.272 343.458 383.6C343.906 382.928 344.13 382.064 344.13 381.008V374.576C344.13 373.776 344.242 373.04 344.466 372.368C344.69 371.696 345.01 371.12 345.426 370.64C345.842 370.16 346.354 369.792 346.962 369.536C347.57 369.28 348.242 369.152 348.978 369.152C350.706 369.152 352.05 369.536 353.01 370.304C353.97 371.04 354.45 372.416 354.45 374.432V386.912C354.45 388.864 354.05 390.208 353.25 390.944C352.45 391.68 351.042 392.048 349.026 392.048C346.594 392.048 345.09 391.232 344.514 389.6C342.082 391.168 339.074 391.952 335.49 391.952C333.218 391.952 331.586 391.072 330.594 389.312C329.602 387.52 329.106 384.592 329.106 380.528C329.106 378.512 329.154 376.88 329.25 375.632C329.346 374.352 329.49 373.264 329.682 372.368C329.906 371.44 330.226 370.752 330.642 370.304C331.09 369.856 331.602 369.536 332.178 369.344C332.786 369.152 333.57 369.056 334.53 369.056C336.322 369.056 337.602 369.392 338.37 370.064C339.17 370.736 339.57 371.744 339.57 373.088L339.618 381.872ZM341.874 361.136C342.93 361.136 343.458 360.384 343.458 358.88C343.458 357.344 344.61 356.576 346.914 356.576C349.506 356.576 350.802 357.632 350.802 359.744C350.802 364.416 347.826 366.752 341.874 366.752C339.058 366.752 336.866 366.224 335.298 365.168C333.73 364.112 332.946 362.304 332.946 359.744C332.946 357.632 334.242 356.576 336.834 356.576C339.138 356.576 340.29 357.344 340.29 358.88C340.29 359.648 340.402 360.224 340.626 360.608C340.85 360.96 341.266 361.136 341.874 361.136ZM60.1801 423.256C59.2201 422.488 57.8761 422.104 56.1481 422.104C54.6761 422.104 53.4921 422.6 52.5961 423.592C51.7321 424.584 51.3001 425.896 51.3001 427.528V430.648H46.5961V427.384C46.5961 425.368 46.1161 423.992 45.1561 423.256C44.1961 422.488 42.8521 422.104 41.1241 422.104C39.6521 422.104 38.4681 422.6 37.5721 423.592C36.7081 424.584 36.2761 425.896 36.2761 427.528V439.336C36.2761 441.352 36.6121 442.808 37.2841 443.704C37.9881 444.568 39.2841 445 41.1721 445C43.1881 445 44.5961 444.632 45.3961 443.896C46.1961 443.128 46.5961 441.784 46.5961 439.864V436.456H51.3001V439.336C51.3001 441.352 51.6361 442.808 52.3081 443.704C53.0121 444.568 54.3081 445 56.1961 445C58.2121 445 59.6201 444.632 60.4201 443.896C61.2201 443.128 61.6201 441.784 61.6201 439.864V427.384C61.6201 425.368 61.1401 423.992 60.1801 423.256ZM74.5422 445.288C72.0142 445.288 69.9182 444.264 68.2542 442.216C66.5902 440.136 65.7582 437.304 65.7582 433.72C65.7582 430.072 66.5742 427.176 68.2062 425.032C69.8702 422.856 71.9822 421.768 74.5422 421.768C77.1342 421.768 79.5342 422.68 81.7422 424.504C82.6062 422.904 83.9982 422.104 85.9182 422.104C87.6462 422.104 88.9902 422.488 89.9502 423.256C90.9102 423.992 91.3902 425.368 91.3902 427.384V439.864C91.3902 441.784 90.9902 443.128 90.1902 443.896C89.3902 444.632 87.9822 445 85.9662 445C83.8542 445 82.4622 444.408 81.7902 443.224C79.7422 444.6 77.3262 445.288 74.5422 445.288ZM81.0702 429.112C80.5262 428.184 79.8222 427.72 78.9582 427.72C78.1262 427.72 77.4542 428.328 76.9422 429.544C76.4302 430.76 76.1742 432.152 76.1742 433.72C76.1742 435.192 76.4142 436.504 76.8942 437.656C77.3742 438.808 78.0462 439.384 78.9102 439.384C79.8062 439.384 80.5262 438.952 81.0702 438.088V429.112ZM124.367 432.328C124.367 430.536 123.647 429.64 122.207 429.64C121.567 429.64 121.087 430.008 120.767 430.744C120.447 431.48 120.287 432.408 120.287 433.528C120.287 435.224 120.255 436.632 120.191 437.752C120.159 438.872 120.063 439.88 119.903 440.776C119.743 441.672 119.551 442.376 119.327 442.888C119.103 443.4 118.799 443.832 118.415 444.184C118.031 444.504 117.599 444.728 117.119 444.856C116.639 444.952 116.031 445 115.295 445C114.175 445 113.263 444.84 112.559 444.52C111.887 444.2 111.407 443.752 111.119 443.176C110.831 442.6 110.687 441.88 110.687 441.016V432.328C110.687 430.536 109.967 429.64 108.527 429.64C107.951 429.64 107.471 429.976 107.087 430.648C106.735 431.288 106.559 432.136 106.559 433.192V439.864C106.559 441.784 106.159 443.128 105.359 443.896C104.559 444.632 103.151 445 101.135 445C99.2473 445 97.9513 444.568 97.2473 443.704C96.5753 442.808 96.2393 441.352 96.2393 439.336V427.528C96.2393 425.896 96.6713 424.584 97.5353 423.592C98.4313 422.6 99.6153 422.104 101.087 422.104C103.711 422.104 105.375 422.952 106.079 424.648C107.295 423.752 108.479 423.128 109.631 422.776C110.815 422.424 112.191 422.248 113.759 422.248C116.127 422.248 117.839 423.272 118.895 425.32C119.055 425.192 119.215 425.064 119.375 424.936C121.839 423.144 124.863 422.248 128.447 422.248C130.719 422.248 132.351 423.112 133.343 424.84C134.335 426.568 134.831 429.464 134.831 433.528C134.831 435.224 134.799 436.632 134.735 437.752C134.703 438.872 134.607 439.88 134.447 440.776C134.287 441.672 134.079 442.376 133.823 442.888C133.599 443.4 133.263 443.832 132.815 444.184C132.399 444.504 131.919 444.728 131.375 444.856C130.863 444.952 130.207 445 129.407 445C128.191 445 127.199 444.84 126.431 444.52C125.695 444.2 125.167 443.752 124.847 443.176C124.527 442.6 124.367 441.88 124.367 441.016V432.328ZM164.22 431.464C164.22 436.936 164.06 440.76 163.74 442.936C163.484 444.888 163.084 446.568 162.54 447.976C161.996 449.416 161.228 450.68 160.236 451.768C159.244 452.888 157.98 453.72 156.444 454.264C154.908 454.808 153.084 455.08 150.972 455.08C149.276 455.08 147.692 454.824 146.22 454.312C144.78 453.832 143.628 453.224 142.764 452.488C141.932 451.784 141.276 451.08 140.796 450.376C140.316 449.672 140.076 449.064 140.076 448.552C140.076 448.04 140.236 447.56 140.556 447.112C140.908 446.696 141.372 446.488 141.948 446.488C142.364 446.488 142.844 446.616 143.388 446.872C143.964 447.128 144.508 447.416 145.02 447.736C145.532 448.056 146.14 448.344 146.844 448.6C147.548 448.856 148.236 448.984 148.908 448.984C150.636 448.984 151.852 448.552 152.556 447.688C153.292 446.824 153.66 445.592 153.66 443.992C153.116 444.216 152.588 444.408 152.076 444.568C151.564 444.728 151.068 444.856 150.588 444.952C150.108 445.048 149.644 445.112 149.196 445.144C148.78 445.176 148.364 445.192 147.948 445.192C146.06 445.192 144.444 444.664 143.1 443.608C141.756 442.552 140.78 441.256 140.172 439.72C139.596 438.152 139.308 436.472 139.308 434.68C139.308 432.888 139.324 431.368 139.356 430.12C139.42 428.872 139.532 427.768 139.692 426.808C139.852 425.816 140.028 425.032 140.22 424.456C140.444 423.88 140.748 423.416 141.132 423.064C141.516 422.68 141.948 422.424 142.428 422.296C142.908 422.168 143.484 422.104 144.156 422.104C146.172 422.104 147.58 422.456 148.38 423.16C149.212 423.832 149.628 424.904 149.628 426.376L149.676 434.104C149.676 434.616 149.676 435 149.676 435.256C149.676 435.48 149.692 435.768 149.724 436.12C149.788 436.472 149.852 436.728 149.916 436.888C150.012 437.048 150.124 437.224 150.252 437.416C150.412 437.576 150.604 437.688 150.828 437.752C151.084 437.816 151.388 437.848 151.74 437.848C152.7 437.848 153.292 437.592 153.516 437.08C153.772 436.536 153.9 435.56 153.9 434.152L153.948 426.376C153.948 425.384 154.108 424.584 154.428 423.976C154.78 423.368 155.356 422.904 156.156 422.584C156.956 422.264 158.044 422.104 159.42 422.104C160.252 422.104 160.956 422.248 161.532 422.536C162.14 422.792 162.62 423.144 162.972 423.592C163.324 424.008 163.58 424.648 163.74 425.512C163.932 426.344 164.06 427.192 164.124 428.056C164.188 428.92 164.22 430.056 164.22 431.464ZM179.121 447.784C179.121 450.376 178.689 452.216 177.825 453.304C176.961 454.424 175.633 454.984 173.841 454.984C172.049 454.984 170.737 454.472 169.905 453.448C169.073 452.456 168.657 450.68 168.657 448.12L168.561 427.864C168.561 425.88 169.041 424.424 170.001 423.496C170.961 422.568 172.241 422.104 173.841 422.104C175.089 422.104 176.097 422.264 176.865 422.584C177.633 422.872 178.209 423.464 178.593 424.36C180.801 422.632 183.169 421.768 185.697 421.768C188.257 421.768 190.353 422.84 191.985 424.984C193.617 427.128 194.433 430.04 194.433 433.72C194.433 437.304 193.601 440.136 191.937 442.216C190.273 444.264 188.177 445.288 185.649 445.288C183.217 445.288 181.041 444.744 179.121 443.656V447.784ZM179.121 438.04C179.665 438.936 180.385 439.384 181.281 439.384C182.145 439.384 182.817 438.808 183.297 437.656C183.777 436.504 184.017 435.192 184.017 433.72C184.017 432.152 183.761 430.76 183.249 429.544C182.737 428.328 182.065 427.72 181.233 427.72C180.369 427.72 179.665 428.184 179.121 429.112V438.04ZM206.917 445.288C204.389 445.288 202.293 444.264 200.629 442.216C198.965 440.136 198.133 437.304 198.133 433.72C198.133 430.072 198.949 427.176 200.581 425.032C202.245 422.856 204.357 421.768 206.917 421.768C209.509 421.768 211.909 422.68 214.117 424.504C214.981 422.904 216.373 422.104 218.293 422.104C220.021 422.104 221.365 422.488 222.325 423.256C223.285 423.992 223.765 425.368 223.765 427.384V439.864C223.765 441.784 223.365 443.128 222.565 443.896C221.765 444.632 220.357 445 218.341 445C216.229 445 214.837 444.408 214.165 443.224C212.117 444.6 209.701 445.288 206.917 445.288ZM213.445 429.112C212.901 428.184 212.197 427.72 211.333 427.72C210.501 427.72 209.829 428.328 209.317 429.544C208.805 430.76 208.549 432.152 208.549 433.72C208.549 435.192 208.789 436.504 209.269 437.656C209.749 438.808 210.421 439.384 211.285 439.384C212.181 439.384 212.901 438.952 213.445 438.088V429.112ZM240.854 429.304C241.206 429.304 241.51 429.336 241.766 429.4C241.99 429.464 242.166 429.592 242.294 429.784C242.454 429.944 242.582 430.104 242.678 430.264C242.774 430.424 242.838 430.68 242.87 431.032C242.902 431.384 242.918 431.672 242.918 431.896V433.048L242.966 440.728C242.966 442.2 243.382 443.288 244.214 443.992C245.046 444.664 246.454 445 248.438 445C249.846 445 250.902 444.712 251.606 444.136C252.278 443.528 252.758 442.472 253.046 440.968C253.334 439.432 253.478 437.096 253.478 433.96C253.478 432.232 253.206 430.68 252.662 429.304C252.118 427.928 251.414 426.808 250.55 425.944C249.686 425.048 248.694 424.296 247.574 423.688C246.422 423.112 245.286 422.696 244.166 422.44C243.046 422.216 241.926 422.104 240.806 422.104C239.654 422.104 238.518 422.216 237.398 422.44C236.278 422.696 235.158 423.112 234.038 423.688C232.918 424.296 231.942 425.048 231.11 425.944C230.246 426.808 229.542 427.928 228.998 429.304C228.454 430.68 228.182 432.232 228.182 433.96C228.182 435.848 228.23 437.4 228.326 438.616C228.422 439.864 228.566 440.92 228.758 441.784C228.95 442.68 229.254 443.336 229.67 443.752C230.086 444.2 230.566 444.52 231.11 444.712C231.654 444.904 232.358 445 233.222 445C234.566 445 235.638 444.84 236.438 444.52C237.238 444.2 237.814 443.736 238.166 443.128C238.486 442.52 238.646 441.72 238.646 440.728L238.694 433C238.694 431.592 238.822 430.632 239.078 430.12C239.334 429.576 239.926 429.304 240.854 429.304ZM267.986 440.632C268.018 440.248 268.034 439.816 268.034 439.336V433.48L268.226 433.528C268.706 433.624 269.138 433.816 269.522 434.104C269.938 434.36 270.258 434.744 270.482 435.256C270.674 435.736 270.77 436.344 270.77 437.08C270.77 437.912 270.69 438.552 270.53 439C270.37 439.48 270.098 439.848 269.714 440.104C269.33 440.36 268.914 440.52 268.466 440.584L267.986 440.632ZM257.714 439.864C257.714 441.784 258.114 443.128 258.914 443.896C259.458 444.376 260.274 444.712 261.362 444.904C261.714 444.968 262.098 445 262.514 445H262.61H263.138H263.57H268.418C269.89 445 271.234 444.808 272.45 444.424C273.666 444.008 274.738 443.448 275.666 442.744C276.562 442.072 277.25 441.192 277.73 440.104C278.242 439.048 278.498 437.88 278.498 436.6C278.498 435.032 278.05 433.656 277.154 432.472C276.226 431.288 275.01 430.408 273.506 429.832C272.034 429.256 270.354 428.968 268.466 428.968H268.034V427.528C268.034 425.896 267.586 424.584 266.69 423.592C265.826 422.6 264.658 422.104 263.186 422.104H262.898H262.514C261.394 422.104 260.514 422.328 259.874 422.776C259.618 422.904 259.378 423.064 259.154 423.256C258.194 423.992 257.714 425.368 257.714 427.384V439.864ZM306.649 423.256C305.689 422.488 304.345 422.104 302.617 422.104C301.145 422.104 299.961 422.6 299.065 423.592C298.201 424.584 297.769 425.896 297.769 427.528V430.648H293.065V427.384C293.065 425.368 292.585 423.992 291.625 423.256C290.665 422.488 289.321 422.104 287.593 422.104C286.121 422.104 284.937 422.6 284.041 423.592C283.177 424.584 282.745 425.896 282.745 427.528V439.336C282.745 441.352 283.081 442.808 283.753 443.704C284.457 444.568 285.753 445 287.641 445C289.657 445 291.065 444.632 291.865 443.896C292.665 443.128 293.065 441.784 293.065 439.864V436.456H297.769V439.336C297.769 441.352 298.105 442.808 298.777 443.704C299.481 444.568 300.777 445 302.665 445C304.681 445 306.089 444.632 306.889 443.896C307.689 443.128 308.089 441.784 308.089 439.864V427.384C308.089 425.368 307.609 423.992 306.649 423.256ZM312.275 415.432C312.275 414.376 312.723 413.512 313.619 412.84C314.547 412.136 315.843 411.784 317.507 411.784C320.995 411.784 322.739 413 322.739 415.432C322.739 416.776 322.291 417.72 321.395 418.264C320.531 418.808 319.235 419.08 317.507 419.08C316.003 419.08 314.755 418.792 313.763 418.216C312.771 417.64 312.275 416.712 312.275 415.432ZM322.691 439.864C322.691 441.784 322.291 443.128 321.491 443.896C320.691 444.632 319.283 445 317.267 445C315.379 445 314.083 444.568 313.379 443.704C312.707 442.808 312.371 441.352 312.371 439.336V427.528C312.371 425.896 312.803 424.584 313.667 423.592C314.563 422.6 315.747 422.104 317.219 422.104C318.947 422.104 320.291 422.488 321.251 423.256C322.211 423.992 322.691 425.368 322.691 427.384V439.864ZM38.5249 468.432C38.5249 467.376 38.9729 466.512 39.8689 465.84C40.7969 465.136 42.0929 464.784 43.7569 464.784C47.2449 464.784 48.9889 466 48.9889 468.432C48.9889 469.776 48.5409 470.72 47.6449 471.264C46.7809 471.808 45.4849 472.08 43.7569 472.08C42.2529 472.08 41.0049 471.792 40.0129 471.216C39.0209 470.64 38.5249 469.712 38.5249 468.432ZM48.9409 492.864C48.9409 494.784 48.5409 496.128 47.7409 496.896C46.9409 497.632 45.5329 498 43.5169 498C41.6289 498 40.3329 497.568 39.6289 496.704C38.9569 495.808 38.6209 494.352 38.6209 492.336V480.528C38.6209 478.896 39.0529 477.584 39.9169 476.592C40.8129 475.6 41.9969 475.104 43.4689 475.104C45.1969 475.104 46.5409 475.488 47.5009 476.256C48.4609 476.992 48.9409 478.368 48.9409 480.384V492.864ZM77.1019 476.256C76.1419 475.488 74.7979 475.104 73.0699 475.104C71.5979 475.104 70.4139 475.6 69.5179 476.592C68.6539 477.584 68.2219 478.896 68.2219 480.528V483.648H63.5179V480.384C63.5179 478.368 63.0379 476.992 62.0779 476.256C61.1179 475.488 59.7739 475.104 58.0459 475.104C56.5739 475.104 55.3899 475.6 54.4939 476.592C53.6299 477.584 53.1979 478.896 53.1979 480.528V492.336C53.1979 494.352 53.5339 495.808 54.2059 496.704C54.9099 497.568 56.2059 498 58.0939 498C60.1099 498 61.5179 497.632 62.3179 496.896C63.1179 496.128 63.5179 494.784 63.5179 492.864V489.456H68.2219V492.336C68.2219 494.352 68.5579 495.808 69.2299 496.704C69.9339 497.568 71.2299 498 73.1179 498C75.1339 498 76.5419 497.632 77.3419 496.896C78.1419 496.128 78.5419 494.784 78.5419 492.864V480.384C78.5419 478.368 78.0619 476.992 77.1019 476.256ZM102.408 475.776C101.736 475.328 100.536 475.104 98.8081 475.104H87.6241C87.2721 475.104 86.9361 475.136 86.6161 475.2C85.4001 475.36 84.5681 475.824 84.1201 476.592H84.0721C83.2081 477.584 82.7761 478.896 82.7761 480.528V492.336C82.7761 494.352 83.1121 495.808 83.7841 496.704C84.4881 497.568 85.7841 498 87.6721 498C89.6881 498 91.0961 497.632 91.8961 496.896C92.6961 496.128 93.0961 494.784 93.0961 492.864V480.96H98.3281C100.152 480.96 101.448 480.768 102.216 480.384C103.016 480.032 103.416 479.344 103.416 478.32C103.416 477.104 103.08 476.256 102.408 475.776ZM117.433 500.784C117.433 503.376 117.001 505.216 116.137 506.304C115.273 507.424 113.945 507.984 112.153 507.984C110.361 507.984 109.049 507.472 108.217 506.448C107.385 505.456 106.969 503.68 106.969 501.12L106.873 480.864C106.873 478.88 107.353 477.424 108.313 476.496C109.273 475.568 110.553 475.104 112.153 475.104C113.401 475.104 114.409 475.264 115.177 475.584C115.945 475.872 116.521 476.464 116.905 477.36C119.113 475.632 121.481 474.768 124.009 474.768C126.569 474.768 128.665 475.84 130.297 477.984C131.929 480.128 132.745 483.04 132.745 486.72C132.745 490.304 131.913 493.136 130.249 495.216C128.585 497.264 126.489 498.288 123.961 498.288C121.529 498.288 119.353 497.744 117.433 496.656V500.784ZM117.433 491.04C117.977 491.936 118.697 492.384 119.593 492.384C120.457 492.384 121.129 491.808 121.609 490.656C122.089 489.504 122.329 488.192 122.329 486.72C122.329 485.152 122.073 483.76 121.561 482.544C121.049 481.328 120.377 480.72 119.545 480.72C118.681 480.72 117.977 481.184 117.433 482.112V491.04ZM136.494 468.432C136.494 467.376 136.942 466.512 137.838 465.84C138.766 465.136 140.062 464.784 141.726 464.784C145.214 464.784 146.958 466 146.958 468.432C146.958 469.776 146.51 470.72 145.614 471.264C144.75 471.808 143.454 472.08 141.726 472.08C140.222 472.08 138.974 471.792 137.982 471.216C136.99 470.64 136.494 469.712 136.494 468.432ZM146.91 492.864C146.91 494.784 146.51 496.128 145.71 496.896C144.91 497.632 143.502 498 141.486 498C139.598 498 138.302 497.568 137.598 496.704C136.926 495.808 136.59 494.352 136.59 492.336V480.528C136.59 478.896 137.022 477.584 137.886 476.592C138.782 475.6 139.966 475.104 141.438 475.104C143.166 475.104 144.51 475.488 145.47 476.256C146.43 476.992 146.91 478.368 146.91 480.384V492.864ZM159.999 498.288C157.471 498.288 155.375 497.264 153.711 495.216C152.047 493.136 151.215 490.288 151.215 486.672C151.215 483.024 152.031 480.128 153.663 477.984C155.295 475.84 157.391 474.768 159.951 474.768C162.543 474.768 164.943 475.664 167.151 477.456C167.983 475.888 169.359 475.104 171.279 475.104C173.007 475.104 174.351 475.488 175.311 476.256C176.303 477.024 176.799 478.4 176.799 480.384V489.168C176.799 492.272 176.591 494.944 176.175 497.184C175.791 499.392 175.103 501.344 174.111 503.04C173.151 504.736 171.807 506 170.079 506.832C168.383 507.664 166.287 508.08 163.791 508.08C162.063 508.08 160.463 507.84 158.991 507.36C157.519 506.88 156.351 506.288 155.487 505.584C154.623 504.88 153.951 504.176 153.471 503.472C152.991 502.768 152.751 502.16 152.751 501.648C152.751 501.04 152.927 500.528 153.279 500.112C153.631 499.696 154.127 499.488 154.767 499.488C155.151 499.488 156.111 499.904 157.647 500.736C159.215 501.568 160.479 501.984 161.439 501.984C164.703 501.984 166.335 500.304 166.335 496.944C164.479 497.84 162.367 498.288 159.999 498.288ZM166.527 491.088L166.479 482.016C165.935 481.12 165.247 480.672 164.415 480.672C163.839 480.672 163.327 480.976 162.879 481.584C162.463 482.192 162.143 482.944 161.919 483.84C161.727 484.736 161.631 485.68 161.631 486.672C161.631 488.176 161.871 489.504 162.351 490.656C162.831 491.776 163.503 492.336 164.367 492.336C165.231 492.336 165.951 491.92 166.527 491.088ZM181.072 468.432C181.072 467.376 181.52 466.512 182.416 465.84C183.344 465.136 184.64 464.784 186.304 464.784C189.792 464.784 191.536 466 191.536 468.432C191.536 469.776 191.088 470.72 190.192 471.264C189.328 471.808 188.032 472.08 186.304 472.08C184.8 472.08 183.552 471.792 182.56 471.216C181.568 470.64 181.072 469.712 181.072 468.432ZM191.488 492.864C191.488 494.784 191.088 496.128 190.288 496.896C189.488 497.632 188.08 498 186.064 498C184.176 498 182.88 497.568 182.176 496.704C181.504 495.808 181.168 494.352 181.168 492.336V480.528C181.168 478.896 181.6 477.584 182.464 476.592C183.36 475.6 184.544 475.104 186.016 475.104C187.744 475.104 189.088 475.488 190.048 476.256C191.008 476.992 191.488 478.368 191.488 480.384V492.864ZM245.524 476.256C244.564 475.488 243.22 475.104 241.492 475.104C240.02 475.104 238.836 475.6 237.94 476.592C237.076 477.584 236.644 478.896 236.644 480.528V483.648H231.94V480.384C231.94 478.368 231.46 476.992 230.5 476.256C229.54 475.488 228.196 475.104 226.468 475.104C224.996 475.104 223.812 475.6 222.916 476.592C222.052 477.584 221.62 478.896 221.62 480.528V492.336C221.62 494.352 221.956 495.808 222.628 496.704C223.332 497.568 224.628 498 226.516 498C228.532 498 229.94 497.632 230.74 496.896C231.54 496.128 231.94 494.784 231.94 492.864V489.456H236.644V492.336C236.644 494.352 236.98 495.808 237.652 496.704C238.356 497.568 239.652 498 241.54 498C243.556 498 244.964 497.632 245.764 496.896C246.564 496.128 246.964 494.784 246.964 492.864V480.384C246.964 478.368 246.484 476.992 245.524 476.256ZM279.758 485.328C279.758 483.536 279.038 482.64 277.598 482.64C276.958 482.64 276.478 483.008 276.158 483.744C275.838 484.48 275.678 485.408 275.678 486.528C275.678 488.224 275.646 489.632 275.582 490.752C275.55 491.872 275.454 492.88 275.294 493.776C275.134 494.672 274.942 495.376 274.718 495.888C274.494 496.4 274.19 496.832 273.806 497.184C273.422 497.504 272.99 497.728 272.51 497.856C272.03 497.952 271.422 498 270.686 498C269.566 498 268.654 497.84 267.95 497.52C267.278 497.2 266.798 496.752 266.51 496.176C266.222 495.6 266.078 494.88 266.078 494.016V485.328C266.078 483.536 265.358 482.64 263.918 482.64C263.342 482.64 262.862 482.976 262.478 483.648C262.126 484.288 261.95 485.136 261.95 486.192V492.864C261.95 494.784 261.55 496.128 260.75 496.896C259.95 497.632 258.542 498 256.526 498C254.638 498 253.342 497.568 252.638 496.704C251.966 495.808 251.63 494.352 251.63 492.336V480.528C251.63 478.896 252.062 477.584 252.926 476.592C253.822 475.6 255.006 475.104 256.478 475.104C259.102 475.104 260.766 475.952 261.47 477.648C262.686 476.752 263.87 476.128 265.022 475.776C266.206 475.424 267.582 475.248 269.15 475.248C271.518 475.248 273.23 476.272 274.286 478.32C274.446 478.192 274.606 478.064 274.766 477.936C277.23 476.144 280.254 475.248 283.838 475.248C286.11 475.248 287.742 476.112 288.734 477.84C289.726 479.568 290.222 482.464 290.222 486.528C290.222 488.224 290.19 489.632 290.126 490.752C290.094 491.872 289.998 492.88 289.838 493.776C289.678 494.672 289.47 495.376 289.214 495.888C288.99 496.4 288.654 496.832 288.206 497.184C287.79 497.504 287.31 497.728 286.766 497.856C286.254 497.952 285.598 498 284.798 498C283.582 498 282.59 497.84 281.822 497.52C281.086 497.2 280.558 496.752 280.238 496.176C279.918 495.6 279.758 494.88 279.758 494.016V485.328ZM305.259 487.872C305.259 489.696 305.963 490.608 307.371 490.608C307.851 490.608 308.267 490.464 308.619 490.176C309.003 489.856 309.291 489.424 309.483 488.88C309.675 488.336 309.771 487.712 309.771 487.008V480.576C309.771 479.488 309.963 478.544 310.347 477.744C310.731 476.912 311.291 476.272 312.027 475.824C312.763 475.376 313.627 475.152 314.619 475.152C316.347 475.152 317.691 475.536 318.651 476.304C319.611 477.04 320.091 478.416 320.091 480.432V492.912C320.091 494.864 319.691 496.208 318.891 496.944C318.091 497.68 316.683 498.048 314.667 498.048C313.803 498.048 313.067 497.968 312.459 497.808C311.851 497.616 311.355 497.344 310.971 496.992C310.619 496.64 310.347 496.176 310.155 495.6C308.843 496.464 307.451 497.072 305.979 497.424C304.539 497.776 302.923 497.952 301.131 497.952C298.859 497.952 297.227 497.072 296.235 495.312C295.243 493.52 294.747 490.592 294.747 486.528C294.747 484.512 294.795 482.88 294.891 481.632C294.987 480.352 295.131 479.264 295.323 478.368C295.547 477.44 295.867 476.752 296.283 476.304C296.731 475.856 297.243 475.536 297.819 475.344C298.427 475.152 299.211 475.056 300.171 475.056C301.963 475.056 303.243 475.392 304.011 476.064C304.811 476.736 305.211 477.744 305.211 479.088L305.259 487.872Z" fill="#E3CE0B"/>
<path d="M194.849 486.384C194.849 484.24 195.297 482.336 196.193 480.672L196.433 480.384C196.529 480.256 196.609 480.144 196.673 480.048L197.009 479.616C197.265 479.296 197.505 479.008 197.729 478.752C198.017 478.4 198.257 478.144 198.449 477.984C200.849 475.84 203.905 474.768 207.617 474.768C208.897 474.768 210.129 474.96 211.313 475.344C212.465 475.728 213.441 476.208 214.241 476.784C215.041 477.392 215.745 478.048 216.353 478.752C216.929 479.456 217.361 480.128 217.649 480.768C217.937 481.408 218.081 481.952 218.081 482.4C218.081 482.656 218.033 482.896 217.937 483.12C217.809 483.344 217.617 483.536 217.361 483.696C217.105 483.856 216.769 483.936 216.353 483.936C216.065 483.936 215.601 483.76 214.961 483.408C214.321 483.056 213.777 482.816 213.329 482.688C212.209 482.304 210.881 482.112 209.345 482.112C207.809 482.112 206.577 482.608 205.649 483.6L205.409 483.888C205.569 483.984 205.841 484.08 206.225 484.176C206.769 484.304 207.601 484.368 208.721 484.368C210.449 484.368 211.313 485.056 211.313 486.432C211.313 487.36 211.057 487.984 210.545 488.304C210.033 488.656 209.153 488.832 207.905 488.832C207.329 488.832 206.833 488.848 206.417 488.88C206.001 488.944 205.681 489.04 205.457 489.168L205.409 489.216L205.649 489.504C206.577 490.496 207.809 490.992 209.345 490.992C210.881 490.992 212.209 490.8 213.329 490.416C213.777 490.288 214.321 490.048 214.961 489.696C215.601 489.344 216.065 489.168 216.353 489.168C216.769 489.168 217.105 489.248 217.361 489.408C217.617 489.568 217.809 489.76 217.937 489.984C218.033 490.208 218.081 490.448 218.081 490.704C218.081 491.152 217.937 491.696 217.649 492.336C217.361 492.976 216.929 493.648 216.353 494.352C215.745 495.056 215.041 495.696 214.241 496.272C213.441 496.88 212.465 497.376 211.313 497.76C210.129 498.144 208.897 498.336 207.617 498.336C203.905 498.336 200.849 497.264 198.449 495.12C198.225 494.928 197.953 494.64 197.633 494.256C197.409 493.968 197.153 493.632 196.865 493.248L196.529 492.768C196.433 492.64 196.337 492.512 196.241 492.384C196.081 492.16 196.001 492.048 196.001 492.048C195.233 490.48 194.849 488.704 194.849 486.72V486.384Z" fill="#E3CE0B"/>
</svg>
